<svg width="500" height="100" padding="0" fill="none" xmlns="http://www.w3.org/2000/svg">
<g clip-path="url(#clip0)">
<path d="M50.8182 16.4218C52.375 16.355 53.3943 15.7471 53.8762 14.5981C54.0393 14.22 54.1208 13.7826 54.1208 13.2859V3.37796C54.1208 2.76265 53.7576 2.33268 53.0311 2.08804C52.8309 2.02132 52.6307 1.94348 52.4306 1.85452V1.19844H57.101V1.85452C56.9008 1.94348 56.697 2.02132 56.4894 2.08804C56.2892 2.15476 56.1076 2.24001 55.9445 2.3438C55.5739 2.5662 55.3885 2.91092 55.3885 3.37796V12.9412C55.3885 15.6396 53.8651 17.0964 50.8182 17.3114V16.4218ZM49.8952 17.3447C47.1226 17.3447 45.3582 16.4811 44.6021 14.7538C44.35 14.1829 44.224 13.5268 44.224 12.7855V3.24452C44.224 2.77007 44.0794 2.44388 43.7903 2.26596C43.6569 2.18441 43.4975 2.11769 43.3122 2.0658C43.1268 2.01391 42.9267 1.94348 42.7117 1.85452V1.19844H48.5275V1.85452C48.3051 1.94348 48.1012 2.01391 47.9159 2.0658C47.7305 2.11769 47.5674 2.18441 47.4266 2.26596C47.1375 2.43647 46.9929 2.76265 46.9929 3.24452V13.3081C46.9929 14.1755 47.2561 14.8872 47.7824 15.4432C48.2865 15.977 48.9908 16.2957 49.8952 16.3995V17.3447ZM72.0241 11.7736C72.328 10.7728 72.669 9.60147 73.0471 8.25966C73.4326 6.91043 73.6995 5.97634 73.8478 5.45741C73.996 4.93847 74.1295 4.47143 74.2481 4.05628C74.3741 3.63372 74.4371 3.29271 74.4371 3.03324C74.4371 2.77377 74.3926 2.58844 74.3037 2.47724C74.2221 2.36604 74.1109 2.28079 73.9701 2.22148C73.8366 2.15476 73.6847 2.10287 73.5142 2.0658C73.3437 2.02132 73.1732 1.96572 73.0026 1.899V1.19844H77.2616V1.899C77.1578 1.97313 77.0392 2.03244 76.9058 2.07692C76.7797 2.1214 76.6537 2.17329 76.5277 2.2326C76.2163 2.36604 76.0125 2.53655 75.9161 2.74412C75.7901 3.03324 75.6566 3.41874 75.5158 3.9006L72.6023 13.753L72.0241 11.7736ZM72.1909 15.1318L71.5682 17.2558H70.1782L67.1646 7.02533H67.109L65.1519 13.9198L64.5848 11.8625L66.1638 6.39149C66.2454 6.10237 66.3232 5.85032 66.3973 5.63533C66.4715 5.42034 66.5234 5.21647 66.553 5.02373C66.427 4.2898 66.2713 3.69303 66.086 3.2334C65.9007 2.76636 65.7524 2.49207 65.6412 2.41052C65.5374 2.32156 65.4262 2.25113 65.3076 2.19924C65.189 2.14735 65.0704 2.10287 64.9517 2.0658C64.8331 2.02873 64.7293 1.97313 64.6404 1.899V1.19844H69.9335V1.899C69.7927 1.96572 69.6444 2.01761 69.4887 2.05468C69.333 2.09175 69.1885 2.13623 69.055 2.18812C68.7437 2.30673 68.588 2.47353 68.588 2.68852C68.588 2.90351 68.6214 3.1222 68.6881 3.3446C68.7622 3.567 68.8512 3.845 68.955 4.1786L72.1909 15.1318ZM64.7627 15.2986L64.2067 17.2558H62.75L58.769 3.50028C58.5466 2.78119 58.3427 2.37345 58.1574 2.27708C58.0684 2.22519 57.9758 2.18071 57.8794 2.14364C57.6051 2.05468 57.4383 1.97313 57.379 1.899V1.19844H62.5721V1.899C62.4386 1.97313 62.2941 2.03244 62.1384 2.07692C61.9901 2.11399 61.853 2.15847 61.7269 2.21036C61.4156 2.33639 61.2599 2.5106 61.2599 2.733C61.2599 2.94799 61.297 3.16298 61.3711 3.37796C61.4452 3.59295 61.5194 3.83018 61.5935 4.08964L64.7627 15.2986ZM94.2308 1.96572C94.4977 1.96572 94.7164 1.76926 94.8869 1.37636H95.8654V6.93637H95.1093C94.8127 6.65466 94.5496 6.19504 94.3197 5.55749C94.0899 4.91253 93.9009 4.40471 93.7526 4.03404C93.6044 3.66338 93.419 3.32236 93.1966 3.011C92.7073 2.32156 92.029 1.91753 91.1617 1.79892V0.887076C92.0957 0.976036 92.9928 1.2874 93.8527 1.82116C94.0084 1.91753 94.1344 1.96572 94.2308 1.96572ZM91.1617 16.2772C92.7926 16.2772 93.9528 15.4617 94.6422 13.8308C94.8795 13.2674 95.05 12.5928 95.1537 11.8069L96.2101 12.0627C95.9803 13.79 95.4503 15.0836 94.62 15.9436C93.7897 16.7961 92.6369 17.2595 91.1617 17.3336V16.2772ZM90.2387 17.3336C88.2297 17.2298 86.6136 16.4403 85.3904 14.965C84.1597 13.475 83.5444 11.5178 83.5444 9.09366C83.5444 6.73621 84.182 4.78279 85.4571 3.2334C86.7099 1.70625 88.3038 0.913022 90.2387 0.853715V1.7878C88.6003 1.94348 87.5106 3.25935 86.9694 5.73541C86.7692 6.65466 86.6692 7.75925 86.6692 9.04918C86.6692 10.3317 86.7692 11.3992 86.9694 12.2517C87.1696 13.1043 87.4364 13.8086 87.77 14.3646C88.3779 15.395 89.2008 16.0103 90.2387 16.2105V17.3336ZM103.649 11.3288C101.663 12.0479 100.669 13.0969 100.669 14.4758C100.669 15.0318 100.803 15.4803 101.07 15.8213C101.336 16.1549 101.733 16.3217 102.259 16.3217C102.793 16.3217 103.257 16.1252 103.649 15.7323V16.7887C103.079 17.1297 102.434 17.3002 101.715 17.3002C100.995 17.3002 100.417 17.2298 99.9798 17.089C99.5499 16.9481 99.1866 16.7554 98.8901 16.5107C98.2748 16.014 97.9671 15.3579 97.9671 14.5425C97.9671 12.8596 99.4609 11.5883 102.448 10.7283C102.871 10.6023 103.271 10.4911 103.649 10.3947V11.3288ZM101.014 7.34781C101.422 7.50349 101.626 7.85933 101.626 8.41534C101.626 8.77118 101.5 9.05659 101.248 9.27158C100.995 9.48657 100.654 9.59406 100.224 9.59406C99.8019 9.59406 99.4646 9.47915 99.2126 9.24934C98.9679 9.01952 98.8456 8.72299 98.8456 8.35974C98.8456 7.99648 98.9308 7.67029 99.1014 7.38117C99.2719 7.09205 99.5128 6.83629 99.8242 6.61389C100.469 6.14685 101.281 5.87626 102.259 5.80213V6.64725C101.659 6.70656 101.244 6.94008 101.014 7.34781ZM107.63 15.8991C108.038 15.8991 108.298 15.5284 108.409 14.7871L108.976 15.0874C108.902 15.8065 108.702 16.355 108.375 16.7331C108.057 17.1112 107.545 17.3002 106.841 17.3002C106.292 17.3002 105.885 17.2002 105.618 17C105.188 16.6738 104.839 16.1808 104.572 15.521V8.59326C104.572 8.13363 104.45 7.73701 104.205 7.40341C103.968 7.0624 103.627 6.83259 103.182 6.71397V5.80213C105.696 5.93557 106.952 7.26256 106.952 9.7831V15.0429C106.952 15.6137 107.178 15.8991 107.63 15.8991ZM117.094 7.59245C116.886 7.08093 116.423 6.78811 115.704 6.71397V5.81325C116.69 5.86514 117.475 6.19133 118.061 6.79181C118.573 7.30333 118.828 7.89269 118.828 8.5599C118.828 9.24193 118.565 9.70526 118.039 9.9499C117.861 10.0314 117.62 10.0722 117.316 10.0722C117.012 10.0722 116.738 9.96102 116.493 9.73862C116.256 9.50881 116.137 9.24563 116.137 8.9491C116.137 8.65256 116.171 8.43387 116.237 8.29302C116.304 8.15216 116.386 8.03726 116.482 7.9483C116.578 7.85933 116.682 7.78891 116.793 7.73701C116.905 7.68512 117.005 7.63693 117.094 7.59245ZM115.704 16.2883C116.608 16.1549 117.275 15.584 117.705 14.5758C117.831 14.2941 117.942 14.0087 118.039 13.7196L118.962 13.9976C118.547 15.4284 117.868 16.3847 116.927 16.8666C116.578 17.0519 116.171 17.1779 115.704 17.2446V16.2883ZM112.457 11.5289C112.457 14.435 113.231 16.0214 114.781 16.2883V17.3002C113.379 17.2706 112.212 16.7702 111.278 15.799C110.292 14.7538 109.799 13.3712 109.799 11.6513C109.799 10.1315 110.258 8.81195 111.178 7.69253C112.127 6.53605 113.328 5.90592 114.781 5.80213V6.78069C113.669 7.04016 112.95 7.98166 112.623 9.60518C112.512 10.1612 112.457 10.8024 112.457 11.5289ZM124.344 15.243C124.344 15.5915 124.496 15.8435 124.8 15.9992C124.941 16.0733 125.093 16.1401 125.256 16.1994C125.426 16.2513 125.589 16.3217 125.745 16.4106V17H120.563V16.4106C120.726 16.3217 120.889 16.2513 121.052 16.1994C121.223 16.1401 121.375 16.0733 121.508 15.9992C121.812 15.8435 121.964 15.5915 121.964 15.243V2.96652C121.964 2.5662 121.816 2.29932 121.519 2.16588C121.386 2.09916 121.234 2.04727 121.063 2.0102C120.893 1.96572 120.719 1.899 120.541 1.81004V1.13172H124.344V15.243ZM126.935 6.98085C126.327 6.98085 125.771 7.21067 125.267 7.67029V6.45821C125.919 6.01341 126.675 5.79101 127.535 5.79101C128.529 5.79101 129.344 6.05789 129.982 6.59165C130.671 7.16989 131.016 7.952 131.016 8.93798V15.243C131.016 15.584 131.172 15.8361 131.483 15.9992C131.616 16.0733 131.765 16.1401 131.928 16.1994C132.091 16.2513 132.246 16.3217 132.395 16.4106V17H128.091V16.1994C128.091 16.0659 128.121 15.9658 128.18 15.8991C128.24 15.825 128.303 15.7546 128.369 15.6878C128.555 15.4877 128.647 15.2727 128.647 15.0429V8.8935C128.647 7.6184 128.076 6.98085 126.935 6.98085ZM140.991 10.3725C140.991 8.23742 140.457 7.03645 139.389 6.76957V5.81325C140.776 5.93928 141.843 6.52122 142.592 7.55909C143.296 8.53024 143.648 9.79422 143.648 11.351H137.354V10.3725H140.991ZM139.434 16.3217C140.724 16.2624 141.639 15.6545 142.18 14.498C142.336 14.1644 142.469 13.8234 142.581 13.475L143.537 13.8308C143.122 15.3802 142.273 16.4218 140.991 16.9555C140.538 17.1409 140.019 17.2521 139.434 17.2891V16.3217ZM136.42 10.8506C136.42 14.0384 137.117 15.8324 138.511 16.2327V17.2558C137.058 17.0927 135.905 16.4885 135.052 15.4432C134.2 14.4127 133.774 13.1191 133.774 11.5623C133.774 9.92395 134.2 8.57843 135.052 7.52573C135.912 6.46562 137.05 5.89109 138.466 5.80213V6.72509C137.102 6.88819 136.42 8.26336 136.42 10.8506Z" fill="#471076"/>
<path d="M107.358 51.597H91.7761C91.0876 51.5977 90.4274 51.8715 89.9405 52.3584C89.4536 52.8453 89.1798 53.5055 89.1791 54.194V67.1791H76.194C75.5055 67.1798 74.8453 67.4536 74.3584 67.9405C73.8715 68.4274 73.5977 69.0876 73.597 69.7761V87.9552H109.955V54.194C109.955 53.5055 109.681 52.8453 109.194 52.3584C108.707 51.8715 108.047 51.5977 107.358 51.597ZM82.6866 85.3582V76.2687H87.8806V85.3582H82.6866ZM107.358 85.3582H90.4776V74.9701C90.4776 74.6258 90.3408 74.2955 90.0973 74.052C89.8538 73.8084 89.5235 73.6716 89.1791 73.6716H81.3881C81.0437 73.6716 80.7134 73.8084 80.4699 74.052C80.2264 74.2955 80.0896 74.6258 80.0896 74.9701V85.3582H76.194V69.7761H91.7761V54.194H107.358V85.3582Z" fill="#471076"/>
<path d="M94.3731 59.3881H96.9701V61.9851H94.3731V59.3881Z" fill="#F46425"/>
<path d="M102.164 59.3881H104.761V61.9851H102.164V59.3881Z" fill="#F46425"/>
<path d="M94.3731 67.1791H96.9701V69.7761H94.3731V67.1791Z" fill="#F46425"/>
<path d="M102.164 67.1791H104.761V69.7761H102.164V67.1791Z" fill="#F46425"/>
<path d="M94.3731 74.9702H96.9701V77.5672H94.3731V74.9702Z" fill="#F46425"/>
<path d="M102.164 74.9702H104.761V77.5672H102.164V74.9702Z" fill="#F46425"/>
<path d="M82.6866 64.5821H80.0896C80.0916 62.8608 80.7763 61.2106 81.9935 59.9935C83.2106 58.7763 84.8608 58.0916 86.5821 58.0896V60.6866C85.5493 60.6876 84.559 61.0984 83.8287 61.8287C83.0984 62.559 82.6876 63.5493 82.6866 64.5821Z" fill="#F46425"/>
<path d="M76.194 64.5821H73.597C73.6008 61.1394 74.9701 57.8388 77.4044 55.4044C79.8388 52.9701 83.1394 51.6008 86.5821 51.597V54.194C83.8281 54.1975 81.1878 55.293 79.2404 57.2404C77.293 59.1878 76.1975 61.8281 76.194 64.5821Z" fill="#F46425"/>
<line x1="92.8433" y1="23.3731" x2="92.8433" y2="45.4478" stroke="#F46425" stroke-width="1.29851"/>
</g>
<defs>
<clipPath id="clip0">
<rect width="1240" height="499" fill="white"/>
</clipPath>
</defs>
</svg>
