<!DOCTYPE svg PUBLIC "-//W3C//DTD SVG 20010904//EN" "http://www.w3.org/TR/2001/REC-SVG-20010904/DTD/svg10.dtd">
<svg version="1.0" xmlns="http://www.w3.org/2000/svg"  viewBox="0 0 8000 8000" preserveAspectRatio="xMidYMid meet">
<g id="layer101" fill="#322c2c" stroke="none">
<path d="M0 4000 l0 -4000 4000 0 4000 0 0 4000 0 4000 -4000 0 -4000 0 0 -4000z"/>
</g>
<g id="layer102" fill="#393030" stroke="none">
<path d="M0 4000 l0 -4000 4000 0 4000 0 0 4000 0 4000 -4000 0 -4000 0 0 -4000z m5353 3636 c35 -13 83 -34 107 -46 l44 -22 26 32 26 32 523 -3 523 -4 19 -23 c18 -23 36 -88 27 -97 -3 -3 -264 -5 -581 -5 -546 0 -577 -1 -577 -18 0 -10 6 -24 13 -31 14 -16 12 -15 -61 14 -47 19 -62 15 -41 -12 7 -10 -5 -1 -26 19 -22 20 -76 52 -120 71 -47 20 -81 41 -83 50 -2 9 9 28 24 42 34 32 74 32 157 1z m-2183 -160 c480 -159 524 -176 539 -205 16 -29 14 -81 -3 -87 -8 -3 -53 6 -99 20 -47 14 -97 26 -111 26 -14 0 -26 4 -26 9 0 12 -668 234 -689 228 -9 -2 -22 2 -29 9 -7 8 -38 21 -70 30 -31 9 -59 18 -61 20 -2 1 5 23 14 48 17 44 19 46 59 46 26 0 199 -52 476 -144z m-1175 112 c32 -14 73 -87 55 -98 -17 -11 -171 -18 -475 -24 -148 -3 -359 -8 -467 -12 l-198 -7 0 40 c0 25 7 50 19 64 19 23 20 23 377 35 509 16 658 16 689 2z m4135 -183 c0 -8 -4 -15 -10 -15 -5 0 -10 7 -10 15 0 8 5 15 10 15 6 0 10 -7 10 -15z m120 0 c0 -8 -4 -15 -10 -15 -5 0 -10 7 -10 15 0 8 5 15 10 15 6 0 10 -7 10 -15z m-333 -22 c-4 -3 -7 0 -7 7 0 7 3 10 7 7 3 -4 3 -10 0 -14z m-4587 -18 c0 -8 -4 -15 -10 -15 -5 0 -10 7 -10 15 0 8 5 15 10 15 6 0 10 -7 10 -15z m110 -1 c0 -8 -4 -12 -10 -9 -5 3 -10 10 -10 16 0 5 5 9 10 9 6 0 10 -7 10 -16z m210 -4 c0 -5 -5 -10 -11 -10 -5 0 -7 5 -4 10 3 6 8 10 11 10 2 0 4 -4 4 -10z m4407 -36 c-3 -3 -12 -4 -19 -1 -8 3 -5 6 6 6 11 1 17 -2 13 -5z m-3067 -14 c0 -5 -7 -10 -15 -10 -8 0 -15 5 -15 10 0 6 7 10 15 10 8 0 15 -4 15 -10z m110 -40 c0 -5 -7 -10 -15 -10 -8 0 -15 5 -15 10 0 6 7 10 15 10 8 0 15 -4 15 -10z m2610 -15 c0 -8 -4 -15 -10 -15 -5 0 -10 7 -10 15 0 8 5 15 10 15 6 0 10 -7 10 -15z m277 9 c-3 -3 -12 -4 -19 -1 -8 3 -5 6 6 6 11 1 17 -2 13 -5z m-4442 -34 c-3 -5 -12 -10 -18 -10 -7 0 -6 4 3 10 19 12 23 12 15 0z m49 -6 c6 -15 4 -15 -11 -3 -10 7 -20 15 -22 16 -2 2 3 3 11 3 9 0 19 -7 22 -16z m3066 -24 l0 -40 -197 1 c-109 1 -250 4 -313 8 l-115 6 75 8 c226 25 517 55 533 56 13 1 17 -7 17 -39z m945 20 c3 -5 4 -10 1 -10 -3 0 -8 5 -11 10 -3 6 -4 10 -1 10 3 0 8 -4 11 -10z m228 -10 c4 -16 0 -20 -19 -20 -28 0 -33 26 -6 33 9 3 18 5 18 6 1 0 4 -8 7 -19z m-2586 -17 c-4 -3 -10 -3 -14 0 -3 4 0 7 7 7 7 0 10 -3 7 -7z m-1442 -23 c3 -5 1 -10 -4 -10 -6 0 -11 5 -11 10 0 6 2 10 4 10 3 0 8 -4 11 -10z m1339 1 c3 -4 -6 -6 -19 -3 -14 2 -25 6 -25 8 0 8 39 4 44 -5z m2400 0 c4 -5 -3 -7 -14 -4 -23 6 -26 13 -6 13 8 0 17 -4 20 -9z m-2501 -58 c-13 -2 -33 -2 -45 0 -13 2 -3 4 22 4 25 0 35 -2 23 -4z m-116 -10 c-4 -3 -10 -3 -14 0 -3 4 0 7 7 7 7 0 10 -3 7 -7z m236 0 c-7 -2 -19 -2 -25 0 -7 3 -2 5 12 5 14 0 19 -2 13 -5z m2447 -18 c13 -14 21 -25 18 -25 -2 0 -15 11 -28 25 -13 14 -21 25 -18 25 2 0 15 -11 28 -25z m117 -72 c-4 -3 -10 -3 -14 0 -3 4 0 7 7 7 7 0 10 -3 7 -7z m-3051 -205 c156 -51 282 -93 280 -95 -2 -2 -65 6 -140 17 -203 30 -190 32 -216 -46 -12 -36 -24 -64 -26 -61 -2 2 6 32 17 66 12 34 19 65 16 68 -3 3 -62 15 -131 26 -76 13 -126 26 -126 33 0 16 29 84 36 84 3 0 134 -41 290 -92z m4014 0 c0 -73 -4 -75 -78 -65 -37 4 -97 14 -134 21 l-68 13 -2 -556 -3 -556 -5 555 -5 555 -115 22 c-63 11 -128 22 -145 24 -58 5 143 15 348 17 l207 2 0 -32z m-5093 -5 c-4 -3 -10 -3 -14 0 -3 4 0 7 7 7 7 0 10 -3 7 -7z m-50 -10 c-4 -3 -10 -3 -14 0 -3 4 0 7 7 7 7 0 10 -3 7 -7z m-50 -10 c-4 -3 -10 -3 -14 0 -3 4 0 7 7 7 7 0 10 -3 7 -7z m-50 -10 c-4 -3 -10 -3 -14 0 -3 4 0 7 7 7 7 0 10 -3 7 -7z m-50 -9 c-3 -3 -12 -4 -19 -1 -8 3 -5 6 6 6 11 1 17 -2 13 -5z m-50 -10 c-3 -3 -12 -4 -19 -1 -8 3 -5 6 6 6 11 1 17 -2 13 -5z m4381 -64 c239 -68 242 -70 242 -133 -1 -51 -12 -51 -118 2 -56 28 -107 51 -112 51 -6 0 -26 11 -43 24 -18 13 -71 45 -119 71 -49 26 -88 49 -88 51 0 3 3 3 8 1 4 -2 108 -33 230 -67z m-4441 53 c-4 -3 -10 -3 -14 0 -3 4 0 7 7 7 7 0 10 -3 7 -7z m-50 -10 c-4 -3 -10 -3 -14 0 -3 4 0 7 7 7 7 0 10 -3 7 -7z m-50 -10 c-4 -3 -10 -3 -14 0 -3 4 0 7 7 7 7 0 10 -3 7 -7z m363 -22 c-25 -9 -96 -37 -157 -61 -93 -35 -113 -47 -114 -64 -1 -17 -2 -18 -6 -3 -2 9 -9 17 -13 17 -5 0 -65 -20 -132 -45 -68 -24 -126 -41 -131 -36 -4 4 -9 28 -10 52 l-2 43 290 57 c321 63 340 66 275 40z m-263 -188 c-4 -3 -7 0 -7 7 0 7 3 10 7 7 3 -4 3 -10 0 -14z m10 -60 c-4 -3 -7 0 -7 7 0 7 3 10 7 7 3 -4 3 -10 0 -14z m10 -50 c-4 -3 -7 0 -7 7 0 7 3 10 7 7 3 -4 3 -10 0 -14z m20 -110 c-4 -3 -7 0 -7 7 0 7 3 10 7 7 3 -4 3 -10 0 -14z m10 -50 c-4 -3 -7 0 -7 7 0 7 3 10 7 7 3 -4 3 -10 0 -14z m20 -110 c-4 -3 -7 0 -7 7 0 7 3 10 7 7 3 -4 3 -10 0 -14z m20 -110 c-4 -3 -7 0 -7 7 0 7 3 10 7 7 3 -4 3 -10 0 -14z m20 -110 c-4 -3 -7 0 -7 7 0 7 3 10 7 7 3 -4 3 -10 0 -14z m10 -50 c-4 -3 -7 0 -7 7 0 7 3 10 7 7 3 -4 3 -10 0 -14z m20 -110 c-4 -3 -7 0 -7 7 0 7 3 10 7 7 3 -4 3 -10 0 -14z m20 -110 c-4 -3 -7 0 -7 7 0 7 3 10 7 7 3 -4 3 -10 0 -14z m10 -50 c-4 -3 -7 0 -7 7 0 7 3 10 7 7 3 -4 3 -10 0 -14z m20 -110 c-4 -3 -7 0 -7 7 0 7 3 10 7 7 3 -4 3 -10 0 -14z m10 -50 c-4 -3 -7 0 -7 7 0 7 3 10 7 7 3 -4 3 -10 0 -14z m10 -60 c-4 -3 -7 0 -7 7 0 7 3 10 7 7 3 -4 3 -10 0 -14z m539 -251 c9 -25 20 -39 27 -35 6 4 8 0 4 -10 -4 -10 38 -147 99 -325 58 -169 111 -323 117 -343 9 -31 5 -53 -38 -188 -30 -93 -52 -147 -56 -138 -9 14 -249 1263 -248 1287 0 8 18 -34 39 -95 22 -60 47 -129 56 -153z m-529 201 c-4 -3 -7 0 -7 7 0 7 3 10 7 7 3 -4 3 -10 0 -14z m10 -50 c-4 -3 -7 0 -7 7 0 7 3 10 7 7 3 -4 3 -10 0 -14z m10 -60 c-4 -3 -7 0 -7 7 0 7 3 10 7 7 3 -4 3 -10 0 -14z m10 -50 c-4 -3 -7 0 -7 7 0 7 3 10 7 7 3 -4 3 -10 0 -14z m560 0 c-4 -3 -7 0 -7 7 0 7 3 10 7 7 3 -4 3 -10 0 -14z m-10 -30 c-4 -3 -7 0 -7 7 0 7 3 10 7 7 3 -4 3 -10 0 -14z m-540 -20 c-4 -3 -7 0 -7 7 0 7 3 10 7 7 3 -4 3 -10 0 -14z m530 -10 c-4 -3 -7 0 -7 7 0 7 3 10 7 7 3 -4 3 -10 0 -14z m3886 -765 l-8 -215 -64 78 -63 79 16 113 c45 300 47 320 28 342 -13 15 -14 17 -1 7 9 -6 18 -9 21 -6 4 3 19 87 35 187 l28 182 8 -276 c4 -152 4 -373 0 -491z m-4406 715 c-4 -3 -7 0 -7 7 0 7 3 10 7 7 3 -4 3 -10 0 -14z m10 -50 c-4 -3 -7 0 -7 7 0 7 3 10 7 7 3 -4 3 -10 0 -14z m10 -50 c-4 -3 -7 0 -7 7 0 7 3 10 7 7 3 -4 3 -10 0 -14z m10 -60 c-4 -3 -7 0 -7 7 0 7 3 10 7 7 3 -4 3 -10 0 -14z m-427 -43 c0 -6 -32 -10 -75 -10 -43 0 -75 4 -75 10 0 6 32 10 75 10 43 0 75 -4 75 -10z m437 -7 c-4 -3 -7 0 -7 7 0 7 3 10 7 7 3 -4 3 -10 0 -14z m2293 7 c10 -6 -174 -10 -528 -10 -360 0 -541 3 -537 10 8 13 1044 13 1065 0z m1291 3 c35 -8 -543 -21 -663 -15 -38 2 -68 8 -68 13 0 11 682 12 731 2z m-3574 -60 c-4 -3 -7 0 -7 7 0 7 3 10 7 7 3 -4 3 -10 0 -14z m4234 -10 c13 -16 12 -17 -3 -4 -10 7 -18 15 -18 17 0 8 8 3 21 -13z m-4224 -50 c-4 -3 -7 0 -7 7 0 7 3 10 7 7 3 -4 3 -10 0 -14z m10 -50 c-4 -3 -7 0 -7 7 0 7 3 10 7 7 3 -4 3 -10 0 -14z m10 -50 c-4 -3 -7 0 -7 7 0 7 3 10 7 7 3 -4 3 -10 0 -14z m20 -110 c-4 -3 -7 0 -7 7 0 7 3 10 7 7 3 -4 3 -10 0 -14z m5030 -85 c-2 -13 -4 -3 -4 22 0 25 2 35 4 23 2 -13 2 -33 0 -45z m-5020 35 c-4 -3 -7 0 -7 7 0 7 3 10 7 7 3 -4 3 -10 0 -14z m3998 -238 c0 -128 -3 -237 -7 -241 -19 -18 -23 19 -27 207 -3 218 3 299 22 280 9 -9 12 -81 12 -246z m-3988 188 c-4 -3 -7 0 -7 7 0 7 3 10 7 7 3 -4 3 -10 0 -14z m-230 -260 c-4 -3 -7 0 -7 7 0 7 3 10 7 7 3 -4 3 -10 0 -14z m10 -50 c-4 -3 -7 0 -7 7 0 7 3 10 7 7 3 -4 3 -10 0 -14z m4508 -155 c3 -40 5 -109 3 -153 l-3 -80 -42 141 c-24 77 -43 143 -43 147 0 7 27 14 57 16 19 1 22 -5 28 -71z m280 -54 c52 -77 50 -106 -13 -238 -28 -58 -55 -106 -60 -106 -5 0 -15 64 -23 143 l-15 142 30 62 c16 34 33 60 37 57 4 -2 24 -29 44 -60z m-920 -34 c3 -5 4 -10 1 -10 -3 0 -8 5 -11 10 -3 6 -4 10 -1 10 3 0 8 -4 11 -10z m52 -27 c-4 -3 -7 0 -7 7 0 7 3 10 7 7 3 -4 3 -10 0 -14z m10 -60 c-4 -3 -7 0 -7 7 0 7 3 10 7 7 3 -4 3 -10 0 -14z m1343 -85 l-1 -83 -143 -209 c-80 -114 -150 -213 -157 -220 -6 -6 57 125 141 292 84 166 154 302 156 302 2 0 4 -37 4 -82z m-1333 35 c-4 -3 -7 0 -7 7 0 7 3 10 7 7 3 -4 3 -10 0 -14z m268 -1358 c0 -656 -3 -1197 -7 -1201 -5 -4 -11 -4 -15 0 -11 10 -16 1327 -8 1899 5 386 10 516 19 507 8 -8 11 -331 11 -1205z m409 738 c-10 -7 -23 -13 -28 -12 -6 0 -1 5 12 11 12 6 23 20 23 32 1 19 2 20 6 2 3 -12 -2 -25 -13 -33z m-49 7 c3 -5 4 -10 1 -10 -3 0 -8 5 -11 10 -3 6 -4 10 -1 10 3 0 8 -4 11 -10z m-3108 -47 c-4 -3 -10 -3 -14 0 -3 4 0 7 7 7 7 0 10 -3 7 -7z m3808 -111 c65 -22 69 -44 22 -120 -68 -112 -69 -114 -83 -312 -24 -349 -83 -444 -293 -471 -160 -20 -305 24 -395 120 -52 56 -56 74 -24 108 l22 24 -26 22 c-44 37 -50 60 -43 160 7 88 5 96 -24 171 -36 89 -49 160 -32 170 7 5 11 -5 11 -31 0 -86 64 -147 156 -148 74 0 105 25 124 100 19 75 40 85 40 20 0 -41 2 -46 15 -35 12 10 15 10 15 -1 0 -22 -13 -35 -40 -42 -32 -8 -120 -64 -120 -76 0 -5 12 -12 28 -14 26 -4 26 -4 -5 -6 -41 -1 -77 -44 -93 -111 -12 -49 -10 -153 3 -166 9 -10 184 -5 235 7 57 12 112 47 131 82 13 24 11 36 -22 134 -21 59 -46 149 -56 198 l-19 90 23 40 c52 89 87 102 280 103 88 1 133 -3 170 -16z m-3839 -293 c18 -36 104 -330 104 -358 0 -30 -26 -26 -39 7 -16 41 -67 231 -76 281 -4 24 -14 59 -21 77 -8 18 -14 36 -14 40 0 13 31 -20 46 -47z m3121 -251 c-3 -8 -6 -5 -6 6 -1 11 2 17 5 13 3 -3 4 -12 1 -19z m107 1 c-3 -5 -10 -7 -15 -3 -5 3 -7 10 -3 15 3 5 10 7 15 3 5 -3 7 -10 3 -15z m-3957 -111 c-3 -8 -6 -5 -6 6 -1 11 2 17 5 13 3 -3 4 -12 1 -19z m4278 -858 c7 -12 -22 -12 -50 0 -17 7 -15 9 12 9 17 1 35 -3 38 -9z m-22 -36 c20 -4 37 -11 37 -15 0 -10 -64 -12 -97 -3 -13 4 -23 10 -23 15 0 10 30 11 83 3z m52 -65 c31 -6 19 -7 -52 -6 -62 1 -96 6 -105 16 -11 11 -2 12 52 6 36 -4 83 -11 105 -16z"/>
</g>
<g id="layer103" fill="#f05f4b" stroke="none">
<path d="M0 4000 l0 -4000 4000 0 4000 0 0 4000 0 4000 -4000 0 -4000 0 0 -4000z m5439 3604 l62 -27 28 27 28 27 521 -3 c515 -3 522 -3 542 -24 12 -12 24 -40 27 -63 l6 -41 -457 0 c-330 0 -455 -3 -450 -11 5 -8 1 -8 -14 0 -12 6 -70 11 -131 11 -125 0 -136 -8 -78 -55 35 -28 36 -28 -72 14 -29 12 -56 19 -59 16 -3 -3 5 -17 19 -32 13 -15 2 -7 -26 18 -29 26 -79 57 -120 74 -38 15 -78 36 -87 44 -17 15 -17 18 -2 40 30 42 69 51 140 31 34 -10 90 -30 123 -46z m-2269 -126 c234 -77 448 -151 477 -163 57 -26 73 -47 73 -99 0 -45 -13 -46 -123 -11 -43 14 -86 25 -96 25 -9 0 -35 8 -57 19 -21 10 -180 65 -352 122 -262 86 -315 101 -323 89 -7 -13 -9 -12 -9 2 0 11 -20 23 -67 39 -38 12 -70 23 -71 25 -8 6 21 80 37 92 10 8 29 11 51 7 19 -3 226 -69 460 -147z m-1161 106 c26 -19 56 -83 44 -95 -4 -4 -53 -11 -108 -14 -79 -5 -110 -12 -147 -31 -56 -30 -65 -24 -10 6 l37 21 -250 -6 c-415 -9 -505 -15 -506 -34 -1 -13 -2 -13 -6 2 -4 14 -16 17 -79 17 l-74 0 0 43 c0 83 -1 83 430 96 462 15 643 13 669 -5z m3921 -196 c0 -4 -4 -8 -9 -8 -5 0 -18 -3 -28 -6 -17 -6 -17 -6 1 8 18 14 17 15 -13 28 -17 7 -34 17 -37 22 -3 4 15 -2 40 -14 25 -12 46 -26 46 -30z m320 16 c0 -14 -12 -19 -23 -8 -9 9 4 35 14 28 5 -3 9 -12 9 -20z m-120 1 c0 -8 -4 -15 -10 -15 -5 0 -10 7 -10 15 0 8 5 15 10 15 6 0 10 -7 10 -15z m-654 -37 l29 -33 -32 29 c-31 28 -38 36 -30 36 2 0 16 -15 33 -32z m-4034 -10 c-15 -15 -26 -4 -18 18 5 13 9 15 18 6 9 -9 9 -15 0 -24z m223 12 c-19 -21 -35 -26 -35 -12 0 5 10 14 23 20 31 15 32 14 12 -8z m-335 -5 c0 -8 -7 -15 -15 -15 -16 0 -20 12 -8 23 11 12 23 8 23 -8z m1400 11 c0 -3 -5 -8 -12 -12 -7 -4 -8 -3 -4 4 7 12 16 16 16 8z m3137 -13 c-4 -3 -10 -3 -14 0 -3 4 0 7 7 7 7 0 10 -3 7 -7z m-4267 -17 c0 -3 -5 -8 -12 -12 -7 -4 -8 -3 -4 4 7 12 16 16 16 8z m4458 -20 c-1 -2 -16 -6 -33 -10 -24 -5 -26 -4 -12 4 9 6 15 16 11 22 -4 6 3 5 16 -2 12 -6 20 -13 18 -14z m-517 -33 l34 -37 -37 30 c-20 16 -37 32 -37 37 -2 12 4 8 40 -30z m-2551 17 c0 -5 -7 -10 -15 -10 -8 0 -15 5 -15 10 0 6 7 10 15 10 8 0 15 -4 15 -10z m2493 3 c-7 -2 -19 -2 -25 0 -7 3 -2 5 12 5 14 0 19 -2 13 -5z m-4442 -26 c-10 -9 -11 -8 -5 6 3 10 9 15 12 12 3 -3 0 -11 -7 -18z m4946 16 c-4 -3 -10 -3 -14 0 -3 4 0 7 7 7 7 0 10 -3 7 -7z m-2889 -31 c2 -7 -3 -12 -12 -12 -9 0 -16 7 -16 16 0 17 22 14 28 -4z m2612 -17 c0 -8 -4 -15 -10 -15 -5 0 -10 7 -10 15 0 8 5 15 10 15 6 0 10 -7 10 -15z m305 8 c-16 -3 -35 -9 -41 -14 -7 -5 -11 -3 -11 6 0 11 11 15 41 14 34 -2 36 -3 11 -6z m30 -23 c3 -5 4 -10 1 -10 -3 0 -8 5 -11 10 -3 6 -4 10 -1 10 3 0 8 -4 11 -10z m-4447 -21 c13 -20 13 -21 -9 -6 -13 10 -34 14 -53 11 -25 -3 -27 -3 -11 5 33 16 59 12 73 -10z m3062 -19 l0 -40 -352 1 c-244 1 -341 4 -313 11 47 11 549 65 618 67 l47 1 0 -40z m950 15 c11 -13 10 -14 -4 -9 -9 3 -16 10 -16 15 0 13 6 11 20 -6z m224 4 c-3 -6 -1 -15 6 -19 7 -4 -6 -10 -31 -14 -23 -4 -44 -4 -47 -1 -3 3 2 5 11 5 10 0 17 6 17 14 0 14 14 24 38 25 7 1 10 -4 6 -10z m-267 -5 c-3 -3 -12 -4 -19 -1 -8 3 -5 6 6 6 11 1 17 -2 13 -5z m-2275 -11 c-10 -4 -9 -10 5 -26 18 -21 18 -21 -7 -4 -13 9 -36 18 -50 18 -20 1 -18 3 10 9 43 9 60 10 42 3z m2825 0 c-4 -3 -10 -3 -14 0 -3 4 0 7 7 7 7 0 10 -3 7 -7z m126 -8 c0 -6 -8 -11 -19 -12 -10 -2 -13 0 -6 3 6 3 9 10 6 16 -4 6 -1 9 5 7 7 -3 13 -9 14 -14z m-4816 -2 c-4 -3 -10 -3 -14 0 -3 4 0 7 7 7 7 0 10 -3 7 -7z m-30 -10 c-4 -3 -10 -3 -14 0 -3 4 0 7 7 7 7 0 10 -3 7 -7z m1761 -6 c-7 -8 -23 -11 -37 -8 l-26 5 30 7 c45 10 47 10 33 -4z m2378 -2 c22 -9 33 -19 28 -26 -5 -8 -9 -8 -14 2 -5 7 -21 18 -37 25 -40 18 -20 17 23 -1z m-3731 -5 c3 -5 2 -10 -4 -10 -5 0 -13 5 -16 10 -3 6 -2 10 4 10 5 0 13 -4 16 -10z m-358 -7 c-4 -3 -10 -3 -14 0 -3 4 0 7 7 7 7 0 10 -3 7 -7z m-112 -13 c3 -5 4 -10 1 -10 -3 0 -8 5 -11 10 -3 6 -4 10 -1 10 3 0 8 -4 11 -10z m1840 0 c3 -5 4 -10 1 -10 -3 0 -8 5 -11 10 -3 6 -4 10 -1 10 3 0 8 -4 11 -10z m166 -7 c13 -16 12 -17 -3 -4 -10 7 -18 15 -18 17 0 8 8 3 21 -13z m2270 -20 c13 -16 12 -17 -3 -4 -10 7 -18 15 -18 17 0 8 8 3 21 -13z m-2396 -3 c3 -5 4 -10 1 -10 -3 0 -8 5 -11 10 -3 6 -4 10 -1 10 3 0 8 -4 11 -10z m160 0 c3 -5 4 -10 1 -10 -3 0 -8 5 -11 10 -3 6 -4 10 -1 10 3 0 8 -4 11 -10z m2290 -83 c6 -6 -3 -1 -20 10 -16 12 -43 36 -60 54 -22 25 -17 22 20 -10 28 -24 55 -49 60 -54z m-2518 77 c17 -3 41 -16 55 -27 13 -12 18 -18 11 -14 -6 5 -17 6 -23 2 -5 -3 -13 1 -16 10 -5 12 -14 15 -30 11 -13 -4 -24 -2 -24 3 0 6 -35 12 -77 14 l-78 3 76 2 c42 1 90 -1 106 -4z m-212 -14 c8 -13 -5 -13 -25 0 -13 8 -13 10 2 10 9 0 20 -4 23 -10z m2720 -10 c10 -11 16 -20 13 -20 -3 0 -13 9 -23 20 -10 11 -16 20 -13 20 3 0 13 -9 23 -20z m-2688 -7 c-4 -3 -10 -3 -14 0 -3 4 0 7 7 7 7 0 10 -3 7 -7z m2763 -65 c0 -4 -8 -8 -17 -7 -12 0 -14 2 -5 6 10 4 8 12 -10 32 l-23 26 28 -24 c15 -14 27 -28 27 -33z m-2475 32 c3 -5 4 -10 1 -10 -3 0 -8 5 -11 10 -3 6 -4 10 -1 10 3 0 8 -4 11 -10z m30 -20 c3 -5 4 -10 1 -10 -3 0 -8 5 -11 10 -3 6 -4 10 -1 10 3 0 8 -4 11 -10z m-30 -20 c3 -5 4 -10 1 -10 -3 0 -8 5 -11 10 -3 6 -4 10 -1 10 3 0 8 -4 11 -10z m-808 -37 c-4 -3 -10 -3 -14 0 -3 4 0 7 7 7 7 0 10 -3 7 -7z m30 -10 c-4 -3 -10 -3 -14 0 -3 4 0 7 7 7 7 0 10 -3 7 -7z m30 -10 c-4 -3 -10 -3 -14 0 -3 4 0 7 7 7 7 0 10 -3 7 -7z m860 0 c-4 -3 -10 -3 -14 0 -3 4 0 7 7 7 7 0 10 -3 7 -7z m-582 -87 c138 -47 245 -85 240 -85 -6 -1 -123 37 -260 83 -138 47 -245 85 -240 85 6 1 123 -37 260 -83z m105 -125 c63 -22 110 -40 103 -40 -6 -1 -88 10 -183 24 -94 14 -175 23 -180 20 -11 -7 -560 -1659 -560 -1684 0 -18 67 -221 168 -508 l61 -171 -52 -161 c-28 -89 -54 -158 -58 -154 -9 9 -51 223 -174 873 -47 250 -88 466 -91 480 -12 53 7 9 66 -155 33 -92 62 -170 64 -173 5 -4 541 1608 548 1643 3 20 -14 25 -188 54 l-72 12 10 37 c21 77 7 77 225 6 109 -35 250 -81 313 -103z m2617 102 c-4 -3 -10 -3 -14 0 -3 4 0 7 7 7 7 0 10 -3 7 -7z m30 -10 c-4 -3 -10 -3 -14 0 -3 4 0 7 7 7 7 0 10 -3 7 -7z m1153 -42 c0 -28 -4 -53 -10 -56 -5 -3 -66 3 -135 15 -69 11 -128 20 -132 20 -3 0 -4 -528 -2 -1172 3 -645 2 -1038 -2 -873 -3 165 -7 692 -8 1171 -1 721 -3 873 -14 877 -8 3 -79 16 -158 29 l-144 23 90 6 c50 3 186 6 303 7 l212 2 0 -49z m-5000 29 c-14 -5 -180 -39 -370 -75 -190 -36 -354 -68 -365 -71 -16 -4 -17 -3 -5 5 18 11 699 148 745 149 16 0 15 -1 -5 -8z m3887 3 c-4 -3 -10 -3 -14 0 -3 4 0 7 7 7 7 0 10 -3 7 -7z m58 -13 c13 -5 14 -9 5 -9 -8 0 -24 4 -35 9 -13 5 -14 9 -5 9 8 0 24 -4 35 -9z m42 -17 c-4 -3 -10 -3 -14 0 -3 4 0 7 7 7 7 0 10 -3 7 -7z m40 -10 c-4 -3 -10 -3 -14 0 -3 4 0 7 7 7 7 0 10 -3 7 -7z m-2660 -10 c-4 -3 -10 -3 -14 0 -3 4 0 7 7 7 7 0 10 -3 7 -7z m2700 1 c-3 -3 -12 -4 -19 -1 -8 3 -5 6 6 6 11 1 17 -2 13 -5z m30 -11 c-4 -3 -10 -3 -14 0 -3 4 0 7 7 7 7 0 10 -3 7 -7z m-77 -64 c118 -34 225 -67 238 -75 18 -12 22 -24 22 -63 0 -26 -3 -50 -6 -54 -4 -3 -54 19 -112 48 -58 30 -112 55 -118 55 -7 0 -15 -8 -17 -17 -4 -15 -5 -14 -6 3 -1 28 -20 43 -116 95 -91 49 -124 69 -110 69 5 0 106 -27 225 -61z m117 55 c-3 -3 -12 -4 -19 -1 -8 3 -5 6 6 6 11 1 17 -2 13 -5z m30 -11 c-4 -3 -10 -3 -14 0 -3 4 0 7 7 7 7 0 10 -3 7 -7z m40 -10 c-4 -3 -10 -3 -14 0 -3 4 0 7 7 7 7 0 10 -3 7 -7z m-4268 -7 c-2 -2 -65 -27 -139 -54 -150 -56 -210 -80 -210 -86 0 -16 309 -1674 416 -2230 36 -186 63 -343 61 -349 -6 -19 -138 667 -422 2206 -56 299 -71 367 -84 367 -9 0 -65 -18 -124 -40 -60 -22 -114 -40 -121 -40 -19 0 -38 100 -20 107 18 7 605 121 628 122 11 1 17 -1 15 -3z m4078 -178 c-3 -8 -6 -5 -6 6 -1 11 2 17 5 13 3 -3 4 -12 1 -19z m-1322 -38 c10 -11 16 -20 13 -20 -3 0 -13 9 -23 20 -10 11 -16 20 -13 20 3 0 13 -9 23 -20z m1312 -2 c-3 -8 -6 -5 -6 6 -1 11 2 17 5 13 3 -3 4 -12 1 -19z m-10 -40 c-3 -8 -6 -5 -6 6 -1 11 2 17 5 13 3 -3 4 -12 1 -19z m-10 -40 c-3 -8 -6 -5 -6 6 -1 11 2 17 5 13 3 -3 4 -12 1 -19z m-10 -40 c-3 -8 -6 -5 -6 6 -1 11 2 17 5 13 3 -3 4 -12 1 -19z m-10 -40 c-3 -8 -6 -5 -6 6 -1 11 2 17 5 13 3 -3 4 -12 1 -19z m-10 -35 c-4 -3 -7 0 -7 7 0 7 3 10 7 7 3 -4 3 -10 0 -14z m-10 -40 c-4 -3 -7 0 -7 7 0 7 3 10 7 7 3 -4 3 -10 0 -14z m-10 -35 c-3 -8 -6 -5 -6 6 -1 11 2 17 5 13 3 -3 4 -12 1 -19z m-10 -40 c-3 -8 -6 -5 -6 6 -1 11 2 17 5 13 3 -3 4 -12 1 -19z m-10 -40 c-3 -8 -6 -5 -6 6 -1 11 2 17 5 13 3 -3 4 -12 1 -19z m-1257 -16 c0 -4 -9 -8 -19 -8 -11 0 -17 4 -15 8 3 4 12 8 20 8 8 0 14 -4 14 -8z m1247 -24 c-3 -8 -6 -5 -6 6 -1 11 2 17 5 13 3 -3 4 -12 1 -19z m-1307 -2 c0 -3 -5 -8 -12 -12 -7 -4 -8 -3 -4 4 7 12 16 16 16 8z m1297 -38 c-3 -8 -6 -5 -6 6 -1 11 2 17 5 13 3 -3 4 -12 1 -19z m-1192 -8 c3 -5 4 -10 1 -10 -3 0 -8 5 -11 10 -3 6 -4 10 -1 10 3 0 8 -4 11 -10z m-175 -4 c0 -3 -5 -8 -12 -12 -7 -4 -8 -3 -4 4 7 12 16 16 16 8z m1357 -28 c-3 -8 -6 -5 -6 6 -1 11 2 17 5 13 3 -3 4 -12 1 -19z m-1152 -18 c3 -5 4 -10 1 -10 -3 0 -8 5 -11 10 -3 6 -4 10 -1 10 3 0 8 -4 11 -10z m1142 -17 c-4 -3 -7 0 -7 7 0 7 3 10 7 7 3 -4 3 -10 0 -14z m-10 -40 c-4 -3 -7 0 -7 7 0 7 3 10 7 7 3 -4 3 -10 0 -14z m-10 -40 c-4 -3 -7 0 -7 7 0 7 3 10 7 7 3 -4 3 -10 0 -14z m-10 -40 c-4 -3 -7 0 -7 7 0 7 3 10 7 7 3 -4 3 -10 0 -14z m-10 -35 c-3 -8 -6 -5 -6 6 -1 11 2 17 5 13 3 -3 4 -12 1 -19z m-10 -40 c-3 -8 -6 -5 -6 6 -1 11 2 17 5 13 3 -3 4 -12 1 -19z m-10 -40 c-3 -8 -6 -5 -6 6 -1 11 2 17 5 13 3 -3 4 -12 1 -19z m-10 -40 c-3 -8 -6 -5 -6 6 -1 11 2 17 5 13 3 -3 4 -12 1 -19z m-1167 -38 c-6 -11 -13 -20 -16 -20 -2 0 0 9 6 20 6 11 13 20 16 20 2 0 0 -9 -6 -20z m1157 -2 c-3 -8 -6 -5 -6 6 -1 11 2 17 5 13 3 -3 4 -12 1 -19z m-10 -40 c-3 -8 -6 -5 -6 6 -1 11 2 17 5 13 3 -3 4 -12 1 -19z m-10 -50 c-3 -7 -5 -2 -5 12 0 14 2 19 5 13 2 -7 2 -19 0 -25z m-10 -40 c-3 -8 -6 -5 -6 6 -1 11 2 17 5 13 3 -3 4 -12 1 -19z m-10 -40 c-3 -8 -6 -5 -6 6 -1 11 2 17 5 13 3 -3 4 -12 1 -19z m-10 -40 c-3 -8 -6 -5 -6 6 -1 11 2 17 5 13 3 -3 4 -12 1 -19z m-10 -50 c-3 -8 -6 -5 -6 6 -1 11 2 17 5 13 3 -3 4 -12 1 -19z m-10 -85 c-3 -10 -5 -2 -5 17 0 19 2 27 5 18 2 -10 2 -26 0 -35z m17 -39 c3 -8 2 -12 -4 -9 -6 3 -10 10 -10 16 0 14 7 11 14 -7z m27 -41 c13 -16 12 -17 -3 -4 -10 7 -18 15 -18 17 0 8 8 3 21 -13z m30 -40 c13 -16 12 -17 -3 -4 -10 7 -18 15 -18 17 0 8 8 3 21 -13z m-1126 -13 c3 -5 4 -10 1 -10 -3 0 -8 5 -11 10 -3 6 -4 10 -1 10 3 0 8 -4 11 -10z m1175 -50 c17 -22 29 -40 27 -40 -3 0 -20 18 -37 40 -17 22 -29 40 -27 40 3 0 20 -18 37 -40z m176 -221 c77 -94 146 -181 155 -192 16 -20 17 -20 22 -1 3 10 19 98 34 194 l28 175 9 -301 c9 -302 1 -698 -14 -689 -4 3 -34 39 -66 81 l-58 76 27 191 c15 106 27 204 27 218 0 19 -41 79 -141 205 -78 99 -148 187 -157 197 -8 9 -13 17 -10 17 3 0 68 -77 144 -171z m-466 -90 c-25 -4 -186 -8 -357 -8 -243 -1 -313 -4 -314 -13 0 -10 -2 -10 -6 0 -3 8 -27 12 -68 12 -84 0 -95 18 -13 22 132 6 802 -5 758 -13z m-4020 1 c0 -13 -240 -13 -260 0 -10 7 30 10 123 10 85 0 137 -4 137 -10z m2830 0 c-122 -12 -1572 -12 -1565 0 4 7 288 9 823 8 449 -1 783 -4 742 -8z m2750 -253 c0 -2 -10 -12 -22 -23 l-23 -19 19 23 c18 21 26 27 26 19z m-50 -40 c0 -2 -10 -12 -22 -23 l-23 -19 19 23 c18 21 26 27 26 19z m-58 -49 c-7 -7 -13 -41 -14 -77 l-2 -66 -3 63 c-4 57 6 92 25 92 3 0 1 -5 -6 -12z m-1037 -273 c0 -134 -3 -247 -7 -251 -19 -18 -23 20 -27 218 -3 227 3 308 22 289 9 -9 12 -83 12 -256z m-4311 112 c33 -18 62 -39 64 -45 3 -9 -62 25 -128 67 -37 24 11 7 64 -22z m101 -198 c14 -68 28 -133 31 -144 4 -18 4 -18 -6 -3 -9 15 -60 244 -60 271 0 31 13 -14 35 -124z m-298 -16 c-4 -3 -10 -3 -14 0 -3 4 0 7 7 7 7 0 10 -3 7 -7z m40 -10 c-4 -3 -10 -3 -14 0 -3 4 0 7 7 7 7 0 10 -3 7 -7z m40 -9 c-3 -3 -12 -4 -19 -1 -8 3 -5 6 6 6 11 1 17 -2 13 -5z m30 -11 c-4 -3 -10 -3 -14 0 -3 4 0 7 7 7 7 0 10 -3 7 -7z m4698 -135 c3 -35 5 -106 3 -158 l-3 -95 -42 141 c-24 78 -43 146 -43 152 0 11 21 19 57 21 19 1 22 -6 28 -61z m272 -46 c41 -61 56 -100 48 -132 -8 -33 -107 -240 -115 -240 -4 0 -13 66 -22 148 l-15 147 31 63 c17 34 33 62 36 62 3 0 19 -22 37 -48z m-913 -48 c9 -8 16 -22 16 -29 0 -18 -27 -45 -45 -45 -19 0 -45 28 -44 48 0 12 3 10 10 -6 7 -18 15 -23 36 -20 38 4 41 33 6 52 -18 10 -22 15 -11 16 9 0 24 -7 32 -16z m53 -31 c-4 -3 -7 0 -7 7 0 7 3 10 7 7 3 -4 3 -10 0 -14z m10 -55 c-3 -8 -6 -5 -6 6 -1 11 2 17 5 13 3 -3 4 -12 1 -19z m1307 -227 c-60 -92 -276 -401 -280 -401 -2 0 67 142 154 315 l157 316 3 -87 c3 -85 2 -88 -34 -143z m-1297 167 c-3 -7 -5 -2 -5 12 0 14 2 19 5 13 2 -7 2 -19 0 -25z m10 -50 c-3 -8 -6 -5 -6 6 -1 11 2 17 5 13 3 -3 4 -12 1 -19z m10 -55 c-4 -3 -7 0 -7 7 0 7 3 10 7 7 3 -4 3 -10 0 -14z m248 -1250 c0 -655 -3 -1195 -7 -1199 -5 -4 -11 -4 -15 0 -11 10 -16 1333 -8 1911 6 392 10 514 19 499 8 -14 11 -344 11 -1211z m409 801 c27 -27 14 -74 -21 -74 -8 0 -6 7 7 20 24 24 25 33 5 50 -21 17 -48 -6 -42 -37 2 -12 0 -20 -4 -17 -16 9 -10 53 9 63 23 14 28 14 46 -5z m-3184 -47 c0 -2 -10 -12 -22 -23 l-23 -19 19 23 c18 21 26 27 26 19z m-50 -40 c0 -2 -12 -14 -27 -28 l-28 -24 24 28 c23 25 31 32 31 24z m98 -19 c7 -7 12 -21 11 -32 -1 -18 -2 -17 -8 4 -5 18 -14 25 -31 25 -21 0 -25 -5 -25 -32 0 -17 -3 -29 -7 -26 -12 7 -9 48 4 61 7 7 19 12 28 12 9 0 21 -5 28 -12z m-158 -32 c0 -2 -24 -23 -52 -46 l-53 -42 50 46 c50 46 55 49 55 42z m150 -36 c-8 -5 -19 -10 -25 -10 -5 0 -3 5 5 10 8 5 20 10 25 10 6 0 3 -5 -5 -10z m3783 -31 c50 -12 80 -40 70 -68 -4 -9 -21 -39 -39 -67 -64 -102 -65 -106 -79 -308 -18 -249 -45 -338 -119 -404 -93 -81 -322 -94 -463 -25 -61 30 -153 122 -153 152 0 12 9 29 20 38 19 16 18 17 -15 55 l-35 38 2 112 c2 107 1 117 -30 190 -32 76 -41 141 -22 153 6 4 10 -7 10 -27 0 -84 68 -148 157 -148 69 0 100 20 113 74 24 96 50 116 50 40 0 -40 2 -45 15 -34 12 10 15 9 15 -7 0 -15 -17 -29 -63 -51 -35 -18 -72 -41 -82 -52 -18 -20 -18 -20 16 -20 19 -1 45 -8 59 -16 16 -10 18 -13 5 -8 -39 14 -83 16 -105 4 -46 -25 -85 -181 -61 -244 l12 -29 112 6 c123 6 174 21 220 64 36 35 35 62 -7 182 -19 54 -42 137 -51 185 l-16 87 29 47 c16 26 43 55 60 65 58 34 257 42 375 16z m-4053 -33 c0 -3 -5 -8 -12 -12 -7 -4 -8 -3 -4 4 7 12 16 16 16 8z m3547 -73 c-4 -3 -7 0 -7 7 0 7 3 10 7 7 3 -4 3 -10 0 -14z m-3340 -160 c29 -43 41 -75 83 -226 45 -158 49 -190 23 -185 -21 4 -41 61 -79 223 -14 61 -34 134 -45 163 -20 56 -11 68 18 25z m3174 -177 c-22 -23 -22 -25 -7 -55 21 -41 14 -40 -13 1 l-20 33 21 22 c12 13 26 23 31 23 6 0 0 -11 -12 -24z m-3924 -33 c-4 -3 -10 -3 -14 0 -3 4 0 7 7 7 7 0 10 -3 7 -7z m3897 -74 c-3 -5 -10 -7 -15 -3 -5 3 -7 10 -3 15 3 5 10 7 15 3 5 -3 7 -10 3 -15z m100 0 c-3 -5 -10 -7 -15 -3 -5 3 -7 10 -3 15 3 5 10 7 15 3 5 -3 7 -10 3 -15z m-3864 -53 c0 -3 -5 -8 -12 -12 -7 -4 -8 -3 -4 4 7 12 16 16 16 8z m-93 -58 c-3 -8 -6 -5 -6 6 -1 11 2 17 5 13 3 -3 4 -12 1 -19z m-392 -8 c3 -6 -1 -7 -9 -4 -18 7 -21 14 -7 14 6 0 13 -4 16 -10z m-18 -57 c-4 -3 -7 0 -7 7 0 7 3 10 7 7 3 -4 3 -10 0 -14z m4693 -794 c0 -10 -31 -12 -55 -3 -11 5 -13 9 -5 14 14 9 60 1 60 -11z m-18 -35 c49 -8 39 -24 -15 -24 -51 0 -87 9 -87 21 0 10 48 12 102 3z m58 -64 c28 -6 18 -8 -50 -9 -92 -1 -130 5 -130 21 0 11 117 3 180 -12z"/>
</g>
<g id="layer104" fill="#cd916d" stroke="none">
<path d="M0 4000 l0 -4000 4000 0 4000 0 0 4000 0 4000 -4000 0 -4000 0 0 -4000z m5439 3604 l62 -27 28 27 28 27 521 -3 c515 -3 522 -3 542 -24 12 -12 24 -40 27 -63 l6 -41 -457 0 c-330 0 -455 -3 -450 -11 5 -8 1 -8 -14 0 -12 6 -70 11 -131 11 -125 0 -136 -8 -78 -55 35 -28 36 -28 -72 14 -29 12 -56 19 -59 16 -3 -3 5 -17 19 -32 13 -15 2 -7 -26 18 -29 26 -79 57 -120 74 -38 15 -78 36 -87 44 -17 15 -17 18 -2 40 30 42 69 51 140 31 34 -10 90 -30 123 -46z m-2269 -126 c234 -77 448 -151 477 -163 57 -26 73 -47 73 -99 0 -45 -13 -46 -123 -11 -43 14 -86 25 -96 25 -9 0 -35 8 -57 19 -21 10 -180 65 -352 122 -262 86 -315 101 -323 89 -7 -13 -9 -12 -9 2 0 11 -20 23 -67 39 -38 12 -70 23 -71 25 -8 6 21 80 37 92 10 8 29 11 51 7 19 -3 226 -69 460 -147z m1446 115 c12 -7 25 -20 28 -30 4 -10 10 -103 13 -207 6 -178 8 -192 30 -225 24 -36 23 -63 -3 -91 -13 -13 -73 -15 -420 -15 l-406 0 -19 24 c-26 32 -24 54 9 92 27 33 27 33 32 227 l5 194 29 25 29 25 326 -4 c231 -2 332 -7 347 -15z m-2607 -9 c26 -19 56 -83 44 -95 -4 -4 -53 -11 -108 -14 -79 -5 -110 -12 -147 -31 -56 -30 -65 -24 -10 6 l37 21 -250 -6 c-415 -9 -505 -15 -506 -34 -1 -13 -2 -13 -6 2 -4 14 -16 17 -79 17 l-74 0 0 43 c0 83 -1 83 430 96 462 15 643 13 669 -5z m3921 -196 c0 -4 -4 -8 -9 -8 -5 0 -18 -3 -28 -6 -17 -6 -17 -6 1 8 18 14 17 15 -13 28 -17 7 -34 17 -37 22 -3 4 15 -2 40 -14 25 -12 46 -26 46 -30z m320 16 c0 -14 -12 -19 -23 -8 -9 9 4 35 14 28 5 -3 9 -12 9 -20z m-120 1 c0 -8 -4 -15 -10 -15 -5 0 -10 7 -10 15 0 8 5 15 10 15 6 0 10 -7 10 -15z m-654 -37 l29 -33 -32 29 c-31 28 -38 36 -30 36 2 0 16 -15 33 -32z m-4034 -10 c-15 -15 -26 -4 -18 18 5 13 9 15 18 6 9 -9 9 -15 0 -24z m223 12 c-19 -21 -35 -26 -35 -12 0 5 10 14 23 20 31 15 32 14 12 -8z m-335 -5 c0 -8 -7 -15 -15 -15 -16 0 -20 12 -8 23 11 12 23 8 23 -8z m1400 11 c0 -3 -5 -8 -12 -12 -7 -4 -8 -3 -4 4 7 12 16 16 16 8z m3137 -13 c-4 -3 -10 -3 -14 0 -3 4 0 7 7 7 7 0 10 -3 7 -7z m-4267 -17 c0 -3 -5 -8 -12 -12 -7 -4 -8 -3 -4 4 7 12 16 16 16 8z m4458 -20 c-1 -2 -16 -6 -33 -10 -24 -5 -26 -4 -12 4 9 6 15 16 11 22 -4 6 3 5 16 -2 12 -6 20 -13 18 -14z m-517 -33 l34 -37 -37 30 c-20 16 -37 32 -37 37 -2 12 4 8 40 -30z m-2551 17 c0 -5 -7 -10 -15 -10 -8 0 -15 5 -15 10 0 6 7 10 15 10 8 0 15 -4 15 -10z m2493 3 c-7 -2 -19 -2 -25 0 -7 3 -2 5 12 5 14 0 19 -2 13 -5z m-4442 -26 c-10 -9 -11 -8 -5 6 3 10 9 15 12 12 3 -3 0 -11 -7 -18z m4946 16 c-4 -3 -10 -3 -14 0 -3 4 0 7 7 7 7 0 10 -3 7 -7z m-2889 -31 c2 -7 -3 -12 -12 -12 -9 0 -16 7 -16 16 0 17 22 14 28 -4z m2612 -17 c0 -8 -4 -15 -10 -15 -5 0 -10 7 -10 15 0 8 5 15 10 15 6 0 10 -7 10 -15z m305 8 c-16 -3 -35 -9 -41 -14 -7 -5 -11 -3 -11 6 0 11 11 15 41 14 34 -2 36 -3 11 -6z m30 -23 c3 -5 4 -10 1 -10 -3 0 -8 5 -11 10 -3 6 -4 10 -1 10 3 0 8 -4 11 -10z m-4447 -21 c13 -20 13 -21 -9 -6 -13 10 -34 14 -53 11 -25 -3 -27 -3 -11 5 33 16 59 12 73 -10z m4012 -4 c11 -13 10 -14 -4 -9 -9 3 -16 10 -16 15 0 13 6 11 20 -6z m224 4 c-3 -6 -1 -15 6 -19 7 -4 -6 -10 -31 -14 -23 -4 -44 -4 -47 -1 -3 3 2 5 11 5 10 0 17 6 17 14 0 14 14 24 38 25 7 1 10 -4 6 -10z m-267 -5 c-3 -3 -12 -4 -19 -1 -8 3 -5 6 6 6 11 1 17 -2 13 -5z m-2275 -11 c-10 -4 -9 -10 5 -26 18 -21 18 -21 -7 -4 -13 9 -36 18 -50 18 -20 1 -18 3 10 9 43 9 60 10 42 3z m2825 0 c-4 -3 -10 -3 -14 0 -3 4 0 7 7 7 7 0 10 -3 7 -7z m126 -8 c0 -6 -8 -11 -19 -12 -10 -2 -13 0 -6 3 6 3 9 10 6 16 -4 6 -1 9 5 7 7 -3 13 -9 14 -14z m-4816 -2 c-4 -3 -10 -3 -14 0 -3 4 0 7 7 7 7 0 10 -3 7 -7z m-30 -10 c-4 -3 -10 -3 -14 0 -3 4 0 7 7 7 7 0 10 -3 7 -7z m1761 -6 c-7 -8 -23 -11 -37 -8 l-26 5 30 7 c45 10 47 10 33 -4z m2378 -2 c22 -9 33 -19 28 -26 -5 -8 -9 -8 -14 2 -5 7 -21 18 -37 25 -40 18 -20 17 23 -1z m-3731 -5 c3 -5 2 -10 -4 -10 -5 0 -13 5 -16 10 -3 6 -2 10 4 10 5 0 13 -4 16 -10z m-358 -7 c-4 -3 -10 -3 -14 0 -3 4 0 7 7 7 7 0 10 -3 7 -7z m-112 -13 c3 -5 4 -10 1 -10 -3 0 -8 5 -11 10 -3 6 -4 10 -1 10 3 0 8 -4 11 -10z m1840 0 c3 -5 4 -10 1 -10 -3 0 -8 5 -11 10 -3 6 -4 10 -1 10 3 0 8 -4 11 -10z m166 -7 c13 -16 12 -17 -3 -4 -10 7 -18 15 -18 17 0 8 8 3 21 -13z m-531 -109 c193 -63 353 -121 356 -128 7 -18 -59 -198 -76 -207 -8 -4 -22 -10 -30 -12 -10 -3 -58 -136 -142 -393 -69 -214 -201 -620 -293 -902 -92 -282 -164 -516 -160 -520 4 -4 381 -9 838 -12 493 -3 791 -8 732 -12 -55 -5 -434 -8 -842 -8 -697 0 -743 -1 -751 -17 -10 -21 -225 -694 -243 -765 l-13 -46 -55 -6 c-44 -5 -661 -26 -769 -26 -21 0 -22 -3 -16 -42 11 -70 -3 -39 -26 57 -40 170 -79 559 -80 808 l0 37 -127 0 c-71 0 -135 5 -143 10 -10 7 33 10 131 10 l146 0 6 68 c15 149 20 113 -124 866 -129 676 -148 769 -168 816 -22 50 -58 226 -49 235 3 4 176 38 383 77 311 59 378 69 385 58 10 -16 40 -173 40 -207 0 -16 -8 -25 -25 -29 -14 -3 -25 -12 -25 -18 0 -12 171 -912 211 -1108 12 -60 25 -108 30 -108 8 0 161 457 342 1020 118 366 122 381 107 390 -14 8 -9 27 37 158 19 54 30 72 44 72 10 0 176 -52 369 -116z m2801 89 c13 -16 12 -17 -3 -4 -10 7 -18 15 -18 17 0 8 8 3 21 -13z m-2396 -3 c3 -5 4 -10 1 -10 -3 0 -8 5 -11 10 -3 6 -4 10 -1 10 3 0 8 -4 11 -10z m160 0 c3 -5 4 -10 1 -10 -3 0 -8 5 -11 10 -3 6 -4 10 -1 10 3 0 8 -4 11 -10z m2290 -83 c6 -6 -3 -1 -20 10 -16 12 -43 36 -60 54 -22 25 -17 22 20 -10 28 -24 55 -49 60 -54z m-2518 77 c17 -3 41 -16 55 -27 13 -12 18 -18 11 -14 -6 5 -17 6 -23 2 -5 -3 -13 1 -16 10 -5 12 -14 15 -30 11 -13 -4 -24 -2 -24 3 0 6 -35 12 -77 14 l-78 3 76 2 c42 1 90 -1 106 -4z m-212 -14 c8 -13 -5 -13 -25 0 -13 8 -13 10 2 10 9 0 20 -4 23 -10z m2720 -10 c10 -11 16 -20 13 -20 -3 0 -13 9 -23 20 -10 11 -16 20 -13 20 3 0 13 -9 23 -20z m-2688 -7 c-4 -3 -10 -3 -14 0 -3 4 0 7 7 7 7 0 10 -3 7 -7z m2763 -65 c0 -4 -8 -8 -17 -7 -12 0 -14 2 -5 6 10 4 8 12 -10 32 l-23 26 28 -24 c15 -14 27 -28 27 -33z m-2475 32 c3 -5 4 -10 1 -10 -3 0 -8 5 -11 10 -3 6 -4 10 -1 10 3 0 8 -4 11 -10z m30 -20 c3 -5 4 -10 1 -10 -3 0 -8 5 -11 10 -3 6 -4 10 -1 10 3 0 8 -4 11 -10z m-30 -20 c3 -5 4 -10 1 -10 -3 0 -8 5 -11 10 -3 6 -4 10 -1 10 3 0 8 -4 11 -10z m112 -57 c-4 -3 -10 -3 -14 0 -3 4 0 7 7 7 7 0 10 -3 7 -7z m2140 -110 c-4 -3 -10 -3 -14 0 -3 4 0 7 7 7 7 0 10 -3 7 -7z m30 -10 c-4 -3 -10 -3 -14 0 -3 4 0 7 7 7 7 0 10 -3 7 -7z m1153 -42 c0 -28 -4 -53 -10 -56 -5 -3 -66 3 -135 15 -69 11 -128 20 -132 20 -3 0 -4 -528 -2 -1172 3 -645 2 -1038 -2 -873 -3 165 -7 692 -8 1171 -1 721 -3 873 -14 877 -8 3 -79 16 -158 29 l-144 23 90 6 c50 3 186 6 303 7 l212 2 0 -49z m-1113 32 c-4 -3 -10 -3 -14 0 -3 4 0 7 7 7 7 0 10 -3 7 -7z m58 -13 c13 -5 14 -9 5 -9 -8 0 -24 4 -35 9 -13 5 -14 9 -5 9 8 0 24 -4 35 -9z m42 -17 c-4 -3 -10 -3 -14 0 -3 4 0 7 7 7 7 0 10 -3 7 -7z m40 -10 c-4 -3 -10 -3 -14 0 -3 4 0 7 7 7 7 0 10 -3 7 -7z m40 -9 c-3 -3 -12 -4 -19 -1 -8 3 -5 6 6 6 11 1 17 -2 13 -5z m30 -11 c-4 -3 -10 -3 -14 0 -3 4 0 7 7 7 7 0 10 -3 7 -7z m-77 -64 c118 -34 225 -67 238 -75 18 -12 22 -24 22 -63 0 -26 -3 -50 -6 -54 -4 -3 -54 19 -112 48 -58 30 -112 55 -118 55 -7 0 -15 -8 -17 -17 -4 -15 -5 -14 -6 3 -1 28 -20 43 -116 95 -91 49 -124 69 -110 69 5 0 106 -27 225 -61z m117 55 c-3 -3 -12 -4 -19 -1 -8 3 -5 6 6 6 11 1 17 -2 13 -5z m30 -11 c-4 -3 -10 -3 -14 0 -3 4 0 7 7 7 7 0 10 -3 7 -7z m40 -10 c-4 -3 -10 -3 -14 0 -3 4 0 7 7 7 7 0 10 -3 7 -7z m359 -150 c30 -30 34 -40 34 -88 0 -48 -4 -58 -34 -88 -58 -58 -130 -54 -186 10 -29 33 -32 41 -28 85 11 114 134 161 214 81z m-549 -35 c-3 -8 -6 -5 -6 6 -1 11 2 17 5 13 3 -3 4 -12 1 -19z m892 -16 c14 -27 -9 -66 -41 -70 -54 -6 -76 78 -25 97 25 10 52 -2 66 -27z m-1068 -2 c25 -25 28 -33 19 -50 -18 -34 -55 -53 -79 -40 -21 11 -41 40 -41 60 0 14 46 60 60 60 6 0 25 -13 41 -30z m-1146 -20 c10 -11 16 -20 13 -20 -3 0 -13 9 -23 20 -10 11 -16 20 -13 20 3 0 13 -9 23 -20z m1312 -2 c-3 -8 -6 -5 -6 6 -1 11 2 17 5 13 3 -3 4 -12 1 -19z m-10 -40 c-3 -8 -6 -5 -6 6 -1 11 2 17 5 13 3 -3 4 -12 1 -19z m-10 -40 c-3 -8 -6 -5 -6 6 -1 11 2 17 5 13 3 -3 4 -12 1 -19z m-10 -40 c-3 -8 -6 -5 -6 6 -1 11 2 17 5 13 3 -3 4 -12 1 -19z m-10 -40 c-3 -8 -6 -5 -6 6 -1 11 2 17 5 13 3 -3 4 -12 1 -19z m-10 -35 c-4 -3 -7 0 -7 7 0 7 3 10 7 7 3 -4 3 -10 0 -14z m-10 -40 c-4 -3 -7 0 -7 7 0 7 3 10 7 7 3 -4 3 -10 0 -14z m-10 -35 c-3 -8 -6 -5 -6 6 -1 11 2 17 5 13 3 -3 4 -12 1 -19z m-10 -40 c-3 -8 -6 -5 -6 6 -1 11 2 17 5 13 3 -3 4 -12 1 -19z m194 -26 c24 -21 32 -39 36 -73 5 -41 2 -50 -24 -79 -41 -45 -106 -53 -149 -17 -40 34 -56 84 -39 124 31 74 118 96 176 45z m-204 -14 c-3 -8 -6 -5 -6 6 -1 11 2 17 5 13 3 -3 4 -12 1 -19z m-1257 -16 c0 -4 -9 -8 -19 -8 -11 0 -17 4 -15 8 3 4 12 8 20 8 8 0 14 -4 14 -8z m1247 -24 c-3 -8 -6 -5 -6 6 -1 11 2 17 5 13 3 -3 4 -12 1 -19z m-1307 -2 c0 -3 -5 -8 -12 -12 -7 -4 -8 -3 -4 4 7 12 16 16 16 8z m1297 -38 c-3 -8 -6 -5 -6 6 -1 11 2 17 5 13 3 -3 4 -12 1 -19z m1012 -12 c33 -39 -30 -90 -75 -61 -26 17 -31 43 -11 67 24 31 58 28 86 -6z m-2204 4 c3 -5 4 -10 1 -10 -3 0 -8 5 -11 10 -3 6 -4 10 -1 10 3 0 8 -4 11 -10z m-175 -4 c0 -3 -5 -8 -12 -12 -7 -4 -8 -3 -4 4 7 12 16 16 16 8z m1357 -28 c-3 -8 -6 -5 -6 6 -1 11 2 17 5 13 3 -3 4 -12 1 -19z m-1152 -18 c3 -5 4 -10 1 -10 -3 0 -8 5 -11 10 -3 6 -4 10 -1 10 3 0 8 -4 11 -10z m1142 -17 c-4 -3 -7 0 -7 7 0 7 3 10 7 7 3 -4 3 -10 0 -14z m-10 -40 c-4 -3 -7 0 -7 7 0 7 3 10 7 7 3 -4 3 -10 0 -14z m-10 -40 c-4 -3 -7 0 -7 7 0 7 3 10 7 7 3 -4 3 -10 0 -14z m746 -20 c9 -9 17 -30 17 -48 0 -75 -79 -106 -127 -50 -30 34 -25 69 14 103 28 26 63 24 96 -5z m-756 -20 c-4 -3 -7 0 -7 7 0 7 3 10 7 7 3 -4 3 -10 0 -14z m-167 -23 c26 -26 25 -46 -5 -75 -27 -28 -43 -31 -70 -11 -21 15 -25 67 -5 90 17 22 56 20 80 -4z m157 -12 c-3 -8 -6 -5 -6 6 -1 11 2 17 5 13 3 -3 4 -12 1 -19z m-10 -40 c-3 -8 -6 -5 -6 6 -1 11 2 17 5 13 3 -3 4 -12 1 -19z m-10 -40 c-3 -8 -6 -5 -6 6 -1 11 2 17 5 13 3 -3 4 -12 1 -19z m-10 -40 c-3 -8 -6 -5 -6 6 -1 11 2 17 5 13 3 -3 4 -12 1 -19z m-1167 -38 c-6 -11 -13 -20 -16 -20 -2 0 0 9 6 20 6 11 13 20 16 20 2 0 0 -9 -6 -20z m1157 -2 c-3 -8 -6 -5 -6 6 -1 11 2 17 5 13 3 -3 4 -12 1 -19z m-10 -40 c-3 -8 -6 -5 -6 6 -1 11 2 17 5 13 3 -3 4 -12 1 -19z m-10 -50 c-3 -7 -5 -2 -5 12 0 14 2 19 5 13 2 -7 2 -19 0 -25z m-10 -40 c-3 -8 -6 -5 -6 6 -1 11 2 17 5 13 3 -3 4 -12 1 -19z m113 2 c16 -16 18 -25 10 -40 -5 -10 -15 -22 -20 -25 -16 -10 -49 5 -61 28 -10 17 -8 24 11 39 28 23 35 23 60 -2z m-123 -42 c-3 -8 -6 -5 -6 6 -1 11 2 17 5 13 3 -3 4 -12 1 -19z m723 -8 c0 -5 -7 -10 -15 -10 -8 0 -15 5 -15 10 0 6 7 10 15 10 8 0 15 -4 15 -10z m-733 -32 c-3 -8 -6 -5 -6 6 -1 11 2 17 5 13 3 -3 4 -12 1 -19z m-10 -50 c-3 -8 -6 -5 -6 6 -1 11 2 17 5 13 3 -3 4 -12 1 -19z m-10 -85 c-3 -10 -5 -2 -5 17 0 19 2 27 5 18 2 -10 2 -26 0 -35z m1212 10 c17 -16 31 -35 32 -43 4 -39 -3 -63 -26 -85 -53 -54 -155 -18 -155 55 0 91 85 132 149 73z m-1195 -49 c3 -8 2 -12 -4 -9 -6 3 -10 10 -10 16 0 14 7 11 14 -7z m417 -35 c34 -34 -1 -100 -42 -78 -34 18 -41 44 -18 73 25 31 33 32 60 5z m-390 -6 c13 -16 12 -17 -3 -4 -10 7 -18 15 -18 17 0 8 8 3 21 -13z m30 -40 c13 -16 12 -17 -3 -4 -10 7 -18 15 -18 17 0 8 8 3 21 -13z m-1126 -13 c3 -5 4 -10 1 -10 -3 0 -8 5 -11 10 -3 6 -4 10 -1 10 3 0 8 -4 11 -10z m1175 -50 c17 -22 29 -40 27 -40 -3 0 -20 18 -37 40 -17 22 -29 40 -27 40 3 0 20 -18 37 -40z m655 5 c14 -13 25 -29 25 -35 0 -14 -46 -60 -60 -60 -14 0 -60 46 -60 60 0 6 11 22 25 35 13 14 29 25 35 25 6 0 22 -11 35 -25z m-692 -76 c34 -37 34 -69 1 -108 -36 -43 -84 -43 -126 -1 -25 26 -29 36 -24 62 11 54 59 92 101 81 11 -2 32 -18 48 -34z m213 -150 c77 -94 146 -181 155 -192 16 -20 17 -20 22 -1 3 10 19 98 34 194 l28 175 9 -301 c9 -302 1 -698 -14 -689 -4 3 -34 39 -66 81 l-58 76 27 191 c15 106 27 204 27 218 0 19 -41 79 -141 205 -78 99 -148 187 -157 197 -8 9 -13 17 -10 17 3 0 68 -77 144 -171z m951 -65 c45 -28 68 -107 45 -149 -40 -76 -134 -96 -192 -40 -56 54 -58 116 -4 170 46 46 97 52 151 19z m-1417 -25 c-25 -4 -186 -8 -357 -8 -243 -1 -313 -4 -314 -13 0 -10 -2 -10 -6 0 -3 8 -27 12 -68 12 -84 0 -95 18 -13 22 132 6 802 -5 758 -13z m425 -110 c0 -17 -6 -24 -20 -24 -23 0 -33 34 -13 46 20 13 33 5 33 -22z m586 -47 c68 -63 74 -157 13 -216 -65 -63 -151 -66 -209 -8 -34 34 -45 62 -45 115 0 84 66 147 153 147 42 0 53 -5 88 -38z m549 -95 c0 -2 -10 -12 -22 -23 l-23 -19 19 23 c18 21 26 27 26 19z m-3303 -53 c141 -83 162 -285 41 -401 -48 -46 -96 -63 -181 -63 -64 0 -79 4 -127 33 -75 45 -111 104 -118 195 -6 86 7 127 58 185 85 96 216 117 327 51z m3253 13 c0 -2 -10 -12 -22 -23 l-23 -19 19 23 c18 21 26 27 26 19z m-58 -49 c-7 -7 -13 -41 -14 -77 l-2 -66 -3 63 c-4 57 6 92 25 92 3 0 1 -5 -6 -12z m-1037 -273 c0 -134 -3 -247 -7 -251 -19 -18 -23 20 -27 218 -3 227 3 308 22 289 9 -9 12 -83 12 -256z m960 90 c33 -32 33 -84 3 -119 -13 -14 -30 -26 -38 -27 -65 -7 -110 28 -110 86 0 75 92 113 145 60z m-5468 -192 c-4 -3 -10 -3 -14 0 -3 4 0 7 7 7 7 0 10 -3 7 -7z m40 -10 c-4 -3 -10 -3 -14 0 -3 4 0 7 7 7 7 0 10 -3 7 -7z m40 -9 c-3 -3 -12 -4 -19 -1 -8 3 -5 6 6 6 11 1 17 -2 13 -5z m40 -10 c-3 -3 -12 -4 -19 -1 -8 3 -5 6 6 6 11 1 17 -2 13 -5z m4688 -136 c3 -35 5 -106 3 -158 l-3 -95 -42 141 c-24 78 -43 146 -43 152 0 11 21 19 57 21 19 1 22 -6 28 -61z m272 -46 c41 -61 56 -100 48 -132 -8 -33 -107 -240 -115 -240 -4 0 -13 66 -22 148 l-15 147 31 63 c17 34 33 62 36 62 3 0 19 -22 37 -48z m-913 -48 c9 -8 16 -22 16 -29 0 -18 -27 -45 -45 -45 -19 0 -45 28 -44 48 0 12 3 10 10 -6 7 -18 15 -23 36 -20 38 4 41 33 6 52 -18 10 -22 15 -11 16 9 0 24 -7 32 -16z m53 -31 c-4 -3 -7 0 -7 7 0 7 3 10 7 7 3 -4 3 -10 0 -14z m10 -55 c-3 -8 -6 -5 -6 6 -1 11 2 17 5 13 3 -3 4 -12 1 -19z m1307 -227 c-60 -92 -276 -401 -280 -401 -2 0 67 142 154 315 l157 316 3 -87 c3 -85 2 -88 -34 -143z m-1297 167 c-3 -7 -5 -2 -5 12 0 14 2 19 5 13 2 -7 2 -19 0 -25z m10 -50 c-3 -8 -6 -5 -6 6 -1 11 2 17 5 13 3 -3 4 -12 1 -19z m10 -55 c-4 -3 -7 0 -7 7 0 7 3 10 7 7 3 -4 3 -10 0 -14z m248 -1250 c0 -655 -3 -1195 -7 -1199 -5 -4 -11 -4 -15 0 -11 10 -16 1333 -8 1911 6 392 10 514 19 499 8 -14 11 -344 11 -1211z m-1475 522 l0 -395 -290 0 -290 0 0 260 0 260 175 0 175 0 0 135 0 135 115 0 115 0 0 -395z m1884 279 c27 -27 14 -74 -21 -74 -8 0 -6 7 7 20 24 24 25 33 5 50 -21 17 -48 -6 -42 -37 2 -12 0 -20 -4 -17 -16 9 -10 53 9 63 23 14 28 14 46 -5z m-3184 -47 c0 -2 -10 -12 -22 -23 l-23 -19 19 23 c18 21 26 27 26 19z m-50 -40 c0 -2 -12 -14 -27 -28 l-28 -24 24 28 c23 25 31 32 31 24z m98 -19 c7 -7 12 -21 11 -32 -1 -18 -2 -17 -8 4 -5 18 -14 25 -31 25 -21 0 -25 -5 -25 -32 0 -17 -3 -29 -7 -26 -12 7 -9 48 4 61 7 7 19 12 28 12 9 0 21 -5 28 -12z m-158 -32 c0 -2 -24 -23 -52 -46 l-53 -42 50 46 c50 46 55 49 55 42z m150 -36 c-8 -5 -19 -10 -25 -10 -5 0 -3 5 5 10 8 5 20 10 25 10 6 0 3 -5 -5 -10z m3783 -31 c50 -12 80 -40 70 -68 -4 -9 -21 -39 -39 -67 -64 -102 -65 -106 -79 -308 -18 -249 -45 -338 -119 -404 -93 -81 -322 -94 -463 -25 -61 30 -153 122 -153 152 0 12 9 29 20 38 19 16 18 17 -15 55 l-35 38 2 112 c2 107 1 117 -30 190 -32 76 -41 141 -22 153 6 4 10 -7 10 -27 0 -84 68 -148 157 -148 69 0 100 20 113 74 24 96 50 116 50 40 0 -40 2 -45 15 -34 12 10 15 9 15 -7 0 -15 -17 -29 -63 -51 -35 -18 -72 -41 -82 -52 -18 -20 -18 -20 16 -20 19 -1 45 -8 59 -16 16 -10 18 -13 5 -8 -39 14 -83 16 -105 4 -46 -25 -85 -181 -61 -244 l12 -29 112 6 c123 6 174 21 220 64 36 35 35 62 -7 182 -19 54 -42 137 -51 185 l-16 87 29 47 c16 26 43 55 60 65 58 34 257 42 375 16z m-4053 -33 c0 -3 -5 -8 -12 -12 -7 -4 -8 -3 -4 4 7 12 16 16 16 8z m3547 -73 c-4 -3 -7 0 -7 7 0 7 3 10 7 7 3 -4 3 -10 0 -14z m-3340 -160 c29 -43 41 -75 83 -226 45 -158 49 -190 23 -185 -21 4 -41 61 -79 223 -14 61 -34 134 -45 163 -20 56 -11 68 18 25z m3174 -177 c-22 -23 -22 -25 -7 -55 21 -41 14 -40 -13 1 l-20 33 21 22 c12 13 26 23 31 23 6 0 0 -11 -12 -24z m-3924 -33 c-4 -3 -10 -3 -14 0 -3 4 0 7 7 7 7 0 10 -3 7 -7z m3897 -74 c-3 -5 -10 -7 -15 -3 -5 3 -7 10 -3 15 3 5 10 7 15 3 5 -3 7 -10 3 -15z m100 0 c-3 -5 -10 -7 -15 -3 -5 3 -7 10 -3 15 3 5 10 7 15 3 5 -3 7 -10 3 -15z m-724 -539 l0 -520 -450 0 -450 0 0 520 0 520 450 0 450 0 0 -520z m-3140 486 c0 -3 -5 -8 -12 -12 -7 -4 -8 -3 -4 4 7 12 16 16 16 8z m-93 -58 c-3 -8 -6 -5 -6 6 -1 11 2 17 5 13 3 -3 4 -12 1 -19z m-392 -8 c3 -6 -1 -7 -9 -4 -18 7 -21 14 -7 14 6 0 13 -4 16 -10z m-18 -57 c-4 -3 -7 0 -7 7 0 7 3 10 7 7 3 -4 3 -10 0 -14z m4693 -794 c0 -10 -31 -12 -55 -3 -11 5 -13 9 -5 14 14 9 60 1 60 -11z m-18 -35 c49 -8 39 -24 -15 -24 -51 0 -87 9 -87 21 0 10 48 12 102 3z m58 -64 c28 -6 18 -8 -50 -9 -92 -1 -130 5 -130 21 0 11 117 3 180 -12z"/>
<path d="M2756 6651 c-11 -17 -27 -165 -24 -216 2 -38 7 -51 20 -53 27 -5 38 39 41 162 2 96 0 111 -15 114 -9 2 -19 -1 -22 -7z"/>
<path d="M1447 6567 c-9 -25 68 -212 99 -238 11 -9 18 -9 26 -1 16 16 1 73 -46 175 -26 58 -40 77 -54 77 -11 0 -22 -6 -25 -13z"/>
<path d="M2606 6133 c-10 -46 -25 -226 -20 -235 8 -13 30 -9 44 7 14 17 34 198 25 233 -8 32 -42 29 -49 -5z"/>
<path d="M1563 6064 c-15 -40 78 -239 112 -239 32 0 23 51 -28 159 -45 95 -69 118 -84 80z"/>
<path d="M2106 5844 c-3 -9 -9 -67 -13 -130 -5 -102 -4 -114 11 -120 10 -4 22 -2 27 3 13 13 33 205 25 238 -7 28 -40 35 -50 9z"/>
<path d="M2354 5636 c-10 -25 11 -43 119 -97 91 -45 102 -48 116 -34 14 14 13 17 -4 34 -29 28 -160 101 -195 108 -22 4 -31 1 -36 -11z"/>
<path d="M1270 5545 c0 -30 66 -184 90 -209 26 -27 52 -14 44 21 -8 31 -73 181 -87 201 -17 22 -47 14 -47 -13z"/>
<path d="M1584 5495 c-14 -35 14 -45 126 -45 121 0 140 4 140 30 0 26 -19 30 -146 30 -93 0 -116 -3 -120 -15z"/>
<path d="M2186 5261 c-12 -19 7 -39 82 -84 87 -52 129 -70 149 -63 26 10 12 35 -40 69 -112 75 -177 101 -191 78z"/>
<path d="M1627 5093 c-13 -12 -7 -41 9 -47 9 -3 67 -6 130 -6 97 0 116 3 121 16 12 33 -24 44 -142 44 -62 0 -115 -3 -118 -7z"/>
<path d="M2206 5052 c-9 -15 -29 -231 -22 -247 7 -20 42 -19 50 2 11 28 29 220 23 237 -7 17 -42 22 -51 8z"/>
<path d="M1743 4904 c-7 -20 23 -109 62 -181 32 -60 41 -68 64 -54 17 11 -4 81 -56 184 -33 66 -57 84 -70 51z"/>
<path d="M1353 4755 c-6 -18 36 -140 70 -200 14 -25 30 -40 42 -40 32 0 21 57 -30 163 -43 90 -68 113 -82 77z"/>
<path d="M1919 4458 c-34 -37 -109 -170 -109 -195 0 -37 31 -27 68 21 74 99 113 196 77 196 -8 0 -24 -10 -36 -22z"/>
</g>
<g id="layer105" fill="#6a88f8" stroke="none">
<path d="M0 4000 l0 -4000 4000 0 4000 0 0 4000 0 4000 -4000 0 -4000 0 0 -4000z m5306 3653 c43 -15 120 -18 676 -23 706 -6 656 1 665 -84 l6 -46 -459 -1 -459 0 149 -75 c81 -41 146 -77 143 -80 -2 -3 -26 5 -51 18 -46 22 -47 22 -97 4 -28 -9 -53 -15 -56 -12 -3 2 13 10 36 17 23 7 41 16 41 20 0 5 -45 31 -100 59 -100 50 -100 50 -199 50 -137 0 -144 -16 -31 -80 64 -37 58 -35 -68 15 -51 21 -96 35 -99 32 -3 -4 34 -52 83 -108 149 -170 156 -179 146 -179 -5 0 -15 7 -22 15 -8 10 -33 16 -74 17 l-61 1 57 6 57 6 -35 43 c-34 41 -38 42 -97 44 l-62 1 53 6 54 6 -64 72 c-80 91 -96 104 -192 144 -49 21 -81 40 -84 51 -4 17 -23 18 -278 18 l-275 0 22 -29 c19 -26 22 -45 26 -222 6 -185 7 -195 29 -222 29 -34 30 -57 5 -88 -21 -26 -94 -38 -248 -38 l-93 -1 0 -233 0 -234 26 -24 c14 -13 39 -42 56 -64 19 -25 9 -18 -26 20 l-56 60 1 -650 0 -650 102 -180 102 -180 405 -6 c223 -4 407 -7 410 -8 3 -1 -2 -6 -10 -11 -9 -6 -168 -10 -397 -10 -211 0 -383 -2 -383 -5 0 -4 7 -19 15 -35 21 -41 11 -38 -14 5 -20 35 -21 35 -91 35 -38 0 -70 4 -70 9 0 12 36 21 83 21 20 0 37 3 37 6 0 3 -42 80 -92 171 l-93 166 -6 -94 c-3 -52 -7 -92 -9 -89 -2 3 -6 151 -9 330 l-6 325 -43 -82 c-23 -46 -45 -83 -48 -83 -3 0 18 44 46 98 l51 97 -3 212 -3 211 -109 -80 c-59 -44 -105 -75 -102 -69 4 5 54 45 111 87 l105 77 0 428 0 429 -152 1 c-221 1 -328 12 -345 34 -21 29 -16 69 12 95 21 20 25 32 25 85 0 34 3 124 7 201 6 126 8 140 29 161 l23 23 -567 -1 -567 0 426 -144 c234 -78 440 -150 457 -159 34 -18 45 -44 40 -97 -4 -40 -10 -41 -134 -3 -80 24 -83 24 -183 9 -55 -8 -104 -15 -108 -15 -5 -1 17 -24 47 -52 52 -48 44 -44 -47 21 -28 21 -38 23 -89 16 l-59 -7 26 -22 c14 -11 41 -33 60 -49 18 -15 3 -7 -34 18 -38 25 -78 45 -89 45 -51 0 -1 11 154 35 92 14 172 25 177 25 6 0 11 4 11 9 0 8 -608 215 -655 223 -14 2 -25 -8 -42 -44 -30 -63 -93 -124 -139 -137 -21 -6 -40 -8 -42 -6 -5 5 8 10 50 19 14 3 41 20 58 37 35 35 84 125 75 139 -3 4 -35 18 -71 30 -70 24 -73 29 -49 93 7 16 -12 17 -314 17 -291 0 -355 -5 -306 -24 18 -6 45 -65 45 -96 0 -19 -6 -20 -106 -20 -104 0 -107 -1 -182 -40 -105 -55 -121 -68 -102 -80 11 -7 6 -8 -16 -4 -30 6 -104 -22 -118 -44 -3 -5 22 -17 54 -27 33 -10 58 -20 56 -23 -3 -2 -28 4 -56 13 -33 11 -67 15 -92 12 l-41 -5 29 17 c16 10 91 50 166 90 76 39 140 77 144 83 5 7 -40 8 -147 4 -85 -3 -247 -9 -361 -12 l-207 -6 -5 -27 c-2 -14 -8 -44 -11 -66 -9 -55 -39 -110 -74 -134 -45 -32 -46 -25 -2 14 44 40 71 105 71 171 l0 43 -77 3 -78 3 2 44 c1 25 9 51 17 59 16 16 119 23 601 41 221 8 211 8 -255 11 -391 3 -450 5 -305 11 99 3 1082 7 2185 8 1945 1 2006 2 2045 20 51 24 52 24 111 4z m832 -246 c2 -10 -3 -17 -12 -17 -18 0 -29 16 -21 31 9 14 29 6 33 -14z m120 0 c2 -12 -3 -17 -17 -17 -12 0 -21 6 -21 13 0 31 32 34 38 4z m-4929 -54 c-15 -18 -34 -1 -25 22 5 14 9 15 21 5 12 -10 13 -16 4 -27z m121 17 c0 -11 -7 -20 -15 -20 -8 0 -15 9 -15 20 0 11 7 20 15 20 8 0 15 -9 15 -20z m4210 10 c8 -5 11 -10 5 -10 -5 0 -17 5 -25 10 -8 5 -10 10 -5 10 6 0 17 -5 25 -10z m147 -37 c-4 -3 -10 -3 -14 0 -3 4 0 7 7 7 7 0 10 -3 7 -7z m-4057 -18 c19 -7 28 -13 20 -13 -8 0 -31 6 -50 13 -19 7 -28 13 -20 13 8 0 31 -6 50 -13z m4330 -6 c19 -11 26 -17 15 -13 -11 3 -27 8 -35 11 -8 2 -44 -5 -80 -16 -35 -11 -65 -19 -67 -17 -2 2 114 52 127 54 3 1 21 -8 40 -19z m-3092 -12 c2 -10 -3 -17 -12 -17 -10 0 -16 9 -16 21 0 24 23 21 28 -4z m112 -30 c0 -8 -3 -17 -7 -20 -9 -9 -34 13 -27 24 8 14 34 11 34 -4z m2618 -20 c2 -10 -3 -17 -12 -17 -18 0 -29 16 -21 31 9 14 29 6 33 -14z m367 -2 c85 -24 95 -25 187 -14 110 14 203 3 282 -31 45 -19 46 -20 46 -65 l0 -45 -264 0 c-239 0 -306 6 -260 24 9 3 46 6 83 6 75 0 85 4 71 30 -6 12 -32 22 -74 30 -37 7 -85 25 -111 41 l-46 29 -53 -30 c-60 -34 -171 -59 -188 -42 -14 14 16 29 131 62 53 16 98 29 101 29 3 0 46 -11 95 -24z m-4407 -40 c51 -14 102 -30 113 -35 24 -13 16 -30 -14 -29 -21 0 -21 1 -2 8 16 7 12 10 -25 24 -54 19 -119 37 -139 37 -11 0 -9 -4 5 -16 10 -9 2 -6 -20 6 -38 21 -39 21 -60 2 -30 -28 -76 -49 -121 -57 -30 -4 -22 0 28 18 79 28 114 54 57 42 -19 -4 -64 -19 -99 -33 -52 -20 -61 -27 -45 -33 15 -6 11 -8 -14 -8 -62 -2 -28 23 84 61 60 20 120 37 134 38 14 0 67 -11 118 -25z m3642 -19 c0 -8 6 -17 13 -20 6 -3 -1 -3 -18 0 -38 7 -43 13 -25 24 21 14 30 12 30 -4z m163 -6 c49 -8 72 -19 138 -69 51 -38 93 -62 117 -66 45 -8 152 -44 170 -57 6 -6 12 -23 12 -39 l0 -29 395 0 c257 0 395 -4 395 -10 0 -7 -141 -10 -403 -10 -398 0 -404 0 -487 25 -62 17 -91 32 -110 53 -14 16 -46 44 -71 62 -25 19 -60 53 -78 76 -29 39 -35 42 -69 38 -27 -3 -32 -2 -17 5 20 9 -4 14 -105 24 -30 3 -28 4 10 5 25 1 71 -2 103 -8z m-3783 -15 c52 -14 53 -15 11 -10 -24 3 -51 10 -60 15 -21 12 -16 12 49 -5z m3693 -12 c-7 -2 -21 -2 -30 0 -10 3 -4 5 12 5 17 0 24 -2 18 -5z m-2868 -33 c159 -48 613 -202 630 -214 17 -12 17 -15 0 -72 -29 -100 -55 -153 -77 -156 -12 -2 -25 -10 -30 -18 -16 -24 -586 -1784 -581 -1792 2 -5 365 -8 807 -8 753 0 995 -5 980 -19 -3 -3 -411 -8 -907 -11 l-901 -5 -93 -290 c-51 -159 -109 -345 -130 -412 -33 -109 -40 -123 -63 -128 -26 -5 -585 -25 -727 -25 l-83 0 -1 -57 -1 -58 -23 90 c-13 50 -24 100 -24 111 -1 16 -9 23 -33 28 -65 12 -178 49 -178 57 0 12 6 12 85 -11 121 -35 113 -46 94 143 -10 89 -21 251 -25 360 l-7 197 -141 0 c-78 0 -147 4 -154 9 -20 12 61 21 193 21 l112 0 7 103 c7 116 9 108 -138 877 -104 547 -139 709 -164 780 -23 63 -49 206 -39 216 13 13 718 147 750 142 19 -3 25 -15 39 -78 9 -41 17 -94 17 -117 1 -37 -2 -43 -24 -49 -14 -3 -25 -8 -25 -11 0 -7 195 -1028 218 -1138 10 -49 21 -85 25 -79 17 28 320 946 439 1332 6 19 7 48 4 65 -9 47 60 250 82 243 10 -3 49 -15 87 -26z m648 -22 c41 -21 197 -140 197 -149 0 -30 -104 25 -166 88 -49 50 -54 53 -81 42 -37 -15 -160 -14 -198 1 -28 11 -28 13 -10 20 31 13 233 12 258 -2z m2433 -283 c279 -78 364 -105 364 -115 0 -10 -109 18 -377 97 -106 31 -193 60 -193 65 0 11 -17 15 206 -47z m1084 -45 c0 -33 -3 -60 -7 -60 -5 0 -60 9 -123 20 -63 11 -121 20 -127 20 -10 0 -13 -271 -14 -1317 -1 -725 -5 -1307 -9 -1293 -4 14 -8 608 -9 1321 l-1 1296 -167 27 c-93 15 -181 31 -198 36 -18 5 112 9 313 9 l342 1 0 -60z m-960 -79 l235 -67 3 -73 c2 -41 -1 -71 -6 -69 -5 1 -57 28 -115 58 -58 30 -108 52 -112 48 -9 -9 -70 -241 -206 -783 -78 -313 -108 -448 -103 -470 3 -16 31 -64 62 -105 86 -115 394 -501 397 -498 2 2 19 102 39 222 20 121 39 222 41 225 3 2 5 -237 5 -532 0 -295 -4 -538 -8 -541 -5 -3 -39 35 -76 85 l-69 89 31 203 32 202 -35 50 c-19 28 -108 143 -199 258 -191 241 -235 305 -242 350 -6 36 29 186 195 831 102 398 109 430 93 442 -9 7 -64 38 -122 70 -58 31 -114 63 -125 71 -19 14 -17 14 15 8 19 -4 141 -38 270 -74z m527 -113 c109 -109 -23 -288 -154 -208 -91 55 -93 168 -3 228 50 34 110 26 157 -20z m335 -35 c24 -21 23 -58 -2 -83 -24 -24 -38 -25 -68 -4 -28 19 -31 78 -4 93 25 15 53 13 74 -6z m-1053 -19 c28 -36 26 -58 -5 -83 -33 -26 -58 -27 -84 -1 -39 39 -11 110 44 110 15 0 33 -11 45 -26z m268 -349 c14 -9 31 -33 40 -53 31 -75 -25 -155 -109 -155 -51 0 -89 28 -108 81 -13 37 -12 45 3 77 33 70 110 92 174 50z m-1368 -189 c40 -65 70 -120 68 -122 -3 -3 -138 219 -146 240 -8 23 9 -3 78 -118z m2153 87 c38 -34 12 -93 -41 -93 -36 0 -51 17 -51 57 0 49 54 71 92 36z m-297 -178 c29 -28 31 -54 10 -94 -24 -46 -74 -55 -119 -20 -55 43 -18 139 54 139 19 0 40 -9 55 -25z m-942 -26 c28 -15 37 -28 37 -58 0 -52 -68 -82 -104 -45 -22 22 -20 70 4 94 23 23 33 24 63 9z m221 -315 c19 -18 20 -28 6 -55 -19 -35 -90 -15 -90 26 0 20 28 45 50 45 10 0 26 -7 34 -16z m604 -51 c5 -17 -26 -29 -40 -15 -6 6 -7 15 -3 22 9 14 37 9 43 -7z m-2018 -140 c-40 -76 -77 -142 -83 -148 -5 -5 17 42 50 105 33 63 68 130 77 148 9 17 19 32 22 32 3 0 -27 -62 -66 -137z m2450 2 c36 -18 60 -52 60 -83 0 -35 -25 -77 -55 -90 -109 -50 -195 86 -103 163 34 29 57 31 98 10z m-759 -95 c34 -19 18 -100 -19 -100 -28 0 -62 29 -62 52 0 25 27 58 47 58 8 0 23 -5 34 -10z m349 -110 c11 -11 20 -29 20 -40 0 -26 -34 -60 -60 -60 -26 0 -60 34 -60 60 0 11 9 29 20 40 11 11 29 20 40 20 11 0 29 -9 40 -20z m-699 -69 c21 -22 29 -39 29 -66 0 -42 -44 -95 -80 -95 -29 0 -77 26 -90 49 -31 59 15 141 80 141 22 0 41 -9 61 -29z m1165 -220 c32 -20 64 -74 64 -111 0 -63 -61 -120 -130 -120 -99 0 -163 105 -111 184 42 64 117 84 177 47z m-978 -137 c2 -11 -4 -26 -12 -33 -31 -26 -71 14 -45 45 17 21 53 14 57 -12z m535 -18 c18 -7 45 -28 62 -45 24 -26 30 -41 33 -95 4 -60 2 -65 -29 -101 -77 -88 -184 -85 -252 6 -30 41 -33 107 -8 156 40 80 118 112 194 79z m597 -126 c0 -6 -27 -31 -60 -57 l-60 -46 0 -183 c0 -111 -4 -185 -10 -189 -7 -4 -10 61 -10 188 l0 195 68 51 c75 56 72 55 72 41z m-3344 -35 c45 -19 102 -72 126 -119 13 -26 23 -67 26 -111 3 -62 1 -76 -25 -125 -49 -94 -154 -148 -261 -136 -124 15 -207 98 -226 228 -18 120 72 248 197 279 39 9 121 1 163 -16z m2186 -82 c10 -22 12 -80 8 -260 -3 -127 -9 -235 -13 -239 -4 -5 -12 -2 -17 6 -13 20 -13 520 -1 520 5 0 15 -12 23 -27z m947 -138 c56 -29 64 -103 16 -151 -73 -72 -198 38 -138 122 14 19 57 44 76 44 10 0 31 -7 46 -15z m-571 -252 c-16 -2 -40 -2 -55 0 -16 2 -3 4 27 4 30 0 43 -2 28 -4z m489 -10 c-4 -3 -10 -3 -14 0 -3 4 0 7 7 7 7 0 10 -3 7 -7z m166 0 c-13 -2 -33 -2 -45 0 -13 2 -3 4 22 4 25 0 35 -2 23 -4z m-719 -245 c4 -76 4 -138 2 -138 -7 0 -96 280 -96 302 0 11 10 20 28 24 15 3 32 7 37 8 15 4 22 -44 29 -196z m268 80 c59 -87 59 -121 -6 -256 -28 -56 -55 -107 -61 -112 -9 -7 -16 30 -28 145 l-17 155 32 65 c18 36 33 65 35 65 1 0 22 -28 45 -62z m-875 -25 c-4 -3 -7 0 -7 7 0 7 3 10 7 7 3 -4 3 -10 0 -14z m-152 -4 c8 -11 65 -314 65 -341 0 -16 -57 -33 -183 -53 -58 -9 -38 9 43 40 39 15 70 31 70 37 0 16 -109 2 -169 -22 -65 -25 -92 -25 -125 1 -54 42 -73 128 -42 188 20 39 81 90 135 114 35 15 128 38 193 46 4 1 10 -4 13 -10z m113 -11 c7 -7 12 -21 12 -33 0 -12 -5 -26 -12 -33 -7 -7 -21 -12 -33 -12 -12 0 -26 5 -33 12 -7 7 -12 21 -12 33 0 12 5 26 12 33 7 7 21 12 33 12 12 0 26 -5 33 -12z m90 -253 c-1 -31 -46 196 -46 230 0 17 10 -24 23 -90 13 -66 23 -129 23 -140z m-4061 178 c-4 -3 -7 0 -7 7 0 7 3 10 7 7 3 -4 3 -10 0 -14z m5382 -91 c-1 -37 -4 -77 -7 -90 -6 -20 -320 -482 -328 -482 -8 0 38 96 173 362 81 158 150 285 155 282 4 -3 8 -35 7 -72z m-4589 14 c0 -3 -5 -8 -12 -12 -7 -4 -8 -3 -4 4 7 12 16 16 16 8z m3515 -1351 c0 -662 -3 -1207 -7 -1211 -5 -4 -11 -4 -15 0 -10 10 -17 2105 -8 2294 5 108 10 141 19 132 8 -8 11 -326 11 -1215z m-4258 908 c-4 -3 -7 0 -7 7 0 7 3 10 7 7 3 -4 3 -10 0 -14z m2783 -383 l0 -400 -290 0 -290 0 0 265 0 265 175 0 175 0 0 135 0 135 115 0 115 0 0 -400z m1990 275 c120 -60 165 -88 106 -66 -40 16 -246 121 -246 126 0 9 11 5 140 -60z m-106 -1 c21 -20 21 -60 0 -68 -25 -10 -42 -7 -58 10 -21 20 -20 30 4 54 24 24 34 25 54 4z m-3190 -62 c-104 -90 -257 -212 -261 -208 -10 9 256 235 277 235 9 0 3 -10 -16 -27z m3227 -73 c78 -38 152 -81 164 -94 23 -22 24 -22 41 -4 9 11 33 23 53 28 63 16 203 22 282 12 136 -18 158 -41 113 -119 -91 -158 -85 -137 -95 -319 -15 -257 -55 -383 -141 -440 -92 -61 -310 -71 -423 -19 -71 32 -136 84 -165 132 l-23 36 23 30 22 30 -33 35 c-32 32 -34 38 -30 91 9 117 4 156 -28 235 -17 43 -31 92 -31 109 0 67 100 328 125 328 3 0 69 -32 146 -71z m-3171 33 c31 -25 21 -69 -17 -78 -51 -13 -82 38 -47 77 21 24 36 24 64 1z m-72 -366 c32 -46 54 -109 98 -270 26 -97 34 -140 26 -148 -30 -30 -55 27 -102 227 -11 50 -29 117 -40 150 -11 33 -20 63 -20 68 0 16 16 5 38 -27z m-703 -206 c4 -6 -7 -10 -25 -10 -17 0 -45 -7 -62 -16 -23 -12 -29 -13 -26 -2 8 25 101 48 113 28z m67 -87 c10 -9 18 -22 18 -30 0 -19 -40 -96 -46 -90 -3 3 4 24 16 47 l21 42 -22 24 c-25 27 -15 33 13 7z m3158 -533 l0 -530 -450 0 -450 0 0 530 0 530 450 0 450 0 0 -530z m-3226 429 c-3 -5 -10 -7 -15 -3 -5 3 -7 10 -3 15 3 5 10 7 15 3 5 -3 7 -10 3 -15z m-394 -9 c0 -14 -39 -90 -45 -90 -3 0 2 16 10 36 19 46 19 44 -10 44 -14 0 -25 5 -25 10 0 6 16 10 35 10 19 0 35 -5 35 -10z m-143 -37 c-4 -3 -7 0 -7 7 0 7 3 10 7 7 3 -4 3 -10 0 -14z m120 -89 c-3 -3 -12 -4 -19 -1 -8 3 -5 6 6 6 11 1 17 -2 13 -5z m400 -11 c-4 -3 -10 -3 -14 0 -3 4 0 7 7 7 7 0 10 -3 7 -7z m-1109 -590 c-21 -2 -55 -2 -75 0 -21 2 -4 4 37 4 41 0 58 -2 38 -4z m5402 -118 l35 -13 -52 -1 c-49 -1 -71 8 -56 23 9 9 34 6 73 -9z m-4673 -42 c-4 -3 -7 0 -7 7 0 7 3 10 7 7 3 -4 3 -10 0 -14z m4668 -3 l70 -18 -87 -1 c-83 -1 -107 7 -93 29 8 13 27 12 110 -10z m65 -59 c9 -1 16 -10 17 -22 1 -12 11 -71 23 -131 12 -61 19 -112 17 -114 -2 -2 -17 6 -32 18 l-28 22 -15 -22 c-14 -21 -16 -22 -34 -6 -17 16 -19 16 -34 -2 -8 -10 -17 -14 -20 -9 -17 38 -23 40 -48 15 -32 -29 -32 -27 -2 117 13 62 21 115 18 118 -3 3 -15 5 -26 5 -12 0 -28 5 -36 10 -31 20 10 26 97 14 49 -7 95 -13 103 -13z m-4733 -298 c-4 -3 -7 0 -7 7 0 7 3 10 7 7 3 -4 3 -10 0 -14z m-290 -160 c-4 -3 -10 -3 -14 0 -3 4 0 7 7 7 7 0 10 -3 7 -7z"/>
<path d="M5264 3865 c-10 -25 4 -45 31 -45 33 0 45 28 20 46 -25 18 -44 18 -51 -1z"/>
<path d="M6030 3165 c-16 -19 -9 -49 12 -53 23 -4 43 35 27 54 -15 18 -23 18 -39 -1z"/>
<path d="M6200 2895 c-8 -9 -8 -15 -2 -15 12 0 26 19 19 26 -2 2 -10 -2 -17 -11z"/>
<path d="M6171 2851 c-11 -20 -5 -31 16 -31 7 0 13 11 13 25 0 29 -15 33 -29 6z"/>
</g>
<g id="layer106" fill="#fcd344" stroke="none">
<path d="M0 4000 l0 -4000 4000 0 4000 0 0 4000 0 4000 -4000 0 -4000 0 0 -4000z m5306 3653 c43 -15 120 -18 676 -23 706 -6 656 1 665 -84 l6 -46 -459 -1 -459 0 149 -75 c81 -41 146 -77 143 -80 -2 -3 -26 5 -51 18 -46 22 -47 22 -97 4 -28 -9 -53 -15 -56 -12 -3 2 13 10 36 17 23 7 41 16 41 20 0 5 -45 31 -100 59 -100 50 -100 50 -199 50 -137 0 -144 -16 -31 -80 64 -37 58 -35 -68 15 -51 21 -96 35 -99 32 -3 -4 34 -52 83 -108 149 -170 156 -179 146 -179 -5 0 -15 7 -22 15 -8 10 -33 16 -74 17 l-61 1 57 6 57 6 -35 43 c-34 41 -38 42 -97 44 l-62 1 53 6 54 6 -64 72 c-80 91 -96 104 -192 144 -49 21 -81 40 -84 51 -4 17 -23 18 -278 18 l-275 0 22 -29 c19 -26 22 -45 26 -222 6 -185 7 -195 29 -222 29 -34 30 -57 5 -88 -21 -26 -94 -38 -248 -38 l-93 -1 0 -233 0 -234 26 -24 c14 -13 39 -42 56 -64 19 -25 9 -18 -26 20 l-56 60 1 -650 0 -650 102 -180 102 -180 405 -6 c223 -4 407 -7 410 -8 3 -1 -2 -6 -10 -11 -9 -6 -168 -10 -397 -10 -211 0 -383 -2 -383 -5 0 -4 7 -19 15 -35 21 -41 11 -38 -14 5 -20 35 -21 35 -91 35 -38 0 -70 4 -70 9 0 12 36 21 83 21 20 0 37 3 37 6 0 3 -42 80 -92 171 l-93 166 -6 -94 c-3 -52 -7 -92 -9 -89 -2 3 -6 151 -9 330 l-6 325 -43 -82 c-23 -46 -45 -83 -48 -83 -3 0 18 44 46 98 l51 97 -3 212 -3 211 -109 -80 c-59 -44 -105 -75 -102 -69 4 5 54 45 111 87 l105 77 0 428 0 429 -152 1 c-221 1 -328 12 -345 34 -21 29 -16 69 12 95 21 20 25 32 25 85 0 34 3 124 7 201 6 126 8 140 29 161 l23 23 -567 -1 -567 0 426 -144 c234 -78 440 -150 457 -159 34 -18 45 -44 40 -97 -4 -40 -10 -41 -134 -3 -80 24 -83 24 -183 9 -55 -8 -104 -15 -108 -15 -5 -1 17 -24 47 -52 52 -48 44 -44 -47 21 -28 21 -38 23 -89 16 l-59 -7 26 -22 c14 -11 41 -33 60 -49 18 -15 3 -7 -34 18 -38 25 -78 45 -89 45 -51 0 -1 11 154 35 92 14 172 25 177 25 6 0 11 4 11 9 0 8 -608 215 -655 223 -14 2 -25 -8 -42 -44 -30 -63 -93 -124 -139 -137 -21 -6 -40 -8 -42 -6 -5 5 8 10 50 19 14 3 41 20 58 37 35 35 84 125 75 139 -3 4 -35 18 -71 30 -70 24 -73 29 -49 93 7 16 -12 17 -314 17 -291 0 -355 -5 -306 -24 18 -6 45 -65 45 -96 0 -19 -6 -20 -106 -20 -104 0 -107 -1 -182 -40 -105 -55 -121 -68 -102 -80 11 -7 6 -8 -16 -4 -30 6 -104 -22 -118 -44 -3 -5 22 -17 54 -27 33 -10 58 -20 56 -23 -3 -2 -28 4 -56 13 -33 11 -67 15 -92 12 l-41 -5 29 17 c16 10 91 50 166 90 76 39 140 77 144 83 5 7 -40 8 -147 4 -85 -3 -247 -9 -361 -12 l-207 -6 -5 -27 c-2 -14 -8 -44 -11 -66 -9 -55 -39 -110 -74 -134 -45 -32 -46 -25 -2 14 44 40 71 105 71 171 l0 43 -77 3 -78 3 2 44 c1 25 9 51 17 59 16 16 119 23 601 41 221 8 211 8 -255 11 -391 3 -450 5 -305 11 99 3 1082 7 2185 8 1945 1 2006 2 2045 20 51 24 52 24 111 4z m832 -246 c2 -10 -3 -17 -12 -17 -18 0 -29 16 -21 31 9 14 29 6 33 -14z m120 0 c2 -12 -3 -17 -17 -17 -12 0 -21 6 -21 13 0 31 32 34 38 4z m-4929 -54 c-15 -18 -34 -1 -25 22 5 14 9 15 21 5 12 -10 13 -16 4 -27z m121 17 c0 -11 -7 -20 -15 -20 -8 0 -15 9 -15 20 0 11 7 20 15 20 8 0 15 -9 15 -20z m4210 10 c8 -5 11 -10 5 -10 -5 0 -17 5 -25 10 -8 5 -10 10 -5 10 6 0 17 -5 25 -10z m147 -37 c-4 -3 -10 -3 -14 0 -3 4 0 7 7 7 7 0 10 -3 7 -7z m-4057 -18 c19 -7 28 -13 20 -13 -8 0 -31 6 -50 13 -19 7 -28 13 -20 13 8 0 31 -6 50 -13z m4330 -6 c19 -11 26 -17 15 -13 -11 3 -27 8 -35 11 -8 2 -44 -5 -80 -16 -35 -11 -65 -19 -67 -17 -2 2 114 52 127 54 3 1 21 -8 40 -19z m-3092 -12 c2 -10 -3 -17 -12 -17 -10 0 -16 9 -16 21 0 24 23 21 28 -4z m112 -30 c0 -8 -3 -17 -7 -20 -9 -9 -34 13 -27 24 8 14 34 11 34 -4z m2618 -20 c2 -10 -3 -17 -12 -17 -18 0 -29 16 -21 31 9 14 29 6 33 -14z m367 -2 c85 -24 95 -25 187 -14 110 14 203 3 282 -31 45 -19 46 -20 46 -65 l0 -45 -264 0 c-239 0 -306 6 -260 24 9 3 46 6 83 6 75 0 85 4 71 30 -6 12 -32 22 -74 30 -37 7 -85 25 -111 41 l-46 29 -53 -30 c-60 -34 -171 -59 -188 -42 -14 14 16 29 131 62 53 16 98 29 101 29 3 0 46 -11 95 -24z m-4407 -40 c51 -14 102 -30 113 -35 24 -13 16 -30 -14 -29 -21 0 -21 1 -2 8 16 7 12 10 -25 24 -54 19 -119 37 -139 37 -11 0 -9 -4 5 -16 10 -9 2 -6 -20 6 -38 21 -39 21 -60 2 -30 -28 -76 -49 -121 -57 -30 -4 -22 0 28 18 79 28 114 54 57 42 -19 -4 -64 -19 -99 -33 -52 -20 -61 -27 -45 -33 15 -6 11 -8 -14 -8 -62 -2 -28 23 84 61 60 20 120 37 134 38 14 0 67 -11 118 -25z m3642 -19 c0 -8 6 -17 13 -20 6 -3 -1 -3 -18 0 -38 7 -43 13 -25 24 21 14 30 12 30 -4z m163 -6 c49 -8 72 -19 138 -69 51 -38 93 -62 117 -66 45 -8 152 -44 170 -57 6 -6 12 -23 12 -39 l0 -29 395 0 c257 0 395 -4 395 -10 0 -7 -141 -10 -403 -10 -398 0 -404 0 -487 25 -62 17 -91 32 -110 53 -14 16 -46 44 -71 62 -25 19 -60 53 -78 76 -29 39 -35 42 -69 38 -27 -3 -32 -2 -17 5 20 9 -4 14 -105 24 -30 3 -28 4 10 5 25 1 71 -2 103 -8z m-3783 -15 c52 -14 53 -15 11 -10 -24 3 -51 10 -60 15 -21 12 -16 12 49 -5z m3693 -12 c-7 -2 -21 -2 -30 0 -10 3 -4 5 12 5 17 0 24 -2 18 -5z m-2868 -33 c159 -48 613 -202 630 -214 17 -12 17 -15 0 -72 -29 -100 -55 -153 -77 -156 -12 -2 -25 -10 -30 -18 -16 -24 -586 -1784 -581 -1792 2 -5 365 -8 807 -8 753 0 995 -5 980 -19 -3 -3 -411 -8 -907 -11 l-901 -5 -123 -385 c-133 -419 -142 -450 -123 -450 10 0 12 -24 7 -103 -5 -100 -20 -157 -40 -157 -5 0 -16 -8 -24 -17 -10 -12 -12 -13 -8 -3 10 24 -73 -71 -98 -111 -23 -38 -97 -139 -146 -199 -15 -20 -53 -71 -82 -115 -30 -43 -66 -93 -82 -110 -15 -16 -33 -42 -40 -57 -6 -16 -15 -28 -18 -28 -16 0 -31 -63 -26 -114 7 -84 53 -135 149 -165 84 -27 168 31 272 187 45 69 86 113 86 95 0 -31 -52 -210 -79 -271 -27 -60 -29 -74 -20 -101 14 -41 5 -63 -23 -59 -15 2 -24 11 -26 26 -4 28 -16 28 -40 -2 -12 -16 -47 -33 -103 -50 -93 -29 -210 -55 -221 -50 -6 4 -36 86 -45 122 -12 49 -30 89 -41 93 -14 6 -87 155 -105 214 -21 69 -36 173 -39 270 -2 73 -40 465 -47 486 -5 14 -7 47 -5 75 2 28 0 41 -5 30 -5 -13 -14 10 -29 77 -12 53 -22 102 -22 110 0 8 -14 17 -32 21 -65 12 -178 49 -178 57 0 12 6 12 85 -11 121 -35 113 -46 94 143 -10 89 -21 251 -25 360 l-7 197 -141 0 c-78 0 -147 4 -154 9 -20 12 61 21 193 21 l112 0 7 103 c7 116 9 108 -138 877 -104 547 -139 709 -164 780 -23 63 -49 206 -39 216 13 13 718 147 750 142 19 -3 25 -15 39 -78 9 -41 17 -94 17 -117 1 -37 -2 -43 -24 -49 -14 -3 -25 -8 -25 -11 0 -7 195 -1028 218 -1138 10 -49 21 -85 25 -79 17 28 320 946 439 1332 6 19 7 48 4 65 -9 47 60 250 82 243 10 -3 49 -15 87 -26z m648 -22 c41 -21 197 -140 197 -149 0 -30 -104 25 -166 88 -49 50 -54 53 -81 42 -37 -15 -160 -14 -198 1 -28 11 -28 13 -10 20 31 13 233 12 258 -2z m2433 -283 c279 -78 364 -105 364 -115 0 -10 -109 18 -377 97 -106 31 -193 60 -193 65 0 11 -17 15 206 -47z m1084 -45 c0 -33 -3 -60 -7 -60 -5 0 -60 9 -123 20 -63 11 -121 20 -127 20 -10 0 -13 -271 -14 -1317 -1 -725 -5 -1307 -9 -1293 -4 14 -8 608 -9 1321 l-1 1296 -167 27 c-93 15 -181 31 -198 36 -18 5 112 9 313 9 l342 1 0 -60z m-960 -79 l235 -67 3 -73 c2 -41 -1 -71 -6 -69 -5 1 -57 28 -115 58 -58 30 -108 52 -112 48 -9 -9 -70 -241 -206 -783 -78 -313 -108 -448 -103 -470 3 -16 31 -64 62 -105 86 -115 394 -501 397 -498 2 2 19 102 39 222 20 121 39 222 41 225 3 2 5 -237 5 -532 0 -295 -4 -538 -8 -541 -5 -3 -39 35 -76 85 l-69 89 31 203 32 202 -35 50 c-19 28 -108 143 -199 258 -191 241 -235 305 -242 350 -6 36 29 186 195 831 102 398 109 430 93 442 -9 7 -64 38 -122 70 -58 31 -114 63 -125 71 -19 14 -17 14 15 8 19 -4 141 -38 270 -74z m527 -113 c109 -109 -23 -288 -154 -208 -91 55 -93 168 -3 228 50 34 110 26 157 -20z m335 -35 c24 -21 23 -58 -2 -83 -24 -24 -38 -25 -68 -4 -28 19 -31 78 -4 93 25 15 53 13 74 -6z m-1053 -19 c28 -36 26 -58 -5 -83 -33 -26 -58 -27 -84 -1 -39 39 -11 110 44 110 15 0 33 -11 45 -26z m268 -349 c14 -9 31 -33 40 -53 31 -75 -25 -155 -109 -155 -51 0 -89 28 -108 81 -13 37 -12 45 3 77 33 70 110 92 174 50z m-1368 -189 c40 -65 70 -120 68 -122 -3 -3 -138 219 -146 240 -8 23 9 -3 78 -118z m2153 87 c38 -34 12 -93 -41 -93 -36 0 -51 17 -51 57 0 49 54 71 92 36z m-297 -178 c29 -28 31 -54 10 -94 -24 -46 -74 -55 -119 -20 -55 43 -18 139 54 139 19 0 40 -9 55 -25z m-942 -26 c28 -15 37 -28 37 -58 0 -52 -68 -82 -104 -45 -22 22 -20 70 4 94 23 23 33 24 63 9z m221 -315 c19 -18 20 -28 6 -55 -19 -35 -90 -15 -90 26 0 20 28 45 50 45 10 0 26 -7 34 -16z m604 -51 c5 -17 -26 -29 -40 -15 -6 6 -7 15 -3 22 9 14 37 9 43 -7z m-2018 -140 c-40 -76 -77 -142 -83 -148 -5 -5 17 42 50 105 33 63 68 130 77 148 9 17 19 32 22 32 3 0 -27 -62 -66 -137z m2450 2 c36 -18 60 -52 60 -83 0 -35 -25 -77 -55 -90 -109 -50 -195 86 -103 163 34 29 57 31 98 10z m-759 -95 c34 -19 18 -100 -19 -100 -28 0 -62 29 -62 52 0 25 27 58 47 58 8 0 23 -5 34 -10z m349 -110 c11 -11 20 -29 20 -40 0 -26 -34 -60 -60 -60 -26 0 -60 34 -60 60 0 11 9 29 20 40 11 11 29 20 40 20 11 0 29 -9 40 -20z m-699 -69 c21 -22 29 -39 29 -66 0 -42 -44 -95 -80 -95 -29 0 -77 26 -90 49 -31 59 15 141 80 141 22 0 41 -9 61 -29z m1165 -220 c32 -20 64 -74 64 -111 0 -63 -61 -120 -130 -120 -99 0 -163 105 -111 184 42 64 117 84 177 47z m-978 -137 c2 -11 -4 -26 -12 -33 -31 -26 -71 14 -45 45 17 21 53 14 57 -12z m535 -18 c18 -7 45 -28 62 -45 24 -26 30 -41 33 -95 4 -60 2 -65 -29 -101 -77 -88 -184 -85 -252 6 -30 41 -33 107 -8 156 40 80 118 112 194 79z m597 -126 c0 -6 -27 -31 -60 -57 l-60 -46 0 -183 c0 -111 -4 -185 -10 -189 -7 -4 -10 61 -10 188 l0 195 68 51 c75 56 72 55 72 41z m-3794 -15 c28 -8 72 -29 98 -46 43 -29 51 -31 70 -19 86 55 111 64 176 63 149 -1 248 -96 258 -248 3 -62 1 -76 -25 -125 -32 -62 -96 -112 -166 -131 -44 -12 -136 -6 -167 11 -14 8 -20 4 -30 -20 -17 -41 -121 -137 -177 -163 -39 -18 -66 -22 -148 -22 -91 0 -105 3 -158 30 -76 38 -149 118 -177 193 -30 78 -25 225 9 290 25 49 80 113 123 143 77 55 213 74 314 44z m2635 -102 c6 -17 10 -119 9 -256 -1 -199 1 -228 15 -233 14 -6 238 30 273 44 10 3 12 14 8 35 l-6 29 93 -6 c50 -4 230 -9 398 -11 168 -2 322 -7 342 -10 36 -7 36 -8 32 -49 -3 -22 -12 -122 -20 -221 -37 -443 -76 -709 -115 -785 l-19 -38 44 -11 c45 -11 75 -33 75 -55 0 -7 -16 -39 -36 -72 -75 -123 -75 -124 -85 -303 -15 -255 -55 -381 -141 -438 -92 -61 -310 -71 -423 -19 -71 32 -136 84 -165 132 l-23 36 23 30 22 30 -33 35 c-32 32 -34 38 -30 91 9 117 4 156 -28 235 -17 43 -31 92 -31 109 0 44 55 215 86 268 70 119 74 131 73 257 -1 136 -13 340 -20 348 -5 4 -300 -43 -307 -50 -1 -1 -3 -549 -5 -1218 -1 -668 -5 -1219 -9 -1223 -5 -4 -11 -4 -15 0 -5 4 -9 552 -10 1218 -1 666 -3 1211 -5 1213 -2 2 -64 -8 -138 -21 -74 -14 -152 -23 -172 -22 -25 2 -38 -1 -38 -9 0 -11 -77 -31 -183 -48 -58 -9 -38 9 43 40 39 15 70 31 70 37 0 16 -109 2 -169 -22 -65 -25 -92 -25 -125 1 -36 29 -56 70 -56 119 0 53 19 89 71 134 52 44 119 70 219 85 95 14 474 83 478 86 2 2 3 123 2 269 -1 263 5 307 31 239z m948 -138 c56 -29 64 -103 16 -151 -73 -72 -198 38 -138 122 14 19 57 44 76 44 10 0 31 -7 46 -15z m-2649 -730 l0 -315 115 0 115 0 0 -400 0 -400 -290 0 -290 0 0 265 0 265 -150 0 -150 0 0 450 0 450 325 0 325 0 0 -315z m1084 -478 c40 -27 78 -101 79 -155 1 -106 -77 -182 -187 -182 -85 0 -138 35 -171 112 -29 71 -9 153 52 211 49 46 167 53 227 14z m-2160 -25 c-104 -90 -257 -212 -261 -208 -10 9 256 235 277 235 9 0 3 -10 -16 -27z m56 -40 c31 -25 21 -69 -17 -78 -51 -13 -82 38 -47 77 21 24 36 24 64 1z m-72 -366 c32 -46 54 -109 98 -270 26 -97 34 -140 26 -148 -30 -30 -55 27 -102 227 -11 50 -29 117 -40 150 -11 33 -20 63 -20 68 0 16 16 5 38 -27z m-703 -206 c4 -6 -7 -10 -25 -10 -17 0 -45 -7 -62 -16 -23 -12 -29 -13 -26 -2 8 25 101 48 113 28z m67 -87 c10 -9 18 -22 18 -30 0 -19 -40 -96 -46 -90 -3 3 4 24 16 47 l21 42 -22 24 c-25 27 -15 33 13 7z m3158 -533 l0 -530 -450 0 -450 0 0 530 0 530 450 0 450 0 0 -530z m-3226 429 c-3 -5 -10 -7 -15 -3 -5 3 -7 10 -3 15 3 5 10 7 15 3 5 -3 7 -10 3 -15z m-394 -9 c0 -14 -39 -90 -45 -90 -3 0 2 16 10 36 19 46 19 44 -10 44 -14 0 -25 5 -25 10 0 6 16 10 35 10 19 0 35 -5 35 -10z m-143 -37 c-4 -3 -7 0 -7 7 0 7 3 10 7 7 3 -4 3 -10 0 -14z m120 -89 c-3 -3 -12 -4 -19 -1 -8 3 -5 6 6 6 11 1 17 -2 13 -5z m400 -11 c-4 -3 -10 -3 -14 0 -3 4 0 7 7 7 7 0 10 -3 7 -7z m743 -212 c63 -24 94 -49 80 -66 -11 -13 -24 -93 -24 -145 1 -71 20 -145 48 -185 28 -41 31 -45 65 -85 l29 -36 -38 -51 c-52 -67 -144 -128 -217 -143 -119 -25 -249 10 -338 91 -93 86 -135 210 -114 341 37 228 285 364 509 279z m-1852 -378 c-21 -2 -55 -2 -75 0 -21 2 -4 4 37 4 41 0 58 -2 38 -4z m5439 -104 l28 -11 -25 -9 c-30 -12 -116 -7 -113 6 4 22 69 30 110 14z m-4710 -56 c-4 -3 -7 0 -7 7 0 7 3 10 7 7 3 -4 3 -10 0 -14z m4769 5 c16 -16 -11 -23 -103 -26 -94 -4 -123 4 -108 28 8 13 198 11 211 -2z m22 -60 c3 -13 -3 -18 -21 -18 l-24 0 23 -122 c13 -68 23 -127 21 -131 -1 -5 -15 2 -31 14 l-29 23 -15 -22 c-14 -21 -16 -22 -34 -6 -17 16 -19 16 -34 -2 -8 -10 -17 -14 -20 -9 -17 38 -23 40 -48 15 -32 -29 -32 -27 -2 117 13 62 21 115 18 118 -3 3 -15 5 -26 5 -12 0 -28 5 -36 10 -30 20 10 27 133 26 107 -1 122 -3 125 -18z m-4791 -305 c-4 -3 -7 0 -7 7 0 7 3 10 7 7 3 -4 3 -10 0 -14z m-290 -160 c-4 -3 -10 -3 -14 0 -3 4 0 7 7 7 7 0 10 -3 7 -7z"/>
<path d="M2884 3056 c-9 -24 4 -48 23 -44 12 2 18 12 18 28 0 29 -32 41 -41 16z"/>
<path d="M6380 1336 c0 -3 -6 -35 -14 -73 -28 -138 -29 -148 -13 -135 11 9 18 8 33 -9 18 -19 19 -20 32 -2 13 17 14 17 32 -5 l19 -22 6 21 c6 17 12 20 37 15 l29 -6 -6 43 c-4 23 -12 71 -18 107 l-12 65 -63 3 c-34 2 -62 1 -62 -2z"/>
</g>
<g id="layer107" fill="#cdb3aa" stroke="none">
<path d="M0 4000 l0 -4000 4000 0 4000 0 0 4000 0 4000 -4000 0 -4000 0 0 -4000z m5306 3653 c43 -15 120 -18 676 -23 706 -6 656 1 665 -84 l6 -46 -459 -1 -459 0 149 -75 c81 -41 146 -77 143 -80 -2 -3 -26 5 -51 18 -46 22 -47 22 -97 4 -28 -9 -53 -15 -56 -12 -3 2 13 10 36 17 23 7 41 16 41 20 0 5 -45 31 -100 59 -100 50 -100 50 -199 50 -137 0 -144 -16 -31 -80 64 -37 58 -35 -68 15 -51 21 -96 35 -99 32 -3 -4 34 -52 83 -108 149 -170 156 -179 146 -179 -5 0 -15 7 -22 15 -8 10 -33 16 -74 17 l-61 1 57 6 57 6 -35 43 c-34 41 -38 42 -97 44 l-62 1 53 6 54 6 -64 72 c-80 91 -96 104 -192 144 -49 21 -81 40 -84 51 -4 17 -23 18 -278 18 l-275 0 22 -29 c19 -26 22 -45 26 -222 6 -185 7 -195 29 -222 29 -34 30 -57 5 -88 -21 -26 -94 -38 -248 -38 l-93 -1 0 -233 0 -234 26 -24 c14 -13 39 -42 56 -64 19 -25 9 -18 -26 20 l-56 60 0 -648 0 -649 102 -180 c55 -99 106 -182 112 -184 6 -2 185 -3 398 -2 l388 3 -96 120 c-136 169 -182 237 -200 289 -15 42 -15 53 1 124 18 81 180 716 289 1132 53 202 62 246 50 255 -15 11 -9 45 28 168 17 56 24 67 41 67 18 0 161 -35 230 -56 37 -12 15 25 -40 66 -32 23 -73 62 -91 85 -30 40 -36 43 -70 39 -27 -3 -32 -2 -17 5 20 9 -4 14 -105 24 -30 3 -28 4 10 5 103 4 157 -13 241 -77 51 -38 93 -62 117 -66 30 -5 105 -28 170 -52 8 -4 12 9 12 46 l0 51 63 0 c39 1 69 6 81 15 13 10 44 15 91 15 79 0 89 4 75 30 -6 12 -32 22 -74 30 -37 7 -85 25 -111 41 l-46 29 -53 -30 c-60 -34 -171 -59 -188 -42 -14 14 17 29 135 63 l101 29 92 -25 c87 -24 96 -25 187 -14 109 14 202 3 281 -31 45 -19 46 -20 46 -65 l0 -45 60 0 60 0 0 -118 c0 -88 -4 -123 -15 -138 -12 -16 -14 -126 -15 -770 l0 -752 34 -143 c76 -318 95 -471 103 -811 l6 -278 -64 -1 -64 -1 59 -9 c32 -5 60 -10 61 -11 4 -4 -40 -500 -60 -668 -20 -181 -50 -331 -75 -380 l-19 -38 44 -11 c45 -11 75 -33 75 -55 0 -7 -16 -39 -36 -72 -75 -123 -75 -124 -85 -303 -15 -255 -55 -381 -141 -438 -92 -61 -310 -71 -423 -19 -71 32 -136 84 -165 132 l-23 36 23 30 22 30 -33 35 c-32 32 -34 38 -30 91 9 117 4 156 -28 235 -17 43 -31 92 -31 109 0 44 55 215 86 268 70 119 74 131 73 257 -1 136 -13 340 -20 348 -5 4 -300 -43 -307 -50 -1 -1 -3 -549 -5 -1218 -1 -668 -5 -1219 -9 -1223 -5 -4 -11 -4 -15 0 -5 4 -9 552 -10 1218 -1 666 -3 1211 -5 1213 -2 2 -64 -8 -138 -21 -74 -14 -152 -23 -172 -22 -25 2 -38 -1 -38 -9 0 -11 -77 -31 -183 -48 -58 -9 -38 9 43 40 39 15 70 31 70 37 0 16 -109 2 -169 -22 -65 -25 -92 -25 -125 1 -36 29 -56 70 -56 119 0 53 19 89 71 134 52 44 119 70 219 85 95 14 474 83 478 86 2 2 3 125 2 275 l-1 272 -126 159 -126 159 -398 0 c-220 0 -399 -2 -399 -5 0 -4 7 -19 15 -35 21 -41 11 -38 -14 5 -20 35 -21 35 -91 35 -38 0 -70 4 -70 9 0 12 36 21 83 21 20 0 37 3 37 6 0 3 -42 80 -92 171 l-93 166 -6 -94 c-3 -52 -7 -92 -9 -89 -2 3 -6 151 -9 330 l-6 325 -43 -82 c-23 -46 -45 -83 -48 -83 -3 0 18 44 46 98 l51 97 -3 212 -3 211 -109 -80 c-59 -44 -105 -75 -102 -69 4 5 54 45 111 87 l105 77 0 428 0 429 -152 1 c-221 1 -328 12 -345 34 -21 29 -16 69 12 95 21 20 25 32 25 85 0 34 3 124 7 201 6 126 8 140 29 161 l23 23 -567 -1 -567 0 426 -144 c234 -78 440 -150 457 -159 34 -18 45 -44 40 -97 -4 -40 -10 -41 -134 -3 -80 24 -83 24 -183 9 -55 -8 -104 -15 -108 -15 -5 -1 17 -24 47 -52 52 -48 44 -44 -47 21 -28 21 -38 23 -89 16 l-59 -7 26 -22 c14 -11 41 -33 60 -49 18 -15 3 -7 -34 18 -38 25 -78 45 -89 45 -51 0 -1 11 154 35 92 14 172 25 177 25 6 0 11 4 11 9 0 8 -608 215 -655 223 -14 2 -25 -8 -42 -44 -30 -63 -93 -124 -139 -137 -21 -6 -40 -8 -42 -6 -5 5 8 10 50 19 14 3 41 20 58 37 35 35 84 125 75 139 -3 4 -35 18 -71 30 -70 24 -73 29 -49 93 7 16 -12 17 -314 17 -291 0 -355 -5 -306 -24 18 -6 45 -65 45 -96 0 -19 -6 -20 -106 -20 -104 0 -107 -1 -182 -40 -105 -55 -121 -68 -102 -80 11 -7 6 -8 -16 -4 -30 6 -104 -22 -118 -44 -3 -5 22 -17 54 -27 33 -10 58 -20 56 -23 -3 -2 -28 4 -56 13 -33 11 -67 15 -92 12 l-41 -5 29 17 c16 10 91 50 166 90 76 39 140 77 144 83 5 7 -40 8 -147 4 -85 -3 -247 -9 -361 -12 l-207 -6 -5 -27 c-2 -14 -8 -44 -11 -66 -9 -55 -39 -110 -74 -134 -45 -32 -46 -25 -2 14 44 40 71 105 71 171 l0 43 -77 3 -78 3 2 44 c1 25 9 51 17 59 16 16 119 23 601 41 221 8 211 8 -255 11 -391 3 -450 5 -305 11 99 3 1082 7 2185 8 1945 1 2006 2 2045 20 51 24 52 24 111 4z m832 -246 c2 -10 -3 -17 -12 -17 -18 0 -29 16 -21 31 9 14 29 6 33 -14z m120 0 c2 -12 -3 -17 -17 -17 -12 0 -21 6 -21 13 0 31 32 34 38 4z m-4929 -54 c-15 -18 -34 -1 -25 22 5 14 9 15 21 5 12 -10 13 -16 4 -27z m121 17 c0 -11 -7 -20 -15 -20 -8 0 -15 9 -15 20 0 11 7 20 15 20 8 0 15 -9 15 -20z m4210 10 c8 -5 11 -10 5 -10 -5 0 -17 5 -25 10 -8 5 -10 10 -5 10 6 0 17 -5 25 -10z m147 -37 c-4 -3 -10 -3 -14 0 -3 4 0 7 7 7 7 0 10 -3 7 -7z m-4057 -18 c19 -7 28 -13 20 -13 -8 0 -31 6 -50 13 -19 7 -28 13 -20 13 8 0 31 -6 50 -13z m4330 -6 c19 -11 26 -17 15 -13 -11 3 -27 8 -35 11 -8 2 -44 -5 -80 -16 -35 -11 -65 -19 -67 -17 -2 2 114 52 127 54 3 1 21 -8 40 -19z m-3092 -12 c2 -10 -3 -17 -12 -17 -10 0 -16 9 -16 21 0 24 23 21 28 -4z m112 -30 c0 -8 -3 -17 -7 -20 -9 -9 -34 13 -27 24 8 14 34 11 34 -4z m2618 -20 c2 -10 -3 -17 -12 -17 -18 0 -29 16 -21 31 9 14 29 6 33 -14z m-4040 -42 c51 -14 102 -30 113 -35 24 -13 16 -30 -14 -29 -21 0 -21 1 -2 8 16 7 12 10 -25 24 -54 19 -119 37 -139 37 -11 0 -9 -4 5 -16 10 -9 2 -6 -20 6 -38 21 -39 21 -60 2 -30 -28 -76 -49 -121 -57 -30 -4 -22 0 28 18 79 28 114 54 57 42 -19 -4 -64 -19 -99 -33 -52 -20 -61 -27 -45 -33 15 -6 11 -8 -14 -8 -62 -2 -28 23 84 61 60 20 120 37 134 38 14 0 67 -11 118 -25z m3642 -19 c0 -8 6 -17 13 -20 6 -3 -1 -3 -18 0 -38 7 -43 13 -25 24 21 14 30 12 30 -4z m-3620 -21 c52 -14 53 -15 11 -10 -24 3 -51 10 -60 15 -21 12 -16 12 49 -5z m3693 -12 c-7 -2 -21 -2 -30 0 -10 3 -4 5 12 5 17 0 24 -2 18 -5z m-2868 -33 c159 -48 613 -202 630 -214 17 -12 17 -15 0 -72 -29 -100 -55 -153 -77 -156 -12 -2 -25 -10 -30 -18 -16 -24 -586 -1784 -581 -1792 2 -5 365 -8 807 -8 753 0 995 -5 980 -19 -3 -3 -411 -8 -907 -11 l-901 -5 -123 -385 c-133 -419 -142 -450 -123 -450 10 0 12 -24 7 -105 -3 -57 -10 -113 -16 -123 -9 -18 -8 -18 47 -4 79 20 126 6 187 -56 50 -49 195 -220 433 -509 l141 -172 -62 -54 c-34 -29 -98 -83 -143 -119 l-81 -67 -213 259 c-117 143 -216 258 -219 255 -10 -6 -121 -161 -121 -169 0 -4 -10 -17 -23 -29 -13 -12 -15 -16 -5 -8 10 8 18 9 18 4 0 -31 -52 -210 -79 -271 -27 -60 -29 -74 -20 -101 14 -41 5 -63 -23 -59 -15 2 -24 11 -26 26 -4 28 -16 28 -40 -2 -12 -16 -47 -33 -103 -50 -95 -30 -210 -55 -221 -49 -4 2 -13 22 -20 45 -9 31 -25 50 -67 81 -87 63 -458 363 -538 434 -85 75 -123 142 -123 216 0 26 14 102 30 168 31 121 153 573 185 683 l17 58 37 -6 c20 -4 54 -10 75 -13 l39 -6 -7 52 c-10 75 -25 342 -26 444 l0 87 -142 0 c-79 0 -149 4 -156 9 -20 12 61 21 193 21 l112 0 7 103 c7 116 9 108 -138 877 -104 547 -139 709 -164 780 -23 63 -49 206 -39 216 13 13 718 147 750 142 19 -3 25 -15 39 -78 9 -41 17 -94 17 -117 1 -37 -2 -43 -24 -49 -14 -3 -25 -8 -25 -11 0 -7 195 -1028 218 -1138 10 -49 21 -85 25 -79 17 28 320 946 439 1332 6 19 7 48 4 65 -9 47 60 250 82 243 10 -3 49 -15 87 -26z m648 -22 c41 -21 197 -140 197 -149 0 -30 -104 25 -166 88 -49 50 -54 53 -81 42 -37 -15 -160 -14 -198 1 -28 11 -28 13 -10 20 31 13 233 12 258 -2z m1266 -1112 c40 -65 70 -120 68 -122 -3 -3 -138 219 -146 240 -8 23 9 -3 78 -118z m-279 -623 c-40 -76 -77 -142 -83 -148 -5 -5 17 42 50 105 33 63 68 130 77 148 9 17 19 32 22 32 3 0 -27 -62 -66 -137z m-1134 -788 c28 -8 72 -29 98 -46 43 -29 51 -31 70 -19 86 55 111 64 176 63 149 -1 248 -96 258 -248 3 -62 1 -76 -25 -125 -32 -62 -96 -112 -166 -131 -44 -12 -136 -6 -167 11 -14 8 -20 4 -30 -20 -17 -41 -121 -137 -177 -163 -39 -18 -66 -22 -148 -22 -91 0 -105 3 -158 30 -76 38 -149 118 -177 193 -30 78 -25 225 9 290 25 49 80 113 123 143 77 55 213 74 314 44z m934 -970 l0 -315 115 0 115 0 0 -400 0 -400 -290 0 -290 0 0 265 0 265 -150 0 -150 0 0 450 0 450 325 0 325 0 0 -315z m1084 -478 c40 -27 78 -101 79 -155 1 -106 -77 -182 -187 -182 -85 0 -138 35 -171 112 -29 71 -9 153 52 211 49 46 167 53 227 14z m-2176 -431 c31 -45 55 -111 93 -253 35 -132 46 -158 83 -192 14 -13 28 -36 31 -52 6 -26 -9 -136 -20 -147 -7 -7 -46 30 -96 89 l-39 47 19 41 c18 41 18 42 -4 109 -12 37 -32 112 -45 167 -12 55 -31 124 -41 153 -11 30 -19 58 -19 63 0 18 16 8 38 -25z m-703 -206 c4 -6 -7 -10 -25 -10 -17 0 -45 -7 -62 -16 -23 -12 -29 -13 -26 -2 8 25 101 48 113 28z m67 -87 c10 -9 18 -22 18 -30 0 -19 -40 -96 -46 -90 -3 3 4 24 16 47 l21 42 -22 24 c-25 27 -15 33 13 7z m3158 -533 l0 -530 -450 0 -450 0 0 530 0 530 450 0 450 0 0 -530z m-3710 504 c0 -3 -11 -19 -25 -36 -14 -16 -25 -37 -26 -46 -5 -74 35 -122 102 -122 33 0 47 6 70 31 24 26 29 40 29 80 0 27 4 49 9 49 21 0 71 -54 79 -83 8 -30 12 -32 64 -38 31 -3 73 -16 93 -28 21 -12 53 -21 77 -21 84 0 140 -50 142 -127 1 -35 -5 -48 -33 -77 -20 -20 -50 -38 -75 -45 -23 -5 -53 -22 -66 -37 -90 -96 -243 -81 -318 30 -19 27 -31 35 -68 40 -68 9 -99 36 -123 108 -12 34 -21 80 -21 103 0 28 -8 52 -25 75 -14 19 -25 43 -25 54 1 30 24 67 51 82 24 13 89 19 89 8z m484 -75 c-3 -5 -10 -7 -15 -3 -5 3 -7 10 -3 15 3 5 10 7 15 3 5 -3 7 -10 3 -15z m-394 -9 c0 -14 -39 -90 -45 -90 -3 0 2 16 10 36 19 46 19 44 -10 44 -14 0 -25 5 -25 10 0 6 16 10 35 10 19 0 35 -5 35 -10z m1706 -201 c71 -27 162 -110 197 -182 93 -190 14 -422 -176 -517 -55 -27 -69 -30 -161 -30 -92 0 -107 3 -166 31 -36 17 -81 45 -100 62 -35 32 -35 32 -8 2 l27 -30 -39 -51 c-52 -68 -144 -129 -217 -144 -214 -45 -423 98 -453 309 -18 131 22 244 117 331 115 106 282 126 432 53 44 -21 55 -23 62 -12 100 178 295 249 485 178z m-1745 -477 l-40 -80 21 -18 c49 -44 58 -86 58 -279 0 -197 -8 -245 -48 -288 -60 -64 -43 -62 -538 -61 l-450 0 -45 26 c-27 16 -54 43 -69 70 -24 42 -25 49 -25 238 1 176 3 199 22 241 34 75 70 91 227 100 72 4 275 8 452 8 l321 1 74 64 c41 35 75 63 77 61 2 -2 -15 -39 -37 -83z m4746 -153 l28 -11 -25 -9 c-30 -12 -116 -7 -113 6 4 22 69 30 110 14z m59 -51 c16 -16 -11 -23 -103 -26 -94 -4 -123 4 -108 28 8 13 198 11 211 -2z m22 -103 c3 -54 7 -63 47 -106 160 -171 7 -436 -224 -388 -48 9 -64 19 -108 64 -43 44 -53 62 -63 111 -18 86 -1 151 56 215 35 40 44 57 44 87 0 21 -6 44 -12 50 -23 23 9 29 135 28 l122 -1 3 -60z"/>
<path d="M5456 7601 c15 -15 57 -17 61 -3 3 8 -7 12 -33 12 -23 0 -34 -4 -28 -9z"/>
<path d="M5905 7244 c-57 -18 -93 -44 -60 -44 25 0 100 34 109 49 4 6 6 11 4 10 -2 0 -25 -7 -53 -15z"/>
<path d="M6050 7244 c0 -10 85 -42 130 -48 64 -10 40 8 -46 33 -77 23 -84 24 -84 15z"/>
<path d="M5773 7193 c4 -3 10 -3 14 0 3 4 0 7 -7 7 -7 0 -10 -3 -7 -7z"/>
<path d="M5569 7132 c12 -23 83 -83 121 -102 22 -11 21 -8 -9 23 -18 19 -53 50 -78 67 -36 27 -43 29 -34 12z"/>
<path d="M5912 5933 c-28 -104 -68 -250 -88 -326 l-35 -139 42 -56 c24 -31 65 -83 91 -115 l48 -58 0 440 c0 243 -1 441 -3 441 -2 0 -26 -84 -55 -187z"/>
<path d="M5670 4225 c0 -195 2 -226 16 -232 13 -5 237 32 272 44 16 7 15 32 -6 70 -23 43 -262 343 -273 343 -5 0 -9 -99 -9 -225z"/>
<path d="M6403 4083 c20 -2 54 -2 75 0 20 2 3 4 -38 4 -41 0 -58 -2 -37 -4z"/>
<path d="M6553 4083 c15 -2 39 -2 55 0 15 2 2 4 -28 4 -30 0 -43 -2 -27 -4z"/>
<path d="M5221 3874 c0 -11 3 -14 6 -6 3 7 2 16 -1 19 -3 4 -6 -2 -5 -13z"/>
<path d="M5973 3835 c0 -22 2 -30 4 -17 2 12 2 30 0 40 -3 9 -5 -1 -4 -23z"/>
<path d="M5231 3824 c0 -11 3 -14 6 -6 3 7 2 16 -1 19 -3 4 -6 -2 -5 -13z"/>
<path d="M5374 3818 c-4 -7 -3 -8 4 -4 7 4 12 9 12 12 0 8 -9 4 -16 -8z"/>
<path d="M6130 3800 c0 -7 3 -10 7 -7 3 4 3 10 0 14 -4 3 -7 0 -7 -7z"/>
<path d="M6725 3790 c3 -5 8 -10 11 -10 2 0 4 5 4 10 0 6 -5 10 -11 10 -5 0 -7 -4 -4 -10z"/>
<path d="M5240 3770 c0 -7 3 -10 7 -7 3 4 3 10 0 14 -4 3 -7 0 -7 -7z"/>
<path d="M5394 3708 c-4 -7 -3 -8 4 -4 7 4 12 9 12 12 0 8 -9 4 -16 -8z"/>
<path d="M6140 3700 c0 -7 3 -10 7 -7 3 4 3 10 0 14 -4 3 -7 0 -7 -7z"/>
<path d="M5261 3654 c0 -11 3 -14 6 -6 3 7 2 16 -1 19 -3 4 -6 -2 -5 -13z"/>
<path d="M6150 3610 c0 -7 3 -10 7 -7 3 4 3 10 0 14 -4 3 -7 0 -7 -7z"/>
<path d="M5420 3590 c0 -7 3 -10 7 -7 3 4 3 10 0 14 -4 3 -7 0 -7 -7z"/>
<path d="M6030 3240 c0 -7 3 -10 7 -7 3 4 3 10 0 14 -4 3 -7 0 -7 -7z"/>
<path d="M6618 2983 c7 -3 16 -2 19 1 4 3 -2 6 -13 5 -11 0 -14 -3 -6 -6z"/>
<path d="M6183 2863 c4 -3 10 -3 14 0 3 4 0 7 -7 7 -7 0 -10 -3 -7 -7z"/>
<path d="M2755 6639 c-4 -6 -12 -60 -18 -120 -9 -94 -8 -112 5 -125 13 -13 16 -13 26 -1 14 17 38 217 29 241 -7 18 -32 21 -42 5z"/>
<path d="M1453 6564 c-7 -19 6 -60 53 -161 25 -56 37 -73 53 -73 28 0 27 16 -9 108 -48 124 -81 167 -97 126z"/>
<path d="M2616 6151 c-10 -15 -26 -143 -26 -203 0 -44 3 -58 15 -58 26 0 38 42 43 157 4 98 3 113 -11 113 -9 0 -18 -4 -21 -9z"/>
<path d="M1565 6038 c8 -36 61 -160 83 -195 15 -23 37 -30 46 -14 8 12 -24 102 -63 179 -23 46 -37 62 -52 62 -18 0 -20 -4 -14 -32z"/>
<path d="M2115 5849 c-11 -16 -29 -224 -22 -243 9 -22 24 -20 37 5 15 26 31 183 23 220 -5 29 -26 39 -38 18z"/>
<path d="M2355 5640 c-12 -19 22 -47 115 -95 100 -51 123 -56 118 -24 -2 16 -28 36 -88 70 -94 53 -134 67 -145 49z"/>
<path d="M1270 5555 c0 -22 56 -164 80 -202 24 -40 50 -44 50 -7 0 29 -64 180 -87 207 -20 21 -43 22 -43 2z"/>
<path d="M1590 5495 c-21 -25 3 -39 75 -43 90 -6 175 6 182 25 10 26 -18 33 -133 33 -88 0 -114 -3 -124 -15z"/>
<path d="M2190 5250 c0 -21 59 -64 159 -114 47 -24 55 -26 68 -13 13 13 11 18 -19 40 -53 41 -171 107 -190 107 -11 0 -18 -8 -18 -20z"/>
<path d="M1643 5090 c-26 -11 -29 -20 -11 -38 13 -13 212 -17 242 -6 21 8 20 31 -1 38 -38 10 -209 15 -230 6z"/>
<path d="M2210 5035 c-6 -15 -14 -74 -18 -132 -6 -87 -5 -106 7 -111 23 -9 39 26 46 101 8 92 3 159 -12 165 -7 2 -17 -8 -23 -23z"/>
<path d="M1745 4909 c-10 -15 2 -54 47 -151 30 -64 46 -88 59 -88 27 0 24 27 -11 119 -41 106 -77 151 -95 120z"/>
<path d="M1350 4750 c0 -16 46 -132 74 -188 26 -50 51 -66 62 -38 6 15 -46 155 -76 204 -18 30 -60 46 -60 22z"/>
<path d="M1912 4445 c-16 -20 -46 -69 -68 -110 -32 -61 -37 -76 -26 -87 11 -11 19 -6 47 25 43 49 108 174 101 193 -8 22 -22 17 -54 -21z"/>
<path d="M2013 3993 c15 -2 39 -2 55 0 15 2 2 4 -28 4 -30 0 -43 -2 -27 -4z"/>
<path d="M1658 3983 c18 -2 45 -2 60 0 15 2 0 4 -33 4 -33 0 -45 -2 -27 -4z"/>
<path d="M1352 3880 c0 -14 2 -19 5 -12 2 6 2 18 0 25 -3 6 -5 1 -5 -13z"/>
<path d="M1350 3830 c0 -7 3 -10 7 -7 3 4 3 10 0 14 -4 3 -7 0 -7 -7z"/>
<path d="M1355 3744 c-4 -16 -22 -90 -41 -164 -20 -74 -33 -143 -30 -155 3 -11 33 -44 67 -74 l61 -54 -6 54 c-3 30 -13 135 -22 234 -9 99 -18 182 -20 184 -1 2 -6 -10 -9 -25z"/>
<path d="M2109 3703 l-24 -28 28 24 c25 23 32 31 24 31 -2 0 -14 -12 -28 -27z"/>
<path d="M2068 3653 c-18 -21 -31 -43 -25 -43 2 0 13 14 25 30 25 33 24 41 0 13z"/>
<path d="M1989 3543 c-13 -16 -12 -17 4 -4 16 13 21 21 13 21 -2 0 -10 -8 -17 -17z"/>
<path d="M1959 3503 c-13 -16 -12 -17 4 -4 9 7 17 15 17 17 0 8 -8 3 -21 -13z"/>
<path d="M1934 3468 c-4 -7 -3 -8 4 -4 12 7 16 16 8 16 -3 0 -8 -5 -12 -12z"/>
<path d="M1879 3393 c-29 -35 -41 -53 -36 -53 2 0 17 16 31 35 28 36 31 49 5 18z"/>
<path d="M1819 3313 c-13 -16 -12 -17 4 -4 9 7 17 15 17 17 0 8 -8 3 -21 -13z"/>
<path d="M1794 3278 c-4 -7 -3 -8 4 -4 12 7 16 16 8 16 -3 0 -8 -5 -12 -12z"/>
<path d="M1412 3200 c0 -19 2 -27 5 -17 2 9 2 25 0 35 -3 9 -5 1 -5 -18z"/>
<path d="M1734 3198 c-4 -7 -3 -8 4 -4 12 7 16 16 8 16 -3 0 -8 -5 -12 -12z"/>
<path d="M1709 3163 c-13 -16 -12 -17 4 -4 16 13 21 21 13 21 -2 0 -10 -8 -17 -17z"/>
<path d="M1684 3128 c-4 -7 -3 -8 4 -4 7 4 12 9 12 12 0 8 -9 4 -16 -8z"/>
<path d="M1421 3104 c0 -11 3 -14 6 -6 3 7 2 16 -1 19 -3 4 -6 -2 -5 -13z"/>
<path d="M1640 3050 c0 -7 3 -10 7 -7 3 4 3 10 0 14 -4 3 -7 0 -7 -7z"/>
<path d="M1440 3020 c0 -7 3 -10 7 -7 3 4 3 10 0 14 -4 3 -7 0 -7 -7z"/>
<path d="M2064 3018 c-4 -7 -3 -8 4 -4 7 4 12 9 12 12 0 8 -9 4 -16 -8z"/>
<path d="M2039 2983 c-13 -16 -12 -17 4 -4 9 7 17 15 17 17 0 8 -8 3 -21 -13z"/>
<path d="M1640 2960 c0 -7 3 -10 7 -7 3 4 3 10 0 14 -4 3 -7 0 -7 -7z"/>
<path d="M2009 2943 c-13 -16 -12 -17 4 -4 9 7 17 15 17 17 0 8 -8 3 -21 -13z"/>
<path d="M1650 2931 c0 -6 4 -13 10 -16 6 -3 7 1 4 9 -7 18 -14 21 -14 7z"/>
<path d="M1974 2898 c-4 -7 -3 -8 4 -4 7 4 12 9 12 12 0 8 -9 4 -16 -8z"/>
<path d="M1685 2880 c10 -11 20 -20 23 -20 3 0 -3 9 -13 20 -10 11 -20 20 -23 20 -3 0 3 -9 13 -20z"/>
<path d="M1924 2848 c-4 -7 -3 -8 4 -4 7 4 12 9 12 12 0 8 -9 4 -16 -8z"/>
<path d="M1873 2823 c4 -3 10 -3 14 0 3 4 0 7 -7 7 -7 0 -10 -3 -7 -7z"/>
<path d="M1818 2813 c6 -2 18 -2 25 0 6 3 1 5 -13 5 -14 0 -19 -2 -12 -5z"/>
<path d="M1555 2800 c3 -5 8 -10 11 -10 3 0 2 5 -1 10 -3 6 -8 10 -11 10 -3 0 -2 -4 1 -10z"/>
<path d="M2945 7100 c3 -5 39 -10 80 -10 41 0 77 5 80 10 4 6 -25 10 -80 10 -55 0 -84 -4 -80 -10z"/>
<path d="M3200 7063 c0 -12 61 -58 110 -83 60 -31 37 -3 -42 51 -58 40 -68 44 -68 32z"/>
<path d="M3110 4300 c0 -7 3 -10 7 -7 3 4 3 10 0 14 -4 3 -7 0 -7 -7z"/>
<path d="M3185 4140 c3 -5 8 -10 11 -10 3 0 2 5 -1 10 -3 6 -8 10 -11 10 -3 0 -2 -4 1 -10z"/>
<path d="M2960 1870 c0 -7 3 -10 7 -7 3 4 3 10 0 14 -4 3 -7 0 -7 -7z"/>
<path d="M2950 1830 c0 -7 3 -10 7 -7 3 4 3 10 0 14 -4 3 -7 0 -7 -7z"/>
<path d="M2942 1740 c0 -19 2 -27 5 -17 2 9 2 25 0 35 -3 9 -5 1 -5 -18z"/>
<path d="M2950 1660 c0 -7 3 -10 7 -7 3 4 3 10 0 14 -4 3 -7 0 -7 -7z"/>
<path d="M2971 1594 c0 -11 3 -14 6 -6 3 7 2 16 -1 19 -3 4 -6 -2 -5 -13z"/>
</g>
<g id="layer108" fill="#fffefd" stroke="none">
<path d="M0 4000 l0 -4000 4000 0 4000 0 0 4000 0 4000 -4000 0 -4000 0 0 -4000z m5321 3653 c39 -15 111 -18 667 -23 l624 -5 19 -24 c12 -15 19 -39 19 -67 l0 -44 -442 -2 -443 -3 178 -88 c97 -48 177 -93 177 -98 0 -7 -7 -8 -17 -4 -40 18 -83 16 -141 -5 -88 -32 -100 -19 -13 15 l73 29 -47 23 -47 24 -78 -30 -79 -30 -172 70 c-94 38 -176 68 -180 67 -5 -2 47 -68 116 -148 115 -133 160 -197 101 -141 -27 25 -80 40 -141 41 -22 0 -47 5 -55 10 -10 7 9 10 64 10 l80 0 -29 30 c-34 35 -79 50 -152 50 -29 0 -53 5 -53 10 0 6 24 10 53 10 82 0 83 7 12 86 -56 62 -76 76 -159 114 -70 32 -96 48 -96 62 0 17 -16 18 -269 18 l-269 0 19 -37 c17 -32 19 -60 19 -216 0 -176 0 -180 25 -209 27 -32 32 -74 12 -102 -19 -26 -78 -35 -219 -36 l-128 0 0 -230 0 -229 61 -65 c60 -64 61 -65 103 -60 111 16 166 -98 80 -165 -73 -57 -177 19 -146 108 12 34 -5 66 -62 120 l-36 35 0 -185 0 -184 81 -137 81 -136 46 -5 c35 -4 53 -12 74 -36 85 -95 -48 -216 -138 -126 -28 29 -32 83 -8 124 15 26 14 29 -58 151 l-73 125 -3 -434 -2 -434 104 -186 104 -186 397 -3 396 -2 -79 97 c-128 159 -199 259 -218 308 -25 68 -25 68 261 1168 73 281 86 340 74 348 -12 7 -10 22 9 95 13 48 29 102 37 121 16 38 7 39 163 -4 99 -27 125 -24 77 11 -50 36 -124 107 -130 125 -4 14 -21 16 -102 17 -107 0 -188 23 -165 46 8 8 42 9 132 1 129 -11 119 -8 239 -94 26 -19 74 -39 119 -51 41 -11 93 -28 114 -39 l38 -19 0 50 0 50 58 0 c45 0 61 4 75 20 14 17 29 20 97 20 44 0 80 4 80 8 0 16 -25 32 -51 32 -36 0 -106 26 -151 55 -30 20 -38 22 -48 10 -22 -27 -104 -56 -171 -62 -123 -10 -76 30 84 73 108 29 111 29 203 2 70 -20 80 -20 160 -8 97 15 206 4 301 -31 l53 -20 0 -50 0 -49 55 0 55 0 0 -122 c-1 -92 -4 -128 -15 -142 -13 -17 -15 -125 -15 -764 l0 -743 24 -97 c84 -335 106 -498 113 -853 6 -302 1 -395 -43 -829 -32 -313 -50 -431 -79 -503 l-23 -58 25 -10 c13 -5 28 -9 32 -9 12 0 61 -40 61 -49 0 -4 -24 -48 -53 -97 -30 -49 -57 -101 -60 -116 -4 -14 -11 -100 -17 -190 -20 -337 -82 -436 -292 -468 -161 -24 -309 21 -406 124 -55 58 -61 78 -36 114 14 21 13 24 -15 59 -34 41 -39 81 -20 157 9 38 7 52 -16 117 -61 168 -60 158 -30 261 15 53 52 142 87 208 l61 115 -12 219 c-6 121 -14 222 -17 225 -5 6 -273 -37 -286 -45 -5 -3 -9 -476 -9 -1052 -1 -576 -4 -1126 -8 -1222 -5 -153 -8 -175 -23 -178 -16 -3 -17 75 -20 1212 -2 668 -6 1217 -9 1221 -6 5 -203 -31 -453 -85 -68 -14 -102 -18 -109 -11 -14 14 -13 15 68 51 l70 31 -55 -7 c-30 -3 -77 -15 -105 -26 -66 -26 -105 -18 -145 30 -34 41 -45 85 -35 139 9 50 96 135 162 157 26 9 163 37 303 61 140 25 267 48 283 51 l27 6 0 268 0 268 -125 156 -125 156 -378 -1 c-207 0 -385 -4 -395 -7 -16 -7 -16 -9 -2 -30 12 -16 26 -22 51 -22 46 0 70 -14 89 -50 29 -56 12 -111 -42 -139 -37 -19 -73 -13 -103 18 -38 38 -46 72 -26 112 19 37 20 59 6 91 l-11 23 -1059 3 -1058 2 -31 -92 c-131 -403 -221 -692 -221 -712 0 -14 5 -28 11 -32 11 -7 5 -177 -8 -210 -4 -11 6 -13 54 -8 85 9 122 -6 188 -77 74 -81 589 -696 643 -770 47 -63 82 -150 82 -201 -1 -110 -110 -193 -203 -154 -21 8 -37 14 -37 12 0 -14 70 -248 80 -266 7 -14 26 -40 43 -59 28 -33 29 -38 24 -105 -9 -113 -11 -116 -69 -59 -27 26 -59 61 -70 76 -20 27 -20 30 -4 65 17 36 16 40 -18 157 -18 66 -39 139 -45 163 -9 31 -56 98 -174 245 -221 275 -406 497 -415 497 -4 0 -31 -34 -61 -75 -48 -68 -56 -87 -82 -194 -15 -65 -42 -150 -60 -190 -30 -67 -31 -75 -20 -113 14 -44 9 -55 -29 -60 -20 -2 -25 -9 -25 -33 0 -27 7 -33 63 -61 74 -37 111 -70 152 -135 34 -52 39 -111 19 -213 -11 -55 -11 -58 13 -84 36 -38 48 -65 48 -108 0 -30 -7 -44 -40 -76 -24 -22 -51 -38 -64 -38 -13 0 -44 -16 -68 -36 -52 -45 -113 -74 -153 -74 -61 0 -170 70 -187 121 -2 6 -28 15 -57 20 -37 6 -63 17 -81 34 -34 33 -73 147 -65 186 5 21 0 37 -19 62 -35 46 -34 90 3 127 16 16 41 32 57 35 16 4 34 8 41 10 17 5 33 71 33 135 l0 55 -37 0 c-34 0 -37 3 -52 46 -14 42 -29 56 -136 137 -249 187 -519 416 -550 467 -48 78 -47 152 5 350 59 227 146 546 174 640 13 44 29 105 35 135 6 30 31 96 56 145 l45 90 0 113 0 112 -149 0 c-99 0 -152 4 -157 11 -13 22 23 29 162 29 l141 0 7 53 c14 118 5 193 -69 590 -119 642 -202 1052 -218 1084 -18 34 -60 241 -51 254 3 5 16 9 30 9 l24 0 0 144 0 144 49 21 c84 36 146 44 275 37 111 -6 124 -5 197 19 l78 26 93 -25 c118 -31 171 -53 162 -67 -10 -17 -118 -1 -191 28 l-64 26 -48 -26 c-26 -15 -73 -33 -104 -41 -68 -18 -77 -23 -77 -42 0 -13 13 -14 90 -8 l90 7 0 -60 c0 -33 2 -62 5 -65 3 -3 42 1 86 9 45 8 83 13 84 11 2 -2 14 -58 27 -125 l25 -122 -28 -10 c-16 -5 -29 -14 -29 -19 0 -14 114 -625 171 -919 29 -150 56 -273 60 -273 5 0 87 240 183 533 262 798 258 786 258 842 0 29 13 94 31 154 l31 103 30 -6 c17 -3 43 -9 59 -12 24 -6 29 -2 42 29 8 20 24 41 34 47 50 26 221 -4 335 -60 50 -24 79 -30 161 -36 l100 -7 80 -57 c44 -32 90 -69 103 -83 65 -70 -72 -12 -153 64 -52 49 -56 51 -86 40 -18 -6 -72 -11 -121 -11 -109 0 -113 -14 -12 -50 41 -15 70 -32 72 -42 2 -9 28 -25 63 -37 32 -12 59 -25 58 -29 0 -4 -17 -56 -37 -117 -33 -99 -40 -110 -62 -113 -30 -3 -5 67 -289 -807 -287 -880 -321 -988 -315 -994 3 -3 402 -7 887 -9 l882 -2 1 41 c0 33 6 47 31 69 17 15 36 29 42 31 8 3 11 94 9 334 l-3 330 -142 -265 c-139 -262 -141 -265 -122 -285 46 -51 32 -132 -28 -160 -31 -15 -39 -15 -71 -3 -45 17 -64 51 -58 102 6 49 32 76 83 83 45 6 26 -23 217 336 l126 238 0 204 c0 113 -3 205 -6 205 -8 0 -190 -136 -214 -160 -11 -11 -20 -33 -20 -51 0 -46 -47 -89 -98 -89 -33 0 -45 6 -66 31 -75 89 37 210 128 138 31 -25 25 -28 179 88 l97 74 0 424 0 424 -235 3 c-226 3 -235 4 -256 25 -31 30 -29 76 4 111 25 27 25 28 29 218 3 166 5 195 21 211 9 11 17 23 17 26 0 4 -249 7 -552 6 l-553 0 429 -145 c236 -79 440 -151 453 -160 31 -20 46 -60 38 -101 -7 -40 -13 -41 -126 -7 -85 26 -90 26 -188 14 -56 -7 -103 -15 -106 -19 -2 -4 18 -25 45 -45 28 -21 50 -43 50 -48 0 -12 -38 11 -96 59 -39 32 -44 33 -95 25 l-54 -7 58 -44 c31 -24 57 -48 57 -53 0 -11 -4 -9 -87 48 -53 36 -68 42 -98 37 -23 -4 -35 -2 -35 6 0 6 2 11 4 11 30 0 363 54 369 60 7 6 -611 220 -636 220 -4 0 -16 -19 -28 -42 -12 -24 -33 -57 -46 -75 -26 -34 -96 -73 -131 -73 -35 0 -25 17 14 23 20 3 50 17 68 30 36 28 90 121 82 142 -3 8 -30 21 -60 30 -70 20 -78 30 -61 78 l13 37 -314 0 c-173 0 -314 -3 -314 -6 0 -3 11 -19 25 -36 16 -19 25 -42 25 -64 l0 -34 -102 0 -103 0 -93 -51 c-51 -27 -90 -54 -88 -58 3 -4 34 -19 68 -31 86 -32 51 -37 -40 -6 l-74 25 -39 -19 c-21 -11 -39 -24 -39 -29 0 -5 24 -17 53 -25 58 -18 92 -36 68 -36 -8 0 -48 9 -89 21 -62 17 -79 19 -103 8 -16 -6 -32 -9 -35 -7 -6 6 101 69 243 143 51 27 91 50 90 52 -2 2 -160 0 -350 -4 l-347 -6 0 -32 c0 -64 -30 -138 -75 -182 -23 -24 -50 -43 -59 -43 -26 0 -18 14 17 30 38 18 82 100 93 173 l6 47 -82 0 -82 0 4 56 c3 38 11 61 22 69 11 8 70 15 159 19 493 20 497 23 43 24 -242 1 -436 5 -432 10 4 4 1014 9 2244 12 2110 5 2238 6 2262 23 31 22 66 22 121 0z m818 -237 c9 -10 8 -16 -4 -26 -21 -17 -51 6 -34 26 6 8 15 14 19 14 4 0 13 -6 19 -14z m124 0 c7 -19 -18 -40 -38 -32 -15 6 -20 28 -8 39 12 12 41 7 46 -7z m-4814 -62 c-14 -14 -17 -14 -29 0 -10 13 -10 19 0 32 12 14 15 14 29 0 14 -15 14 -17 0 -32z m-111 13 c4 -20 -25 -34 -40 -19 -15 15 -1 44 19 40 10 -2 19 -11 21 -21z m1651 -73 c-14 -14 -17 -14 -29 0 -10 13 -10 19 0 32 12 14 15 14 29 0 14 -15 14 -17 0 -32z m2838 9 c-4 -3 -10 -3 -14 0 -3 4 0 7 7 7 7 0 10 -3 7 -7z m-2723 -19 c10 -26 7 -34 -13 -34 -23 0 -35 15 -27 35 7 20 32 19 40 -1z m2615 -18 c9 -10 8 -16 -4 -26 -21 -17 -51 6 -34 26 6 8 15 14 19 14 4 0 13 -6 19 -14z m-2671 -2684 c29 -11 69 -32 88 -47 l34 -26 42 29 c88 60 190 68 282 22 167 -84 194 -299 54 -425 -70 -62 -138 -82 -228 -66 -63 12 -65 12 -79 -11 -30 -48 -119 -126 -176 -154 -52 -25 -70 -29 -150 -29 -80 0 -98 4 -150 30 -73 35 -144 104 -182 176 -25 49 -28 63 -27 159 0 90 3 111 23 150 52 100 127 167 226 203 63 22 167 18 243 -11z m912 -962 l0 -320 120 0 120 0 0 -400 0 -400 -300 0 -300 0 0 265 0 265 -145 0 -145 0 0 455 0 455 325 0 325 0 0 -320z m1068 -472 c75 -35 119 -141 92 -224 -14 -43 -61 -98 -102 -120 -66 -34 -184 -5 -231 57 -64 85 -57 180 18 255 65 64 132 74 223 32z m372 -1268 l0 -530 -460 0 -460 0 0 530 0 530 460 0 460 0 0 -530z m-1965 235 c114 -30 197 -103 252 -221 24 -51 28 -72 28 -149 0 -81 -3 -97 -32 -157 -39 -84 -108 -154 -188 -194 -55 -26 -69 -29 -165 -29 -99 0 -109 2 -167 33 -34 17 -66 32 -70 32 -4 0 -21 -20 -36 -45 -50 -78 -138 -134 -245 -155 -157 -31 -332 61 -408 215 -26 54 -29 70 -29 160 0 87 3 107 27 157 52 112 157 192 282 218 71 14 146 3 238 -37 59 -26 60 -26 71 -7 6 10 34 44 63 75 103 107 230 142 379 104z m-1694 -483 l-41 -81 35 -50 c43 -65 49 -104 43 -304 -5 -188 -18 -227 -90 -274 l-42 -28 -450 0 c-248 0 -463 3 -478 7 -35 11 -85 53 -105 92 -21 39 -31 330 -14 421 13 72 34 102 92 135 l44 25 440 3 440 3 80 69 c43 38 81 68 83 66 2 -2 -15 -40 -37 -84z m4767 -180 c18 -16 32 -33 32 -39 0 -6 7 -16 16 -23 12 -11 14 -25 8 -67 -6 -54 -6 -55 34 -96 53 -54 72 -102 72 -179 0 -79 -24 -133 -79 -180 -51 -43 -114 -63 -181 -55 -204 24 -280 258 -135 419 36 40 44 74 23 107 -11 18 -9 27 15 66 36 58 61 75 113 75 41 0 56 -5 82 -28z"/>
<path d="M5465 7600 c3 -5 15 -10 26 -10 10 0 19 5 19 10 0 6 -12 10 -26 10 -14 0 -23 -4 -19 -10z"/>
<path d="M5502 7478 c5 -18 205 -117 248 -124 23 -4 55 2 94 17 l60 22 -95 48 -94 48 -108 0 c-82 1 -108 -2 -105 -11z"/>
<path d="M5909 7241 c-34 -11 -72 -32 -66 -37 5 -5 97 33 97 41 0 3 -1 5 -2 4 -2 0 -15 -4 -29 -8z"/>
<path d="M6090 7227 c14 -8 41 -17 60 -21 l35 -6 -31 15 c-17 7 -44 17 -60 20 l-29 6 25 -14z"/>
<path d="M1455 7198 c-33 -12 -54 -23 -47 -26 16 -5 99 25 107 39 4 5 5 9 3 8 -2 0 -30 -10 -63 -21z"/>
<path d="M1615 7210 c7 -11 100 -40 128 -40 11 0 18 2 16 4 -10 10 -149 44 -144 36z"/>
<path d="M5345 7180 c11 -5 47 -8 80 -8 58 0 58 1 20 9 -55 11 -127 11 -100 -1z"/>
<path d="M5607 7099 c18 -19 47 -42 65 -52 l33 -18 -35 31 c-19 17 -48 41 -65 52 l-30 21 32 -34z"/>
<path d="M2965 7100 c11 -5 45 -8 75 -8 45 0 50 2 25 8 -44 11 -126 11 -100 0z"/>
<path d="M3209 7056 c19 -23 101 -79 107 -73 5 5 -39 41 -91 73 -28 18 -29 18 -16 0z"/>
<path d="M2755 6633 c-13 -33 -19 -243 -7 -243 24 0 35 47 36 149 1 69 -3 105 -10 108 -6 2 -15 -4 -19 -14z"/>
<path d="M1454 6566 c-6 -16 61 -188 86 -219 13 -16 22 -19 30 -11 11 11 -19 104 -65 195 -26 49 -41 60 -51 35z"/>
<path d="M2617 6153 c-3 -4 -10 -59 -16 -122 -12 -115 -6 -150 20 -124 13 13 32 156 27 209 -3 35 -20 55 -31 37z"/>
<path d="M5949 6055 c-9 -33 -49 -179 -88 -324 l-71 -263 87 -109 88 -109 3 215 c1 118 1 313 0 433 l-3 217 -16 -60z"/>
<path d="M1570 6050 c0 -23 54 -161 78 -197 15 -25 42 -31 42 -11 0 19 -48 138 -73 182 -26 46 -47 58 -47 26z"/>
<path d="M2115 5843 c-13 -34 -19 -240 -6 -247 20 -13 33 46 35 153 1 69 -3 105 -10 108 -6 2 -15 -4 -19 -14z"/>
<path d="M2365 5639 c-12 -18 24 -46 117 -95 69 -35 93 -43 102 -34 15 16 -18 42 -126 96 -55 27 -89 40 -93 33z"/>
<path d="M1280 5547 c0 -21 32 -108 70 -189 8 -17 21 -28 33 -28 24 0 19 23 -31 138 -38 87 -72 125 -72 79z"/>
<path d="M1608 5503 c-25 -6 -22 -30 5 -37 56 -15 227 -1 227 19 0 18 -179 32 -232 18z"/>
<path d="M2194 5259 c-3 -6 2 -19 12 -30 28 -27 175 -109 197 -109 42 0 7 36 -88 91 -109 63 -111 64 -121 48z"/>
<path d="M4350 5101 c0 -78 2 -90 18 -95 33 -11 63 -53 69 -95 l6 -41 49 0 49 0 -46 83 c-25 45 -64 117 -88 159 -23 43 -45 78 -49 78 -5 0 -8 -40 -8 -89z"/>
<path d="M1643 5083 c-21 -8 -15 -30 10 -37 54 -14 227 0 227 19 0 19 -197 35 -237 18z"/>
<path d="M2216 5039 c-28 -126 -35 -254 -13 -247 25 9 37 54 37 148 0 96 -13 149 -24 99z"/>
<path d="M1745 4883 c14 -57 95 -215 107 -210 20 7 13 48 -22 129 -35 80 -55 108 -78 108 -10 0 -12 -7 -7 -27z"/>
<path d="M1363 4725 c9 -54 83 -205 101 -205 23 0 20 27 -10 101 -41 101 -63 139 -81 139 -12 0 -14 -7 -10 -35z"/>
<path d="M1928 4459 c-27 -27 -104 -164 -110 -193 -11 -65 64 20 125 140 31 61 23 91 -15 53z"/>
<path d="M5680 4226 c0 -124 4 -227 9 -230 5 -3 66 5 137 19 71 14 130 25 132 25 8 0 0 45 -13 69 -14 27 -178 241 -236 309 l-29 33 0 -225z"/>
<path d="M1317 3577 l-38 -152 51 -47 c28 -27 56 -48 61 -48 5 0 7 17 5 38 -3 20 -10 110 -17 200 -7 89 -15 162 -18 162 -3 0 -23 -69 -44 -153z"/>
<path d="M2805 2750 c9 -16 18 -30 21 -30 2 0 -2 14 -11 30 -9 17 -18 30 -21 30 -2 0 2 -13 11 -30z"/>
</g>


</svg>