<svg width="150" height="75" viewBox="0 0 115 115" fill="none" xmlns="http://www.w3.org/2000/svg">
<path d="M100.625 7.1875H57.5C55.5943 7.1894 53.7673 7.94727 52.4198 9.29477C51.0723 10.6423 50.3144 12.4693 50.3125 14.375V50.3125H14.375C12.4693 50.3144 10.6423 51.0723 9.29477 52.4198C7.94727 53.7673 7.1894 55.5943 7.1875 57.5V107.812H107.812V14.375C107.811 12.4693 107.053 10.6423 105.705 9.29477C104.358 7.94727 102.531 7.1894 100.625 7.1875ZM32.3438 100.625V75.4688H46.7188V100.625H32.3438ZM100.625 100.625H53.9062V71.875C53.9062 70.9219 53.5276 70.0078 52.8537 69.3338C52.1797 68.6599 51.2656 68.2812 50.3125 68.2812H28.75C27.7969 68.2812 26.8828 68.6599 26.2088 69.3338C25.5349 70.0078 25.1562 70.9219 25.1562 71.875V100.625H14.375V57.5H57.5V14.375H100.625V100.625Z" fill="#471076"/>
<path d="M64.6875 28.75H71.875V35.9375H64.6875V28.75Z" fill="#F46425"/>
<path d="M86.25 28.75H93.4375V35.9375H86.25V28.75Z" fill="#F46425"/>
<path d="M64.6875 50.3125H71.875V57.5H64.6875V50.3125Z" fill="#F46425"/>
<path d="M86.25 50.3125H93.4375V57.5H86.25V50.3125Z" fill="#F46425"/>
<path d="M64.6875 71.875H71.875V79.0625H64.6875V71.875Z" fill="#F46425"/>
<path d="M86.25 71.875H93.4375V79.0625H86.25V71.875Z" fill="#F46425"/>
<path d="M32.3438 43.125H25.1562C25.162 38.3611 27.0569 33.794 30.4255 30.4255C33.794 27.0569 38.3611 25.162 43.125 25.1562V32.3438C40.2665 32.3466 37.5259 33.4834 35.5047 35.5047C33.4834 37.5259 32.3466 40.2665 32.3438 43.125Z" fill="#F46425"/>
<path d="M14.375 43.125H7.1875C7.19796 33.597 10.9876 24.4622 17.7249 17.7249C24.4622 10.9876 33.597 7.19796 43.125 7.1875V14.375C35.5029 14.3845 28.1958 17.4166 22.8062 22.8062C17.4166 28.1958 14.3845 35.5029 14.375 43.125V43.125Z" fill="#F46425"/>
</svg>