<svg id="svg" version="1.1" xmlns="http://www.w3.org/2000/svg" xmlns:xlink="http://www.w3.org/1999/xlink" width="200" height="100" viewBox="200, 70, 400,320">
    <g id="svgg">
        <path id="path0" d="M274.080 66.060 C 272.081 66.575,271.861 66.667,266.400 69.287 C 263.936 70.469,260.040 72.335,257.742 73.434 C 250.303 76.989,247.915 80.970,249.882 86.537 C 250.250 87.581,250.475 88.512,250.380 88.606 C 250.009 88.978,242.328 87.601,237.852 86.361 C 235.249 85.640,231.896 84.708,230.400 84.291 C 214.462 79.849,206.031 79.434,192.267 82.417 C 184.377 84.126,180.042 85.863,172.258 90.433 L 169.316 92.160 160.300 92.160 C 151.862 92.160,151.296 92.124,151.458 91.600 C 151.552 91.292,151.998 90.176,152.447 89.120 C 155.286 82.454,153.001 79.176,141.429 73.314 C 137.123 71.133,133.445 69.228,133.255 69.080 C 131.075 67.390,126.231 66.793,123.371 67.863 C 120.151 69.068,119.704 69.750,111.543 85.920 C 107.456 94.016,100.244 108.272,95.515 117.600 C 90.786 126.928,84.545 139.250,81.645 144.983 L 76.373 155.405 76.373 157.853 C 76.373 163.207,77.711 164.474,89.884 170.649 C 103.551 177.581,106.497 177.659,111.040 171.203 C 111.518 170.524,111.526 170.527,112.741 171.776 L 113.962 173.030 111.411 176.195 C 110.008 177.936,107.625 180.800,106.115 182.560 C 101.673 187.737,100.233 191.355,100.579 196.475 C 101.214 205.884,108.837 212.815,118.717 212.966 L 122.714 213.028 122.947 214.434 C 124.302 222.606,133.083 229.298,142.294 229.178 L 144.908 229.144 145.124 230.492 C 146.556 239.421,158.848 247.001,167.131 244.063 C 169.190 243.333,169.092 243.296,170.172 245.200 C 174.051 252.038,182.425 255.738,188.703 253.389 C 190.200 252.829,191.195 252.069,193.959 249.373 L 197.368 246.049 199.212 247.047 C 207.813 251.700,218.182 248.697,222.569 240.282 L 223.840 237.843 226.720 239.731 C 233.193 243.975,239.132 244.277,244.784 240.650 C 248.855 238.038,252.480 231.976,252.480 227.779 C 252.480 226.308,252.592 226.243,254.172 226.791 C 263.186 229.920,273.604 221.763,273.724 211.483 L 273.760 208.405 276.641 208.233 C 292.118 207.307,299.196 188.596,288.059 178.050 L 286.997 177.045 288.642 174.526 C 289.546 173.141,290.340 171.953,290.406 171.888 C 290.471 171.822,291.175 172.301,291.969 172.951 C 294.851 175.314,298.601 175.656,302.560 173.918 C 303.088 173.686,304.744 172.961,306.240 172.306 C 314.821 168.552,321.192 164.987,322.794 163.043 C 324.667 160.771,325.371 156.470,324.212 154.372 C 323.782 153.593,320.320 146.209,320.320 146.071 C 320.320 146.014,319.046 143.329,317.488 140.104 C 315.931 136.879,314.183 133.232,313.604 132.000 C 313.025 130.768,311.617 127.816,310.476 125.440 C 306.715 117.612,304.584 113.162,303.121 110.080 C 302.327 108.408,300.707 105.024,299.520 102.560 C 298.332 100.096,296.752 96.784,296.007 95.200 C 295.262 93.616,293.963 90.880,293.120 89.120 C 292.277 87.360,291.011 84.696,290.306 83.200 C 289.602 81.704,288.169 78.680,287.122 76.480 C 286.075 74.280,284.966 71.944,284.657 71.288 C 282.731 67.204,278.245 64.986,274.080 66.060 M277.438 73.757 C 277.924 74.343,280.455 79.574,287.038 93.600 C 287.699 95.008,289.212 98.176,290.400 100.640 C 291.588 103.104,293.965 108.072,295.682 111.680 C 297.399 115.288,299.845 120.400,301.117 123.040 C 302.390 125.680,303.973 128.992,304.635 130.400 C 305.298 131.808,306.811 134.976,307.997 137.440 C 309.184 139.904,310.697 143.072,311.361 144.480 C 312.024 145.888,313.386 148.766,314.388 150.876 C 315.389 152.986,316.505 155.404,316.868 156.248 L 317.529 157.784 316.809 158.551 C 316.413 158.972,313.549 160.561,310.444 162.080 C 307.340 163.600,304.570 164.965,304.288 165.114 C 302.898 165.850,298.161 167.680,297.646 167.680 C 296.642 167.680,296.600 167.609,292.622 159.200 C 290.825 155.401,289.411 152.427,286.003 145.280 C 281.788 136.439,278.509 129.546,276.624 125.564 C 275.864 123.960,274.243 120.576,273.022 118.044 C 271.800 115.512,270.293 112.360,269.672 111.040 C 269.052 109.720,267.969 107.416,267.265 105.920 C 266.562 104.424,264.660 100.464,263.038 97.120 C 256.871 84.401,256.589 83.765,256.784 82.989 C 256.939 82.373,259.072 80.640,259.676 80.640 C 259.769 80.640,261.536 79.831,263.602 78.843 C 276.849 72.509,276.506 72.635,277.438 73.757 M134.080 77.882 C 144.632 83.210,145.412 83.659,145.746 84.600 C 146.071 85.517,144.318 89.131,127.799 121.600 C 124.530 128.024,117.973 140.984,113.227 150.400 C 104.109 168.489,103.891 168.838,102.080 168.314 C 99.594 167.594,84.350 159.529,83.874 158.681 C 83.368 157.780,84.261 155.860,93.758 137.440 C 95.573 133.920,100.328 124.560,104.324 116.640 C 127.583 70.540,125.491 74.375,127.200 74.706 C 127.728 74.809,130.824 76.238,134.080 77.882 M214.653 88.345 C 217.741 88.688,222.811 89.816,228.320 91.385 C 240.332 94.805,243.754 95.560,249.565 96.073 L 254.171 96.480 254.936 97.920 C 255.745 99.442,262.080 112.628,262.080 112.789 C 262.080 112.841,263.438 115.694,265.098 119.130 C 266.758 122.566,268.614 126.435,269.221 127.728 C 269.829 129.022,271.224 131.952,272.321 134.240 C 274.180 138.114,275.455 140.783,279.126 148.480 C 279.924 150.152,281.815 154.097,283.328 157.246 C 286.746 164.357,286.777 163.599,282.800 169.840 C 281.249 172.273,281.400 172.269,278.777 169.953 C 276.059 167.553,264.850 157.788,262.394 155.680 C 261.368 154.800,257.976 151.848,254.855 149.120 C 251.734 146.392,243.911 139.562,237.470 133.943 C 225.758 123.724,224.502 122.596,219.000 117.360 C 217.382 115.820,215.891 114.560,215.686 114.560 C 215.482 114.560,214.641 113.992,213.817 113.299 C 211.837 111.631,208.557 110.273,204.461 109.426 C 191.534 106.753,180.036 114.004,177.747 126.273 C 176.162 134.766,169.771 142.212,162.643 143.871 C 159.809 144.531,155.356 144.387,154.151 143.597 L 153.292 143.033 153.971 141.357 C 157.045 133.766,157.687 130.893,158.600 120.651 L 159.155 114.423 161.350 110.411 C 165.096 103.566,169.465 100.045,182.602 93.285 C 185.506 91.791,189.131 90.562,192.480 89.935 C 193.536 89.737,195.336 89.359,196.480 89.095 C 201.160 88.014,208.826 87.698,214.653 88.345 M158.830 100.056 C 158.949 100.175,158.761 100.576,158.412 100.947 C 158.063 101.319,156.471 103.986,154.873 106.875 L 151.969 112.127 151.653 115.663 C 150.416 129.533,149.939 131.848,146.744 139.520 C 143.804 146.577,148.658 151.680,158.311 151.680 C 167.411 151.680,173.634 148.252,180.098 139.680 C 182.613 136.345,183.840 133.121,185.600 125.234 C 186.462 121.373,191.885 117.158,196.836 116.502 C 202.943 115.692,207.053 117.130,211.840 121.751 C 215.773 125.547,220.932 130.243,224.320 133.112 C 225.640 134.229,226.792 135.244,226.880 135.368 C 226.968 135.492,228.206 136.585,229.630 137.796 C 232.048 139.854,234.633 142.109,239.680 146.566 C 240.824 147.576,243.416 149.813,245.440 151.538 C 247.464 153.263,249.286 154.829,249.488 155.017 C 249.691 155.206,250.692 156.080,251.713 156.960 C 252.735 157.840,255.593 160.364,258.065 162.568 C 260.537 164.773,263.578 167.437,264.821 168.488 C 266.910 170.254,273.093 175.630,274.748 177.120 C 275.139 177.472,276.144 178.336,276.981 179.040 C 285.718 186.388,287.293 189.340,284.989 194.050 C 281.631 200.913,274.373 202.238,267.654 197.213 C 266.056 196.018,263.716 194.320,262.454 193.440 C 260.156 191.838,240.208 177.635,238.713 176.537 C 237.299 175.498,232.215 171.869,230.080 170.374 C 228.936 169.574,227.136 168.285,226.080 167.511 C 219.958 163.024,219.059 162.560,216.484 162.560 C 212.585 162.560,211.179 166.604,213.938 169.883 C 214.574 170.638,225.709 178.793,233.486 184.198 C 234.216 184.705,237.284 186.920,240.305 189.120 C 243.326 191.320,246.116 193.336,246.505 193.600 C 246.894 193.864,248.002 194.668,248.966 195.387 C 249.931 196.106,251.584 197.297,252.640 198.035 C 253.696 198.773,255.568 200.096,256.800 200.975 C 258.032 201.854,260.024 203.245,261.226 204.067 C 268.525 209.053,266.820 218.781,258.583 219.148 C 255.354 219.292,254.644 218.923,245.431 212.320 C 244.940 211.968,241.211 209.304,237.146 206.400 C 233.080 203.496,225.975 198.418,221.357 195.115 C 208.643 186.022,209.001 186.240,206.779 186.240 C 204.132 186.242,202.564 187.793,202.576 190.400 C 202.586 192.560,203.589 193.692,208.531 197.120 C 208.911 197.384,211.409 199.184,214.080 201.120 C 216.752 203.056,219.344 204.928,219.839 205.280 C 220.335 205.632,223.212 207.720,226.233 209.920 C 229.254 212.120,232.135 214.208,232.636 214.560 C 244.962 223.222,246.267 225.100,243.610 230.349 C 240.631 236.237,236.043 236.680,229.120 231.747 C 227.624 230.681,224.960 228.782,223.200 227.527 C 219.025 224.548,216.298 222.641,213.124 220.480 C 211.702 219.512,208.348 217.157,205.669 215.246 C 197.140 209.160,196.322 208.652,195.040 208.646 C 192.538 208.636,190.288 211.695,191.014 214.120 C 191.431 215.512,192.237 216.171,206.965 227.173 C 216.142 234.028,216.362 234.255,215.711 236.226 C 214.364 240.308,207.748 242.581,203.600 240.386 C 202.034 239.558,202.038 239.571,202.861 237.958 C 206.814 230.204,197.663 217.920,187.935 217.920 C 187.420 217.920,187.223 217.651,187.054 216.720 C 186.767 215.128,185.593 211.802,185.105 211.200 C 184.892 210.936,184.467 210.226,184.161 209.623 C 181.963 205.289,175.499 201.553,169.366 201.073 L 166.731 200.866 166.543 199.713 C 165.283 192.014,157.966 185.067,149.881 183.895 L 147.603 183.565 147.584 180.957 C 147.490 168.307,132.766 159.848,121.371 165.898 L 119.351 166.971 117.617 165.055 L 115.883 163.138 119.498 156.049 C 122.898 149.384,125.334 144.597,137.766 120.160 C 146.024 103.927,147.551 100.974,147.838 100.680 C 148.433 100.072,158.286 99.513,158.830 100.056 M133.714 172.037 C 139.208 174.775,141.595 180.260,139.408 185.120 C 137.825 188.636,125.149 203.405,122.560 204.749 C 114.823 208.765,104.997 199.561,108.648 191.718 C 109.321 190.272,110.927 188.143,113.280 185.579 C 113.544 185.292,113.976 184.781,114.240 184.444 C 115.641 182.658,119.220 178.357,119.535 178.080 C 119.736 177.904,120.812 176.680,121.927 175.360 C 125.524 171.101,129.555 169.964,133.714 172.037 M150.832 191.788 C 154.397 193.082,157.274 195.631,158.477 198.560 C 160.144 202.618,160.118 202.677,152.496 212.213 C 145.205 221.336,144.585 221.875,141.405 221.845 C 133.877 221.774,127.299 212.852,131.061 207.815 C 132.893 205.361,143.402 192.831,143.948 192.448 C 144.574 192.010,147.393 191.096,148.225 191.062 C 148.525 191.050,149.698 191.377,150.832 191.788 M173.271 209.619 C 176.532 211.160,179.180 214.560,179.712 217.890 C 179.981 219.569,179.674 220.070,174.165 226.949 C 171.729 229.991,169.121 233.295,168.371 234.292 C 163.131 241.246,150.010 233.858,152.326 225.257 C 152.709 223.836,153.219 223.122,158.569 216.523 C 160.158 214.564,161.793 212.484,162.203 211.902 C 164.609 208.489,168.974 207.589,173.271 209.619 M190.080 225.955 C 193.142 226.750,196.480 230.820,196.480 233.758 C 196.480 235.220,188.963 244.764,186.748 246.115 C 182.653 248.612,175.623 243.271,176.061 237.994 C 176.194 236.380,176.395 236.049,179.932 231.599 C 184.841 225.422,185.855 224.858,190.080 225.955 " stroke="none" fill="#ec5d0e" fill-rule="evenodd"></path>
        <path id="path1" d="M0.000 160.000 L 0.000 320.000 200.000 320.000 L 400.000 320.000 400.000 160.000 L 400.000 0.000 200.000 0.000 L 0.000 0.000 0.000 160.000 M281.184 66.891 C 284.015 68.922,283.875 68.674,292.474 86.880 C 295.042 92.317,296.476 95.339,298.245 99.040 C 299.255 101.152,300.800 104.392,301.680 106.240 C 302.559 108.088,304.176 111.472,305.273 113.760 C 306.370 116.048,307.887 119.216,308.644 120.800 C 309.402 122.384,311.058 125.840,312.325 128.480 C 317.122 138.479,320.805 146.229,322.131 149.120 C 322.737 150.440,323.543 152.096,323.922 152.800 C 324.428 153.740,324.646 154.811,324.743 156.842 C 325.028 162.804,323.381 164.535,312.429 169.789 C 304.442 173.620,303.441 174.080,303.095 174.080 C 302.927 174.080,302.162 174.365,301.395 174.713 C 298.487 176.033,292.057 174.892,291.301 172.923 C 291.012 172.170,290.433 172.433,289.631 173.682 C 289.208 174.341,288.596 175.270,288.271 175.747 C 287.484 176.901,287.438 176.773,289.428 178.922 C 292.719 182.477,294.360 187.353,293.970 192.413 C 293.336 200.632,284.569 208.640,276.205 208.640 L 274.240 208.640 274.240 210.754 C 274.240 220.731,264.945 229.404,256.249 227.541 C 255.144 227.305,253.940 227.047,253.573 226.968 C 252.965 226.838,252.876 227.038,252.569 229.226 C 250.725 242.363,237.119 247.396,225.346 239.295 C 224.581 238.769,223.929 238.388,223.898 238.449 C 223.866 238.510,223.336 239.548,222.720 240.755 C 218.585 248.859,208.124 251.938,199.499 247.590 L 197.314 246.488 194.257 249.597 C 189.835 254.094,186.785 255.157,181.370 254.092 C 177.064 253.245,171.972 249.436,170.018 245.600 C 169.570 244.720,169.178 243.969,169.147 243.932 C 169.116 243.894,168.390 244.074,167.534 244.332 C 159.088 246.874,148.928 241.593,145.493 232.877 C 145.024 231.687,144.640 230.463,144.640 230.157 C 144.640 229.667,144.267 229.599,141.520 229.590 C 132.832 229.563,125.377 223.800,122.697 215.040 L 122.159 213.280 119.186 213.381 C 108.815 213.735,100.147 205.342,100.164 194.966 C 100.172 190.187,102.237 185.930,106.880 181.116 C 107.144 180.843,107.792 180.064,108.320 179.385 C 108.848 178.706,110.248 176.998,111.432 175.588 L 113.583 173.025 112.609 172.033 L 111.635 171.040 110.948 172.000 C 108.682 175.167,106.571 176.134,102.332 175.945 L 99.360 175.812 90.560 171.389 C 77.277 164.712,76.030 163.557,76.009 157.919 L 76.000 155.358 80.181 147.039 C 82.480 142.463,85.920 135.696,87.824 132.000 C 89.729 128.304,92.858 122.112,94.777 118.240 C 96.697 114.368,98.383 110.984,98.524 110.720 C 99.493 108.909,109.176 89.867,113.483 81.305 C 120.463 67.427,122.025 65.997,128.899 67.194 C 130.786 67.522,145.186 74.476,149.113 76.956 C 153.314 79.608,154.851 85.467,152.522 89.956 C 152.059 90.848,151.680 91.603,151.680 91.632 C 151.680 91.662,155.716 91.648,160.649 91.602 L 169.619 91.518 171.769 90.266 C 180.381 85.254,184.852 83.550,194.549 81.587 C 203.037 79.868,212.932 79.677,219.040 81.115 C 220.096 81.364,221.824 81.728,222.880 81.925 C 223.936 82.122,225.629 82.562,226.641 82.902 C 227.654 83.242,228.662 83.518,228.881 83.516 C 229.101 83.514,230.576 83.887,232.160 84.346 C 233.744 84.805,235.976 85.452,237.120 85.783 C 240.773 86.840,245.853 87.943,248.058 88.158 L 250.196 88.366 249.578 86.740 C 247.650 81.665,250.178 76.664,256.120 73.801 C 274.341 65.020,272.883 65.594,276.704 65.704 C 279.486 65.784,279.732 65.848,281.184 66.891 M274.080 74.257 C 273.376 74.596,270.856 75.794,268.480 76.919 C 266.104 78.044,262.761 79.627,261.050 80.438 C 257.661 82.044,256.753 82.939,257.236 84.197 C 257.397 84.617,259.002 87.984,260.802 91.680 C 265.134 100.576,268.160 106.891,268.160 107.035 C 268.160 107.151,270.815 112.709,275.116 121.600 C 276.351 124.152,277.866 127.320,278.484 128.640 C 280.714 133.410,283.073 138.375,287.682 148.000 C 288.525 149.760,290.315 153.504,291.659 156.320 C 297.893 169.376,296.444 168.309,303.512 165.043 C 308.988 162.514,316.577 158.559,316.877 158.079 C 317.175 157.601,316.709 156.515,311.934 146.560 C 311.047 144.712,309.603 141.688,308.725 139.840 C 305.309 132.651,304.624 131.214,302.550 126.880 C 301.370 124.416,299.687 120.888,298.808 119.040 C 297.929 117.192,296.310 113.808,295.209 111.520 C 294.108 109.232,292.555 105.992,291.757 104.320 C 290.959 102.648,289.515 99.624,288.548 97.600 C 286.676 93.684,284.481 89.046,282.641 85.120 C 276.635 72.309,277.044 72.828,274.080 74.257 M125.814 75.294 C 125.625 75.522,123.325 79.950,120.702 85.134 C 118.080 90.318,114.058 98.232,111.764 102.720 C 109.470 107.208,104.137 117.720,99.913 126.080 C 95.689 134.440,90.417 144.859,88.197 149.233 C 83.822 157.853,83.676 158.331,85.105 159.350 C 87.231 160.863,101.943 167.999,102.939 168.000 L 103.958 168.000 110.207 155.537 C 115.981 144.021,119.615 136.852,129.114 118.240 C 137.828 101.165,145.600 85.530,145.600 85.074 C 145.600 84.224,144.715 83.688,135.943 79.224 C 127.415 74.885,126.461 74.515,125.814 75.294 M203.520 88.372 C 193.150 89.962,185.174 91.855,183.520 93.119 C 183.344 93.253,181.976 94.007,180.480 94.794 C 169.612 100.512,165.283 104.133,161.807 110.411 L 159.614 114.372 159.171 118.706 C 158.285 127.380,157.770 131.593,157.472 132.586 C 156.281 136.562,155.759 138.076,154.772 140.405 L 153.652 143.050 154.570 143.525 C 156.933 144.747,164.162 143.692,167.090 141.698 C 173.209 137.531,176.349 132.491,177.772 124.549 C 179.011 117.633,186.412 110.444,193.678 109.098 C 197.805 108.333,207.034 108.925,208.456 110.046 C 208.645 110.195,209.366 110.499,210.058 110.722 C 211.372 111.146,213.401 112.347,214.650 113.441 C 215.052 113.792,215.508 114.080,215.664 114.080 C 215.943 114.080,217.361 115.337,222.080 119.766 C 225.593 123.063,227.082 124.409,229.760 126.712 C 231.080 127.847,232.881 129.429,233.761 130.228 C 234.642 131.026,236.204 132.400,237.233 133.280 C 238.262 134.160,239.288 135.053,239.513 135.264 C 239.739 135.476,241.060 136.628,242.449 137.825 C 243.839 139.022,245.548 140.524,246.248 141.164 C 246.948 141.804,249.119 143.676,251.073 145.324 C 253.027 146.972,256.333 149.832,258.419 151.680 C 263.353 156.050,269.717 161.621,272.310 163.840 C 273.441 164.808,274.734 165.938,275.183 166.352 C 277.158 168.171,281.309 171.595,281.402 171.483 C 282.273 170.433,285.760 164.056,285.760 163.514 C 285.760 163.320,285.164 161.910,284.435 160.381 C 282.370 156.044,279.315 149.663,277.207 145.280 C 273.444 137.458,269.110 128.384,266.892 123.680 C 266.145 122.096,264.846 119.360,264.005 117.600 C 263.164 115.840,261.775 112.922,260.918 111.116 C 260.061 109.310,258.136 105.350,256.640 102.316 L 253.920 96.800 251.360 96.587 C 246.493 96.181,241.232 95.399,239.100 94.763 C 237.923 94.413,235.232 93.669,233.120 93.111 C 231.008 92.553,228.704 91.898,228.000 91.657 C 220.916 89.230,208.654 87.585,203.520 88.372 M148.285 100.725 C 148.089 100.854,145.334 106.072,142.161 112.320 C 133.831 128.723,128.697 138.817,122.206 151.558 C 115.634 164.456,116.128 162.932,117.879 164.920 L 119.254 166.479 121.667 165.334 C 126.941 162.832,132.746 162.750,137.280 165.116 C 143.692 168.461,148.159 175.158,148.160 181.427 L 148.161 183.200 150.960 183.756 C 158.374 185.227,164.794 191.200,166.571 198.282 L 167.144 200.564 169.572 200.717 C 176.282 201.142,182.132 204.991,185.559 211.236 C 186.412 212.790,186.736 213.782,187.336 216.672 C 187.491 217.423,187.722 217.540,189.704 217.867 C 199.458 219.478,206.854 230.200,203.371 237.682 L 202.588 239.363 203.330 239.850 C 206.672 242.040,212.532 240.679,214.737 237.201 C 216.402 234.577,216.512 234.731,208.974 229.120 C 207.200 227.800,204.315 225.640,202.561 224.320 C 200.807 223.000,197.836 220.768,195.959 219.360 C 189.599 214.591,188.870 212.595,192.339 209.461 C 194.416 207.585,195.624 207.778,199.725 210.640 C 201.552 211.916,203.462 213.248,203.969 213.600 C 204.475 213.952,205.338 214.565,205.885 214.961 C 206.432 215.358,207.384 216.037,208.000 216.470 C 208.616 216.903,209.768 217.714,210.560 218.274 C 212.068 219.339,215.152 221.476,219.600 224.537 C 221.052 225.537,223.104 226.983,224.160 227.753 C 235.248 235.828,237.455 236.489,241.226 232.866 C 246.175 228.112,245.019 223.619,237.544 218.560 C 236.853 218.093,226.078 210.336,225.440 209.847 C 223.552 208.400,220.281 205.989,218.809 204.960 C 217.801 204.256,216.486 203.320,215.884 202.880 C 215.283 202.440,213.299 201.006,211.476 199.693 C 209.652 198.380,208.016 197.189,207.840 197.047 C 207.664 196.905,206.548 196.067,205.361 195.184 C 201.911 192.621,201.139 190.287,202.893 187.727 C 205.233 184.312,208.130 185.023,216.242 191.004 C 217.343 191.816,219.215 193.170,220.402 194.014 C 221.589 194.857,223.856 196.482,225.440 197.625 C 227.024 198.767,228.680 199.947,229.120 200.247 C 229.560 200.546,232.152 202.379,234.880 204.320 C 237.608 206.261,240.200 208.094,240.640 208.395 C 241.080 208.695,243.024 210.100,244.960 211.518 C 254.853 218.763,257.198 219.820,260.569 218.559 C 264.633 217.038,266.658 212.099,264.808 208.220 C 264.061 206.654,263.533 206.216,255.496 200.480 C 250.810 197.136,246.739 194.222,246.448 194.005 C 246.158 193.788,245.056 192.987,244.000 192.225 C 242.944 191.463,240.496 189.686,238.560 188.278 C 236.624 186.870,231.224 183.003,226.560 179.685 C 212.354 169.580,212.160 169.399,212.160 166.201 C 212.160 160.682,217.345 160.645,224.778 166.111 C 226.198 167.155,228.714 168.980,230.369 170.165 C 232.024 171.350,234.328 173.000,235.489 173.832 C 236.650 174.663,238.464 175.946,239.520 176.683 C 241.269 177.904,243.685 179.645,246.564 181.760 C 247.163 182.200,248.128 182.894,248.707 183.303 C 249.286 183.711,253.504 186.684,258.080 189.908 C 262.656 193.133,267.159 196.372,268.087 197.106 C 275.260 202.783,285.294 199.045,285.204 190.729 C 285.161 186.797,284.566 185.892,278.880 181.124 C 275.890 178.616,267.876 171.626,267.520 171.215 C 267.432 171.114,265.920 169.816,264.160 168.331 C 262.400 166.846,260.888 165.550,260.800 165.449 C 260.712 165.349,259.344 164.124,257.760 162.727 C 256.176 161.330,254.448 159.804,253.920 159.335 C 252.867 158.399,243.425 150.229,240.677 147.876 C 238.380 145.909,236.629 144.378,232.951 141.120 C 231.261 139.624,229.041 137.680,228.017 136.800 C 222.024 131.652,214.725 125.069,211.195 121.626 C 208.278 118.782,207.645 118.318,206.092 117.888 C 205.118 117.618,203.922 117.245,203.436 117.058 C 201.754 116.413,196.214 116.639,194.120 117.438 C 189.104 119.353,186.105 122.984,185.297 128.121 C 183.795 137.665,175.698 147.617,166.844 150.799 C 164.072 151.795,163.862 151.821,158.544 151.830 L 153.087 151.840 150.915 150.738 C 144.790 147.629,144.038 142.606,148.464 134.376 C 149.170 133.063,150.401 125.618,150.889 119.703 C 151.186 116.108,151.625 112.610,151.865 111.930 C 152.438 110.305,157.002 102.122,157.850 101.200 L 158.512 100.480 153.576 100.485 C 150.861 100.488,148.480 100.596,148.285 100.725 M126.934 171.971 C 125.732 172.373,124.430 173.048,124.041 173.471 C 120.573 177.237,110.089 189.909,109.108 191.520 C 103.998 199.909,118.758 210.334,124.957 202.714 C 125.135 202.496,128.099 198.952,131.545 194.839 C 134.991 190.725,138.218 186.661,138.716 185.806 C 142.878 178.658,134.913 169.304,126.934 171.971 M145.120 192.286 C 144.333 192.650,143.143 193.725,142.031 195.079 C 141.036 196.290,139.812 197.773,139.311 198.376 C 132.998 205.971,131.670 207.535,131.454 207.626 C 130.786 207.908,130.220 211.123,130.567 212.670 C 131.709 217.766,136.104 221.280,141.335 221.280 C 144.713 221.280,145.126 220.974,149.814 215.007 C 150.283 214.409,151.766 212.552,153.109 210.880 C 154.452 209.208,155.828 207.480,156.166 207.040 C 156.504 206.600,157.217 205.680,157.751 204.996 C 162.213 199.270,152.076 189.069,145.120 192.286 M166.080 209.361 C 164.615 210.164,163.363 211.021,163.136 211.375 C 163.013 211.567,161.789 213.096,160.416 214.771 C 159.043 216.447,157.560 218.298,157.120 218.886 C 156.680 219.474,155.575 220.870,154.664 221.988 C 152.570 224.561,152.116 226.281,152.818 228.979 C 154.715 236.260,164.538 239.563,168.104 234.121 C 168.412 233.651,170.645 230.786,173.066 227.754 C 179.578 219.599,179.648 219.490,179.395 217.909 C 178.476 212.159,170.417 206.986,166.080 209.361 M185.460 226.407 C 183.088 227.543,176.804 235.545,176.503 237.814 C 175.958 241.919,180.236 246.400,184.700 246.400 C 186.967 246.400,195.835 236.551,195.909 233.951 C 196.054 228.850,189.796 224.331,185.460 226.407 " stroke="none" fill="#ffffff" fill-rule="evenodd"></path>
        <path id="path2" d="M133.120 68.944 C 133.120 69.032,133.552 69.327,134.080 69.600 C 134.608 69.873,135.040 70.024,135.040 69.936 C 135.040 69.848,134.608 69.553,134.080 69.280 C 133.552 69.007,133.120 68.856,133.120 68.944 M265.600 69.440 C 264.984 69.777,264.595 70.059,264.736 70.067 C 265.075 70.084,266.880 69.146,266.880 68.952 C 266.880 68.742,266.861 68.749,265.600 69.440 M258.880 72.640 C 258.264 72.977,257.875 73.259,258.016 73.267 C 258.355 73.284,260.160 72.346,260.160 72.152 C 260.160 71.942,260.141 71.949,258.880 72.640 M269.360 76.023 C 268.119 76.696,268.260 76.928,269.520 76.288 C 270.726 75.674,270.940 75.515,270.533 75.533 C 270.372 75.540,269.844 75.760,269.360 76.023 M286.720 75.643 C 286.720 75.986,287.672 77.760,287.856 77.760 C 287.944 77.760,287.778 77.292,287.488 76.720 C 286.894 75.552,286.720 75.308,286.720 75.643 M203.284 80.550 C 203.771 80.623,204.491 80.621,204.884 80.545 C 205.278 80.469,204.880 80.409,204.000 80.412 C 203.120 80.414,202.798 80.476,203.284 80.550 M210.640 80.549 C 211.124 80.623,211.916 80.623,212.400 80.549 C 212.884 80.476,212.488 80.416,211.520 80.416 C 210.552 80.416,210.156 80.476,210.640 80.549 M200.564 80.866 C 200.962 80.943,201.538 80.940,201.844 80.860 C 202.150 80.780,201.824 80.717,201.120 80.721 C 200.416 80.724,200.166 80.790,200.564 80.866 M214.004 80.866 C 214.402 80.943,214.978 80.940,215.284 80.860 C 215.590 80.780,215.264 80.717,214.560 80.721 C 213.856 80.724,213.606 80.790,214.004 80.866 M152.694 81.936 C 152.881 82.473,153.093 82.853,153.166 82.781 C 153.324 82.622,152.721 80.960,152.505 80.960 C 152.421 80.960,152.506 81.399,152.694 81.936 M257.138 82.311 C 256.564 83.131,256.513 83.798,256.975 84.480 C 257.215 84.836,257.246 84.732,257.094 84.078 C 256.961 83.503,257.072 82.917,257.412 82.398 C 258.060 81.409,257.822 81.334,257.138 82.311 M289.920 82.363 C 289.920 82.706,290.872 84.480,291.056 84.480 C 291.144 84.480,290.978 84.012,290.688 83.440 C 290.094 82.272,289.920 82.028,289.920 82.363 M185.440 83.840 C 185.037 84.013,184.977 84.115,185.280 84.115 C 185.544 84.115,186.048 83.991,186.400 83.840 C 186.803 83.667,186.863 83.565,186.560 83.565 C 186.296 83.565,185.792 83.689,185.440 83.840 M228.640 83.840 C 228.992 83.991,229.496 84.115,229.760 84.115 C 230.063 84.115,230.003 84.013,229.600 83.840 C 229.248 83.689,228.744 83.565,228.480 83.565 C 228.177 83.565,228.237 83.667,228.640 83.840 M153.367 85.120 C 153.367 85.912,153.430 86.236,153.506 85.840 C 153.582 85.444,153.582 84.796,153.506 84.400 C 153.430 84.004,153.367 84.328,153.367 85.120 M234.400 85.440 C 234.752 85.591,235.256 85.715,235.520 85.715 C 235.823 85.715,235.763 85.613,235.360 85.440 C 235.008 85.289,234.504 85.165,234.240 85.165 C 233.937 85.165,233.997 85.267,234.400 85.440 M283.200 85.883 C 283.200 86.226,284.152 88.000,284.336 88.000 C 284.424 88.000,284.258 87.532,283.968 86.960 C 283.374 85.792,283.200 85.548,283.200 85.883 M257.920 86.523 C 257.920 86.866,258.872 88.640,259.056 88.640 C 259.144 88.640,258.978 88.172,258.688 87.600 C 258.094 86.432,257.920 86.188,257.920 86.523 M249.120 88.320 L 247.840 88.549 249.200 88.595 C 249.948 88.620,250.560 88.496,250.560 88.320 C 250.560 88.144,250.524 88.020,250.480 88.045 C 250.436 88.070,249.824 88.194,249.120 88.320 M197.120 88.960 C 196.487 89.163,196.453 89.216,196.960 89.216 C 197.312 89.216,197.960 89.101,198.400 88.960 C 199.033 88.757,199.067 88.704,198.560 88.704 C 198.208 88.704,197.560 88.819,197.120 88.960 M217.440 88.960 C 218.794 89.304,219.956 89.304,218.880 88.960 C 218.440 88.819,217.720 88.706,217.280 88.710 C 216.561 88.715,216.578 88.741,217.440 88.960 M189.600 90.560 C 189.197 90.733,189.137 90.835,189.440 90.835 C 189.704 90.835,190.208 90.711,190.560 90.560 C 190.963 90.387,191.023 90.285,190.720 90.285 C 190.456 90.285,189.952 90.409,189.600 90.560 M170.107 91.440 C 169.975 91.572,165.667 91.756,160.534 91.850 L 151.200 92.019 160.339 92.090 C 167.957 92.148,169.581 92.082,170.099 91.690 C 170.440 91.432,170.636 91.216,170.533 91.210 C 170.431 91.205,170.239 91.308,170.107 91.440 M107.680 93.120 C 107.407 93.648,107.256 94.080,107.344 94.080 C 107.432 94.080,107.727 93.648,108.000 93.120 C 108.273 92.592,108.424 92.160,108.336 92.160 C 108.248 92.160,107.953 92.592,107.680 93.120 M106.143 96.164 C 105.850 96.778,105.676 97.280,105.757 97.280 C 105.976 97.280,106.947 95.321,106.801 95.174 C 106.732 95.105,106.435 95.550,106.143 96.164 M175.680 96.989 C 175.149 97.423,175.095 97.532,175.520 97.312 C 176.564 96.773,177.142 96.330,176.800 96.332 C 176.624 96.333,176.120 96.629,175.680 96.989 M139.680 97.600 C 139.407 98.128,139.256 98.560,139.344 98.560 C 139.432 98.560,139.727 98.128,140.000 97.600 C 140.273 97.072,140.424 96.640,140.336 96.640 C 140.248 96.640,139.953 97.072,139.680 97.600 M254.880 98.240 C 255.153 98.768,255.448 99.200,255.536 99.200 C 255.624 99.200,255.473 98.768,255.200 98.240 C 254.927 97.712,254.632 97.280,254.544 97.280 C 254.456 97.280,254.607 97.712,254.880 98.240 M290.143 100.636 C 290.435 101.250,290.732 101.695,290.801 101.626 C 290.947 101.479,289.976 99.520,289.757 99.520 C 289.676 99.520,289.850 100.022,290.143 100.636 M138.080 100.800 C 137.807 101.328,137.656 101.760,137.744 101.760 C 137.832 101.760,138.127 101.328,138.400 100.800 C 138.673 100.272,138.824 99.840,138.736 99.840 C 138.648 99.840,138.353 100.272,138.080 100.800 M155.132 100.079 C 157.698 100.152,158.680 100.285,158.523 100.540 C 158.387 100.760,158.446 100.810,158.676 100.667 C 159.599 100.097,158.415 99.845,155.101 99.908 L 151.520 99.977 155.132 100.079 M149.364 100.386 C 149.762 100.463,150.338 100.460,150.644 100.380 C 150.950 100.300,150.624 100.237,149.920 100.241 C 149.216 100.244,148.966 100.310,149.364 100.386 M299.520 102.523 C 299.520 102.866,300.472 104.640,300.656 104.640 C 300.744 104.640,300.578 104.172,300.288 103.600 C 299.694 102.432,299.520 102.188,299.520 102.523 M165.270 104.720 L 163.360 106.720 165.360 104.810 C 166.460 103.760,167.360 102.860,167.360 102.810 C 167.360 102.574,167.044 102.862,165.270 104.720 M136.480 104.000 C 136.207 104.528,136.056 104.960,136.144 104.960 C 136.232 104.960,136.527 104.528,136.800 104.000 C 137.073 103.472,137.224 103.040,137.136 103.040 C 137.048 103.040,136.753 103.472,136.480 104.000 M292.827 106.080 C 292.827 106.256,293.103 106.904,293.440 107.520 C 293.777 108.136,294.053 108.496,294.053 108.320 C 294.053 108.144,293.777 107.496,293.440 106.880 C 293.103 106.264,292.827 105.904,292.827 106.080 M134.880 107.200 C 134.607 107.728,134.456 108.160,134.544 108.160 C 134.632 108.160,134.927 107.728,135.200 107.200 C 135.473 106.672,135.624 106.240,135.536 106.240 C 135.448 106.240,135.153 106.672,134.880 107.200 M99.680 108.800 C 99.407 109.328,99.256 109.760,99.344 109.760 C 99.432 109.760,99.727 109.328,100.000 108.800 C 100.273 108.272,100.424 107.840,100.336 107.840 C 100.248 107.840,99.953 108.272,99.680 108.800 M302.720 109.243 C 302.720 109.586,303.672 111.360,303.856 111.360 C 303.944 111.360,303.778 110.892,303.488 110.320 C 302.894 109.152,302.720 108.908,302.720 109.243 M152.480 110.720 C 152.207 111.248,152.056 111.680,152.144 111.680 C 152.232 111.680,152.527 111.248,152.800 110.720 C 153.073 110.192,153.224 109.760,153.136 109.760 C 153.048 109.760,152.753 110.192,152.480 110.720 M214.347 113.650 C 215.043 114.441,216.540 115.175,216.142 114.530 C 216.043 114.371,215.800 114.240,215.602 114.240 C 215.403 114.240,214.872 113.916,214.421 113.520 L 213.600 112.800 214.347 113.650 M183.505 114.960 L 182.240 116.320 183.600 115.055 C 184.865 113.879,185.107 113.600,184.865 113.600 C 184.813 113.600,184.201 114.212,183.505 114.960 M159.166 114.373 C 159.070 114.622,159.044 115.234,159.107 115.733 C 159.201 116.473,159.251 116.390,159.380 115.280 C 159.541 113.881,159.471 113.580,159.166 114.373 M96.480 115.200 C 96.207 115.728,96.056 116.160,96.144 116.160 C 96.232 116.160,96.527 115.728,96.800 115.200 C 97.073 114.672,97.224 114.240,97.136 114.240 C 97.048 114.240,96.753 114.672,96.480 115.200 M219.840 118.240 C 220.796 119.208,221.650 120.000,221.738 120.000 C 221.826 120.000,221.116 119.208,220.160 118.240 C 219.204 117.272,218.350 116.480,218.262 116.480 C 218.174 116.480,218.884 117.272,219.840 118.240 M205.440 117.386 C 205.704 117.549,206.280 117.779,206.720 117.897 C 207.276 118.045,207.374 118.020,207.040 117.814 C 206.776 117.651,206.200 117.421,205.760 117.303 C 205.204 117.155,205.106 117.180,205.440 117.386 M158.794 118.400 C 158.794 119.016,158.860 119.268,158.941 118.960 C 159.021 118.652,159.021 118.148,158.941 117.840 C 158.860 117.532,158.794 117.784,158.794 118.400 M151.127 119.360 C 151.127 120.152,151.190 120.476,151.266 120.080 C 151.342 119.684,151.342 119.036,151.266 118.640 C 151.190 118.244,151.127 118.568,151.127 119.360 M211.520 121.760 C 213.185 123.432,214.619 124.800,214.707 124.800 C 214.795 124.800,213.505 123.432,211.840 121.760 C 210.175 120.088,208.741 118.720,208.653 118.720 C 208.565 118.720,209.855 120.088,211.520 121.760 M223.667 121.680 C 224.451 122.516,225.135 123.200,225.187 123.200 C 225.427 123.200,225.173 122.913,223.760 121.587 L 222.240 120.160 223.667 121.680 M93.280 121.600 C 93.007 122.128,92.856 122.560,92.944 122.560 C 93.032 122.560,93.327 122.128,93.600 121.600 C 93.873 121.072,94.024 120.640,93.936 120.640 C 93.848 120.640,93.553 121.072,93.280 121.600 M150.794 122.240 C 150.794 122.856,150.860 123.108,150.941 122.800 C 151.021 122.492,151.021 121.988,150.941 121.680 C 150.860 121.372,150.794 121.624,150.794 122.240 M101.280 122.560 C 101.007 123.088,100.856 123.520,100.944 123.520 C 101.032 123.520,101.327 123.088,101.600 122.560 C 101.873 122.032,102.024 121.600,101.936 121.600 C 101.848 121.600,101.553 122.032,101.280 122.560 M91.680 124.800 C 91.407 125.328,91.256 125.760,91.344 125.760 C 91.432 125.760,91.727 125.328,92.000 124.800 C 92.273 124.272,92.424 123.840,92.336 123.840 C 92.248 123.840,91.953 124.272,91.680 124.800 M158.154 125.440 C 158.154 126.056,158.220 126.308,158.301 126.000 C 158.381 125.692,158.381 125.188,158.301 124.880 C 158.220 124.572,158.154 124.824,158.154 125.440 M125.280 126.080 C 125.007 126.608,124.856 127.040,124.944 127.040 C 125.032 127.040,125.327 126.608,125.600 126.080 C 125.873 125.552,126.024 125.120,125.936 125.120 C 125.848 125.120,125.553 125.552,125.280 126.080 M216.627 126.480 C 217.411 127.316,218.095 128.000,218.147 128.000 C 218.387 128.000,218.133 127.713,216.720 126.387 L 215.200 124.960 216.627 126.480 M157.615 129.135 C 157.492 129.951,157.457 130.684,157.537 130.764 C 157.617 130.844,157.783 130.242,157.905 129.425 C 158.028 128.609,158.063 127.876,157.983 127.796 C 157.903 127.716,157.737 128.318,157.615 129.135 M232.480 129.600 C 233.167 130.304,233.802 130.880,233.890 130.880 C 233.978 130.880,233.487 130.304,232.800 129.600 C 232.113 128.896,231.478 128.320,231.390 128.320 C 231.302 128.320,231.793 128.896,232.480 129.600 M234.240 130.980 C 234.240 131.035,234.708 131.503,235.280 132.020 L 236.320 132.960 235.380 131.920 C 234.504 130.951,234.240 130.733,234.240 130.980 M149.303 132.023 C 149.185 132.492,149.151 132.937,149.226 133.013 C 149.301 133.088,149.459 132.766,149.577 132.297 C 149.695 131.828,149.729 131.383,149.654 131.307 C 149.579 131.232,149.421 131.554,149.303 132.023 M237.760 134.240 C 238.357 134.856,238.918 135.360,239.006 135.360 C 239.094 135.360,238.677 134.856,238.080 134.240 C 237.483 133.624,236.922 133.120,236.834 133.120 C 236.746 133.120,237.163 133.624,237.760 134.240 M85.280 137.280 C 85.007 137.808,84.856 138.240,84.944 138.240 C 85.032 138.240,85.327 137.808,85.600 137.280 C 85.873 136.752,86.024 136.320,85.936 136.320 C 85.848 136.320,85.553 136.752,85.280 137.280 M307.743 137.436 C 308.035 138.050,308.332 138.495,308.401 138.426 C 308.547 138.279,307.576 136.320,307.357 136.320 C 307.276 136.320,307.450 136.822,307.743 137.436 M171.980 137.680 L 171.040 138.720 172.080 137.780 C 172.652 137.263,173.120 136.795,173.120 136.740 C 173.120 136.493,172.856 136.711,171.980 137.680 M242.240 138.002 C 242.240 138.082,243.284 139.066,244.560 140.189 C 245.836 141.313,246.679 141.978,246.434 141.668 C 245.902 140.994,242.240 137.794,242.240 138.002 M92.000 140.800 C 91.727 141.328,91.576 141.760,91.664 141.760 C 91.752 141.760,92.047 141.328,92.320 140.800 C 92.593 140.272,92.744 139.840,92.656 139.840 C 92.568 139.840,92.273 140.272,92.000 140.800 M117.280 141.760 C 117.007 142.288,116.856 142.720,116.944 142.720 C 117.032 142.720,117.327 142.288,117.600 141.760 C 117.873 141.232,118.024 140.800,117.936 140.800 C 117.848 140.800,117.553 141.232,117.280 141.760 M176.320 144.160 C 175.543 144.952,174.979 145.600,175.067 145.600 C 175.155 145.600,175.863 144.952,176.640 144.160 C 177.417 143.368,177.981 142.720,177.893 142.720 C 177.805 142.720,177.097 143.368,176.320 144.160 M115.680 144.960 C 115.407 145.488,115.256 145.920,115.344 145.920 C 115.432 145.920,115.727 145.488,116.000 144.960 C 116.273 144.432,116.424 144.000,116.336 144.000 C 116.248 144.000,115.953 144.432,115.680 144.960 M251.520 146.020 C 251.520 146.075,251.988 146.543,252.560 147.060 L 253.600 148.000 252.660 146.960 C 251.784 145.991,251.520 145.773,251.520 146.020 M147.200 147.620 C 147.200 147.675,147.668 148.143,148.240 148.660 L 149.280 149.600 148.340 148.560 C 147.464 147.591,147.200 147.373,147.200 147.620 M278.880 148.480 C 279.153 149.008,279.448 149.440,279.536 149.440 C 279.624 149.440,279.473 149.008,279.200 148.480 C 278.927 147.952,278.632 147.520,278.544 147.520 C 278.456 147.520,278.607 147.952,278.880 148.480 M253.760 147.940 C 253.760 147.995,254.228 148.463,254.800 148.980 L 255.840 149.920 254.900 148.880 C 254.024 147.911,253.760 147.693,253.760 147.940 M256.640 150.500 C 256.640 150.555,257.108 151.023,257.680 151.540 L 258.720 152.480 257.780 151.440 C 256.904 150.471,256.640 150.253,256.640 150.500 M152.800 151.360 C 153.152 151.511,153.656 151.635,153.920 151.635 C 154.223 151.635,154.163 151.533,153.760 151.360 C 153.408 151.209,152.904 151.085,152.640 151.085 C 152.337 151.085,152.397 151.187,152.800 151.360 M163.040 151.360 C 162.225 151.710,163.066 151.710,164.160 151.360 C 164.803 151.154,164.834 151.102,164.320 151.094 C 163.968 151.089,163.392 151.209,163.040 151.360 M156.731 151.916 C 157.661 151.981,159.101 151.980,159.931 151.915 C 160.761 151.849,160.000 151.796,158.240 151.797 C 156.480 151.798,155.801 151.851,156.731 151.916 M260.000 153.600 C 260.687 154.304,261.322 154.880,261.410 154.880 C 261.498 154.880,261.007 154.304,260.320 153.600 C 259.633 152.896,258.998 152.320,258.910 152.320 C 258.822 152.320,259.313 152.896,260.000 153.600 M251.520 156.900 C 251.520 156.955,251.988 157.423,252.560 157.940 L 253.600 158.880 252.660 157.840 C 251.784 156.871,251.520 156.653,251.520 156.900 M265.510 158.407 C 266.076 159.001,266.594 159.423,266.660 159.344 C 266.726 159.265,266.263 158.778,265.630 158.263 L 264.480 157.326 265.510 158.407 M117.600 159.680 C 117.327 160.208,117.176 160.640,117.264 160.640 C 117.352 160.640,117.647 160.208,117.920 159.680 C 118.193 159.152,118.344 158.720,118.256 158.720 C 118.168 158.720,117.873 159.152,117.600 159.680 M254.880 160.000 C 255.567 160.704,256.202 161.280,256.290 161.280 C 256.378 161.280,255.887 160.704,255.200 160.000 C 254.513 159.296,253.878 158.720,253.790 158.720 C 253.702 158.720,254.193 159.296,254.880 160.000 M313.200 160.503 C 312.004 161.152,312.077 161.422,313.280 160.800 C 313.808 160.527,314.240 160.235,314.240 160.152 C 314.240 159.946,314.206 159.957,313.200 160.503 M284.800 160.763 C 284.800 161.106,285.752 162.880,285.936 162.880 C 286.024 162.880,285.858 162.412,285.568 161.840 C 284.974 160.672,284.800 160.428,284.800 160.763 M269.440 161.700 C 269.440 161.755,269.908 162.223,270.480 162.740 L 271.520 163.680 270.580 162.640 C 269.704 161.671,269.440 161.453,269.440 161.700 M310.000 162.103 C 308.804 162.752,308.877 163.022,310.080 162.400 C 310.608 162.127,311.040 161.835,311.040 161.752 C 311.040 161.546,311.006 161.557,310.000 162.103 M215.760 162.469 C 216.244 162.543,217.036 162.543,217.520 162.469 C 218.004 162.396,217.608 162.336,216.640 162.336 C 215.672 162.336,215.276 162.396,215.760 162.469 M128.400 163.755 C 129.236 163.821,130.604 163.821,131.440 163.755 C 132.276 163.689,131.592 163.635,129.920 163.635 C 128.248 163.635,127.564 163.689,128.400 163.755 M272.640 164.640 C 273.237 165.256,273.798 165.760,273.886 165.760 C 273.974 165.760,273.557 165.256,272.960 164.640 C 272.363 164.024,271.802 163.520,271.714 163.520 C 271.626 163.520,272.043 164.024,272.640 164.640 M285.280 165.120 C 285.007 165.648,284.856 166.080,284.944 166.080 C 285.032 166.080,285.327 165.648,285.600 165.120 C 285.873 164.592,286.024 164.160,285.936 164.160 C 285.848 164.160,285.553 164.592,285.280 165.120 M316.720 167.223 C 315.524 167.872,315.597 168.142,316.800 167.520 C 317.328 167.247,317.760 166.955,317.760 166.872 C 317.760 166.666,317.726 166.677,316.720 167.223 M142.240 169.280 C 143.107 170.160,143.888 170.880,143.976 170.880 C 144.064 170.880,143.427 170.160,142.560 169.280 C 141.693 168.400,140.912 167.680,140.824 167.680 C 140.736 167.680,141.373 168.400,142.240 169.280 M313.520 168.823 C 312.324 169.472,312.397 169.742,313.600 169.120 C 314.128 168.847,314.560 168.555,314.560 168.472 C 314.560 168.266,314.526 168.277,313.520 168.823 M213.120 169.167 C 213.120 169.339,213.588 169.903,214.160 170.420 L 215.200 171.360 214.240 170.242 C 213.712 169.626,213.244 169.062,213.200 168.988 C 213.156 168.914,213.120 168.994,213.120 169.167 M267.680 171.200 C 268.367 171.904,269.002 172.480,269.090 172.480 C 269.178 172.480,268.687 171.904,268.000 171.200 C 267.313 170.496,266.678 169.920,266.590 169.920 C 266.502 169.920,266.993 170.496,267.680 171.200 M290.049 172.209 C 289.903 172.446,289.962 172.492,290.214 172.336 C 290.440 172.197,290.904 172.353,291.304 172.702 C 291.687 173.036,292.288 173.505,292.640 173.742 C 292.992 173.979,292.704 173.654,292.000 173.019 C 290.593 171.750,290.387 171.664,290.049 172.209 M297.044 175.270 C 297.531 175.343,298.251 175.341,298.644 175.265 C 299.038 175.189,298.640 175.129,297.760 175.132 C 296.880 175.134,296.558 175.196,297.044 175.270 M118.263 179.490 L 117.326 180.640 118.407 179.610 C 119.001 179.044,119.423 178.526,119.344 178.460 C 119.265 178.394,118.778 178.857,118.263 179.490 M147.594 179.840 C 147.594 180.456,147.660 180.708,147.741 180.400 C 147.821 180.092,147.821 179.588,147.741 179.280 C 147.660 178.972,147.594 179.224,147.594 179.840 M140.234 181.120 C 140.234 181.736,140.300 181.988,140.381 181.680 C 140.461 181.372,140.461 180.868,140.381 180.560 C 140.300 180.252,140.234 180.504,140.234 181.120 M279.040 180.900 C 279.040 180.955,279.508 181.423,280.080 181.940 L 281.120 182.880 280.180 181.840 C 279.304 180.871,279.040 180.653,279.040 180.900 M147.594 182.720 C 147.594 183.336,147.660 183.588,147.741 183.280 C 147.821 182.972,147.821 182.468,147.741 182.160 C 147.660 181.852,147.594 182.104,147.594 182.720 M105.263 183.280 L 104.160 184.480 105.360 183.377 C 106.477 182.351,106.707 182.080,106.463 182.080 C 106.409 182.080,105.869 182.620,105.263 183.280 M204.880 186.233 C 203.883 186.657,203.971 186.936,204.981 186.552 C 206.056 186.143,207.734 186.155,208.859 186.580 C 209.571 186.849,209.678 186.838,209.371 186.527 C 208.877 186.028,205.829 185.828,204.880 186.233 M159.360 187.940 C 159.360 187.995,159.828 188.463,160.400 188.980 L 161.440 189.920 160.500 188.880 C 159.624 187.911,159.360 187.693,159.360 187.940 M293.557 190.880 C 293.558 192.640,293.611 193.319,293.676 192.389 C 293.741 191.459,293.740 190.019,293.675 189.189 C 293.609 188.359,293.556 189.120,293.557 190.880 M110.018 189.360 C 109.454 190.017,109.032 190.720,109.201 190.720 C 109.266 190.720,109.639 190.288,110.029 189.760 C 110.801 188.717,110.793 188.457,110.018 189.360 M212.800 188.916 C 212.800 189.004,213.232 189.384,213.760 189.760 C 214.288 190.136,214.720 190.372,214.720 190.284 C 214.720 190.196,214.288 189.816,213.760 189.440 C 213.232 189.064,212.800 188.828,212.800 188.916 M202.327 190.400 C 202.327 191.192,202.390 191.516,202.466 191.120 C 202.542 190.724,202.542 190.076,202.466 189.680 C 202.390 189.284,202.327 189.608,202.327 190.400 M285.539 190.880 C 285.541 191.936,285.601 192.329,285.672 191.754 C 285.743 191.179,285.742 190.315,285.669 189.834 C 285.596 189.353,285.537 189.824,285.539 190.880 M215.040 190.516 C 215.040 190.604,215.472 190.984,216.000 191.360 C 216.528 191.736,216.960 191.972,216.960 191.884 C 216.960 191.796,216.528 191.416,216.000 191.040 C 215.472 190.664,215.040 190.428,215.040 190.516 M147.547 191.158 C 147.620 191.222,148.256 191.363,148.960 191.470 C 149.852 191.606,150.046 191.577,149.600 191.375 C 148.986 191.097,147.272 190.915,147.547 191.158 M217.280 192.116 C 217.280 192.204,217.712 192.584,218.240 192.960 C 218.768 193.336,219.200 193.572,219.200 193.484 C 219.200 193.396,218.768 193.016,218.240 192.640 C 217.712 192.264,217.280 192.028,217.280 192.116 M107.942 195.200 C 107.942 196.344,108.001 196.812,108.071 196.240 C 108.142 195.668,108.142 194.732,108.071 194.160 C 108.001 193.588,107.942 194.056,107.942 195.200 M204.134 194.036 C 204.560 194.561,205.760 195.354,205.760 195.111 C 205.760 195.050,205.292 194.658,204.720 194.239 C 204.076 193.768,203.853 193.691,204.134 194.036 M219.520 193.716 C 219.520 193.804,219.952 194.184,220.480 194.560 C 221.008 194.936,221.440 195.172,221.440 195.084 C 221.440 194.996,221.008 194.616,220.480 194.240 C 219.952 193.864,219.520 193.628,219.520 193.716 M155.200 194.340 C 155.200 194.395,155.668 194.863,156.240 195.380 L 157.280 196.320 156.340 195.280 C 155.464 194.311,155.200 194.093,155.200 194.340 M221.760 195.316 C 221.760 195.404,222.192 195.784,222.720 196.160 C 223.248 196.536,223.680 196.772,223.680 196.684 C 223.680 196.596,223.248 196.216,222.720 195.840 C 222.192 195.464,221.760 195.228,221.760 195.316 M282.560 196.960 C 281.783 197.752,281.219 198.400,281.307 198.400 C 281.395 198.400,282.103 197.752,282.880 196.960 C 283.657 196.168,284.221 195.520,284.133 195.520 C 284.045 195.520,283.337 196.168,282.560 196.960 M224.000 196.916 C 224.000 197.004,224.432 197.384,224.960 197.760 C 225.488 198.136,225.920 198.372,225.920 198.284 C 225.920 198.196,225.488 197.816,224.960 197.440 C 224.432 197.064,224.000 196.828,224.000 196.916 M253.120 198.489 C 253.120 198.550,253.588 198.942,254.160 199.361 C 254.804 199.832,255.027 199.909,254.746 199.564 C 254.320 199.039,253.120 198.246,253.120 198.489 M159.114 201.600 C 159.114 202.216,159.180 202.468,159.261 202.160 C 159.341 201.852,159.341 201.348,159.261 201.040 C 159.180 200.732,159.114 200.984,159.114 201.600 M289.100 202.000 L 288.160 203.040 289.200 202.100 C 289.772 201.583,290.240 201.115,290.240 201.060 C 290.240 200.813,289.976 201.031,289.100 202.000 M125.103 202.800 L 124.000 204.000 125.200 202.897 C 126.317 201.871,126.547 201.600,126.303 201.600 C 126.249 201.600,125.709 202.140,125.103 202.800 M179.520 204.550 C 179.520 204.613,180.204 205.227,181.040 205.914 C 181.876 206.601,182.272 206.832,181.920 206.427 C 181.298 205.711,179.520 204.321,179.520 204.550 M284.960 205.628 L 284.000 206.453 285.040 205.765 C 285.612 205.386,286.080 205.014,286.080 204.938 C 286.080 204.699,285.944 204.782,284.960 205.628 M262.720 205.220 C 262.720 205.275,263.188 205.743,263.760 206.260 L 264.800 207.200 263.860 206.160 C 262.984 205.191,262.720 204.973,262.720 205.220 M118.006 205.672 C 118.581 205.743,119.445 205.742,119.926 205.669 C 120.407 205.596,119.936 205.537,118.880 205.539 C 117.824 205.541,117.431 205.601,118.006 205.672 M105.587 207.760 C 106.913 209.173,107.200 209.427,107.200 209.187 C 107.200 209.135,106.516 208.451,105.680 207.667 L 104.160 206.240 105.587 207.760 M168.244 208.546 C 168.642 208.623,169.218 208.620,169.524 208.540 C 169.830 208.460,169.504 208.397,168.800 208.401 C 168.096 208.404,167.846 208.470,168.244 208.546 M273.605 208.880 C 273.608 209.244,273.693 209.310,273.846 209.069 C 273.976 208.865,274.514 208.634,275.041 208.557 C 275.911 208.429,275.888 208.411,274.800 208.368 C 273.851 208.330,273.601 208.437,273.605 208.880 M130.016 211.200 C 130.016 212.168,130.076 212.564,130.149 212.080 C 130.223 211.596,130.223 210.804,130.149 210.320 C 130.076 209.836,130.016 210.232,130.016 211.200 M265.687 211.200 C 265.687 211.992,265.750 212.316,265.826 211.920 C 265.902 211.524,265.902 210.876,265.826 210.480 C 265.750 210.084,265.687 210.408,265.687 211.200 M176.160 211.840 C 176.847 212.544,177.482 213.120,177.570 213.120 C 177.658 213.120,177.167 212.544,176.480 211.840 C 175.793 211.136,175.158 210.560,175.070 210.560 C 174.982 210.560,175.473 211.136,176.160 211.840 M191.031 211.218 C 190.837 211.579,190.726 212.018,190.784 212.192 C 190.842 212.365,191.055 212.069,191.257 211.534 C 191.677 210.420,191.551 210.244,191.031 211.218 M121.820 213.007 C 122.206 213.091,122.593 213.403,122.682 213.700 C 122.798 214.089,122.825 214.061,122.778 213.600 C 122.734 213.166,122.458 212.943,121.917 212.908 C 121.249 212.864,121.233 212.880,121.820 213.007 M186.103 213.440 C 186.221 213.880,186.451 214.456,186.614 214.720 C 186.820 215.054,186.845 214.956,186.697 214.400 C 186.579 213.960,186.349 213.384,186.186 213.120 C 185.980 212.786,185.955 212.884,186.103 213.440 M118.004 213.346 C 118.402 213.423,118.978 213.420,119.284 213.340 C 119.590 213.260,119.264 213.197,118.560 213.201 C 117.856 213.204,117.606 213.270,118.004 213.346 M179.594 218.560 C 179.594 219.176,179.660 219.428,179.741 219.120 C 179.821 218.812,179.821 218.308,179.741 218.000 C 179.660 217.692,179.594 217.944,179.594 218.560 M194.355 217.847 C 194.608 218.257,196.480 219.642,196.480 219.420 C 196.480 219.341,195.951 218.873,195.305 218.380 C 194.659 217.887,194.231 217.647,194.355 217.847 M261.600 218.262 C 261.072 218.600,260.804 218.877,261.005 218.878 C 261.205 218.879,261.709 218.597,262.125 218.251 C 263.076 217.458,262.847 217.463,261.600 218.262 M239.040 219.316 C 239.040 219.404,239.472 219.784,240.000 220.160 C 240.528 220.536,240.960 220.772,240.960 220.684 C 240.960 220.596,240.528 220.216,240.000 219.840 C 239.472 219.464,239.040 219.228,239.040 219.316 M178.060 221.655 C 177.567 222.301,177.327 222.729,177.527 222.605 C 177.937 222.352,179.322 220.480,179.100 220.480 C 179.021 220.480,178.553 221.009,178.060 221.655 M138.560 221.425 C 138.824 221.604,139.316 221.752,139.653 221.755 C 140.472 221.762,140.217 221.578,139.040 221.315 C 138.339 221.158,138.209 221.188,138.560 221.425 M241.600 221.220 C 241.600 221.275,242.068 221.743,242.640 222.260 L 243.680 223.200 242.740 222.160 C 241.864 221.191,241.600 220.973,241.600 221.220 M127.840 223.680 C 128.527 224.384,129.162 224.960,129.250 224.960 C 129.338 224.960,128.847 224.384,128.160 223.680 C 127.473 222.976,126.838 222.400,126.750 222.400 C 126.662 222.400,127.153 222.976,127.840 223.680 M200.960 222.836 C 200.960 222.924,201.392 223.304,201.920 223.680 C 202.448 224.056,202.880 224.292,202.880 224.204 C 202.880 224.116,202.448 223.736,201.920 223.360 C 201.392 222.984,200.960 222.748,200.960 222.836 M252.601 226.707 C 252.505 226.957,252.493 227.423,252.576 227.741 C 252.675 228.124,252.738 228.026,252.763 227.450 C 252.790 226.816,252.930 226.630,253.280 226.764 C 253.544 226.866,253.760 226.876,253.760 226.788 C 253.760 226.374,252.756 226.303,252.601 226.707 M207.155 227.447 C 207.408 227.857,209.280 229.242,209.280 229.020 C 209.280 228.941,208.751 228.473,208.105 227.980 C 207.459 227.487,207.031 227.247,207.155 227.447 M257.206 227.432 C 257.781 227.503,258.645 227.502,259.126 227.429 C 259.607 227.356,259.136 227.297,258.080 227.299 C 257.024 227.301,256.631 227.361,257.206 227.432 M192.960 227.620 C 192.960 227.675,193.428 228.143,194.000 228.660 L 195.040 229.600 194.100 228.560 C 193.224 227.591,192.960 227.373,192.960 227.620 M243.793 229.291 C 243.513 230.069,243.399 230.635,243.539 230.548 C 243.839 230.363,244.598 228.172,244.423 227.996 C 244.357 227.930,244.073 228.512,243.793 229.291 M139.600 229.341 C 139.908 229.421,140.412 229.421,140.720 229.341 C 141.028 229.260,140.776 229.194,140.160 229.194 C 139.544 229.194,139.292 229.260,139.600 229.341 M142.480 229.341 C 142.788 229.421,143.292 229.421,143.600 229.341 C 143.908 229.260,143.656 229.194,143.040 229.194 C 142.424 229.194,142.172 229.260,142.480 229.341 M241.583 232.880 L 240.480 234.080 241.680 232.977 C 242.797 231.951,243.027 231.680,242.783 231.680 C 242.729 231.680,242.189 232.220,241.583 232.880 M168.898 233.200 C 168.334 233.857,167.912 234.560,168.081 234.560 C 168.146 234.560,168.519 234.128,168.909 233.600 C 169.681 232.557,169.673 232.297,168.898 233.200 M196.234 233.600 C 196.234 234.216,196.300 234.468,196.381 234.160 C 196.461 233.852,196.461 233.348,196.381 233.040 C 196.300 232.732,196.234 232.984,196.234 233.600 M247.185 238.800 L 245.920 240.160 247.280 238.895 C 248.545 237.719,248.787 237.440,248.545 237.440 C 248.493 237.440,247.881 238.052,247.185 238.800 M149.600 239.040 C 150.287 239.744,150.922 240.320,151.010 240.320 C 151.098 240.320,150.607 239.744,149.920 239.040 C 149.233 238.336,148.598 237.760,148.510 237.760 C 148.422 237.760,148.913 238.336,149.600 239.040 M187.985 244.880 L 186.720 246.240 188.080 244.975 C 188.828 244.279,189.440 243.667,189.440 243.615 C 189.440 243.373,189.161 243.615,187.985 244.880 M216.160 247.040 C 215.632 247.390,215.344 247.674,215.520 247.671 C 215.841 247.666,217.581 246.419,217.280 246.409 C 217.192 246.406,216.688 246.690,216.160 247.040 M193.600 249.760 C 192.289 251.080,191.288 252.160,191.376 252.160 C 191.464 252.160,192.609 251.080,193.920 249.760 C 195.231 248.440,196.232 247.360,196.144 247.360 C 196.056 247.360,194.911 248.440,193.600 249.760 M171.840 248.100 C 171.840 248.155,172.308 248.623,172.880 249.140 L 173.920 250.080 172.980 249.040 C 172.104 248.071,171.840 247.853,171.840 248.100 M211.040 248.960 C 210.637 249.133,210.577 249.235,210.880 249.235 C 211.144 249.235,211.648 249.111,212.000 248.960 C 212.403 248.787,212.463 248.685,212.160 248.685 C 211.896 248.685,211.392 248.809,211.040 248.960 M183.764 254.310 C 184.251 254.383,184.971 254.381,185.364 254.305 C 185.758 254.229,185.360 254.169,184.480 254.172 C 183.600 254.174,183.278 254.236,183.764 254.310 " stroke="none" fill="#f4ac84" fill-rule="evenodd"></path>
        <path id="path3" d="M149.760 77.540 C 149.760 77.595,150.228 78.063,150.800 78.580 L 151.840 79.520 150.900 78.480 C 150.024 77.511,149.760 77.293,149.760 77.540 M151.764 100.390 C 152.251 100.463,152.971 100.461,153.364 100.385 C 153.758 100.309,153.360 100.249,152.480 100.252 C 151.600 100.254,151.278 100.316,151.764 100.390 M157.200 144.229 C 157.684 144.303,158.476 144.303,158.960 144.229 C 159.444 144.156,159.048 144.096,158.080 144.096 C 157.112 144.096,156.716 144.156,157.200 144.229 M75.914 157.760 C 75.914 158.376,75.980 158.628,76.061 158.320 C 76.141 158.012,76.141 157.508,76.061 157.200 C 75.980 156.892,75.914 157.144,75.914 157.760 M293.847 191.040 C 293.847 191.832,293.910 192.156,293.986 191.760 C 294.062 191.364,294.062 190.716,293.986 190.320 C 293.910 189.924,293.847 190.248,293.847 191.040 M147.600 191.581 C 147.908 191.661,148.412 191.661,148.720 191.581 C 149.028 191.500,148.776 191.434,148.160 191.434 C 147.544 191.434,147.292 191.500,147.600 191.581 M274.640 200.221 C 274.948 200.301,275.452 200.301,275.760 200.221 C 276.068 200.140,275.816 200.074,275.200 200.074 C 274.584 200.074,274.332 200.140,274.640 200.221 M167.760 200.869 C 168.244 200.943,169.036 200.943,169.520 200.869 C 170.004 200.796,169.608 200.736,168.640 200.736 C 167.672 200.736,167.276 200.796,167.760 200.869 M176.074 239.040 C 176.074 239.656,176.140 239.908,176.221 239.600 C 176.301 239.292,176.301 238.788,176.221 238.480 C 176.140 238.172,176.074 238.424,176.074 239.040 M236.240 243.421 C 236.548 243.501,237.052 243.501,237.360 243.421 C 237.668 243.340,237.416 243.274,236.800 243.274 C 236.184 243.274,235.932 243.340,236.240 243.421 " stroke="none" fill="#fbc3a3" fill-rule="evenodd"></path>
        <path id="path4" d="M126.324 67.106 C 126.722 67.183,127.298 67.180,127.604 67.100 C 127.910 67.020,127.584 66.957,126.880 66.961 C 126.176 66.964,125.926 67.030,126.324 67.106 M206.328 80.235 C 207.081 80.302,208.233 80.301,208.888 80.233 C 209.544 80.164,208.928 80.109,207.520 80.110 C 206.112 80.111,205.576 80.167,206.328 80.235 M249.062 83.520 C 249.062 84.664,249.121 85.132,249.191 84.560 C 249.262 83.988,249.262 83.052,249.191 82.480 C 249.121 81.908,249.062 82.376,249.062 83.520 M201.844 88.546 C 202.242 88.623,202.818 88.620,203.124 88.540 C 203.430 88.460,203.104 88.397,202.400 88.401 C 201.696 88.404,201.446 88.470,201.844 88.546 M212.404 88.546 C 212.802 88.623,213.378 88.620,213.684 88.540 C 213.990 88.460,213.664 88.397,212.960 88.401 C 212.256 88.404,212.006 88.470,212.404 88.546 M158.160 91.759 C 160.052 91.815,163.148 91.815,165.040 91.759 C 166.932 91.702,165.384 91.656,161.600 91.656 C 157.816 91.656,156.268 91.702,158.160 91.759 M250.000 96.549 C 250.484 96.623,251.276 96.623,251.760 96.549 C 252.244 96.476,251.848 96.416,250.880 96.416 C 249.912 96.416,249.516 96.476,250.000 96.549 M154.960 100.393 C 155.620 100.462,156.700 100.462,157.360 100.393 C 158.020 100.324,157.480 100.268,156.160 100.268 C 154.840 100.268,154.300 100.324,154.960 100.393 M165.900 104.400 L 164.960 105.440 166.000 104.500 C 166.572 103.983,167.040 103.515,167.040 103.460 C 167.040 103.213,166.776 103.431,165.900 104.400 M198.800 108.701 C 199.108 108.781,199.612 108.781,199.920 108.701 C 200.228 108.620,199.976 108.554,199.360 108.554 C 198.744 108.554,198.492 108.620,198.800 108.701 M151.441 114.080 C 151.444 114.784,151.510 115.034,151.586 114.636 C 151.663 114.238,151.660 113.662,151.580 113.356 C 151.500 113.050,151.437 113.376,151.441 114.080 M158.807 120.960 C 158.807 121.752,158.870 122.076,158.946 121.680 C 159.022 121.284,159.022 120.636,158.946 120.240 C 158.870 119.844,158.807 120.168,158.807 120.960 M224.000 121.700 C 224.000 121.755,224.468 122.223,225.040 122.740 L 226.080 123.680 225.140 122.640 C 224.264 121.671,224.000 121.453,224.000 121.700 M147.200 147.940 C 147.200 147.995,147.668 148.463,148.240 148.980 L 149.280 149.920 148.340 148.880 C 147.464 147.911,147.200 147.693,147.200 147.940 M271.360 174.500 C 271.360 174.555,271.828 175.023,272.400 175.540 L 273.440 176.480 272.500 175.440 C 271.624 174.471,271.360 174.253,271.360 174.500 M147.888 182.640 C 147.842 183.645,147.880 183.678,149.040 183.629 C 150.193 183.580,150.200 183.573,149.219 183.450 C 148.399 183.347,148.173 183.153,148.067 182.461 C 147.949 181.683,147.931 181.700,147.888 182.640 M100.277 195.040 C 100.278 196.800,100.331 197.479,100.396 196.549 C 100.461 195.619,100.460 194.179,100.395 193.349 C 100.329 192.519,100.276 193.280,100.277 195.040 M277.044 208.546 C 277.442 208.623,278.018 208.620,278.324 208.540 C 278.630 208.460,278.304 208.397,277.600 208.401 C 276.896 208.404,276.646 208.470,277.044 208.546 M168.244 208.866 C 168.642 208.943,169.218 208.940,169.524 208.860 C 169.830 208.780,169.504 208.717,168.800 208.721 C 168.096 208.724,167.846 208.790,168.244 208.866 M274.030 211.040 C 274.031 212.448,274.087 212.984,274.155 212.232 C 274.222 211.479,274.221 210.327,274.153 209.672 C 274.084 209.016,274.029 209.632,274.030 211.040 M176.160 212.160 C 176.847 212.864,177.482 213.440,177.570 213.440 C 177.658 213.440,177.167 212.864,176.480 212.160 C 175.793 211.456,175.158 210.880,175.070 210.880 C 174.982 210.880,175.473 211.456,176.160 212.160 M190.474 213.120 C 190.474 213.736,190.540 213.988,190.621 213.680 C 190.701 213.372,190.701 212.868,190.621 212.560 C 190.540 212.252,190.474 212.504,190.474 213.120 M146.060 219.600 L 145.120 220.640 146.160 219.700 C 147.129 218.824,147.347 218.560,147.100 218.560 C 147.045 218.560,146.577 219.028,146.060 219.600 M241.280 221.220 C 241.280 221.275,241.748 221.743,242.320 222.260 L 243.360 223.200 242.420 222.160 C 241.544 221.191,241.280 220.973,241.280 221.220 M257.360 227.749 C 257.844 227.823,258.636 227.823,259.120 227.749 C 259.604 227.676,259.208 227.616,258.240 227.616 C 257.272 227.616,256.876 227.676,257.360 227.749 M241.420 232.720 L 240.480 233.760 241.520 232.820 C 242.092 232.303,242.560 231.835,242.560 231.780 C 242.560 231.533,242.296 231.751,241.420 232.720 M162.320 237.021 C 162.628 237.101,163.132 237.101,163.440 237.021 C 163.748 236.940,163.496 236.874,162.880 236.874 C 162.264 236.874,162.012 236.940,162.320 237.021 " stroke="none" fill="#fcd4c3" fill-rule="evenodd"></path>
    </g>
</svg>